<svg width="176" height="200" viewBox="0 0 176 200" fill="none" xmlns="http://www.w3.org/2000/svg">
<path d="M104.956 95.2724C104.956 97.1374 103.444 98.6492 101.579 98.6492C99.7137 98.6492 98.2019 97.1374 98.2019 95.2724C98.2019 93.4074 99.7137 91.8955 101.579 91.8955C103.444 91.8955 104.956 93.4074 104.956 95.2724Z" fill="#F2F2F2"/>
<path fill-rule="evenodd" clip-rule="evenodd" d="M83.5125 1.13104C86.1245 -0.377012 89.3426 -0.377012 91.9546 1.13104L171.246 46.91C173.858 48.418 175.467 51.205 175.467 54.2211V145.779C175.467 148.795 173.858 151.582 171.246 153.09L91.9546 198.869C89.3426 200.377 86.1245 200.377 83.5125 198.869L4.22108 153.09C1.60907 151.582 0 148.795 0 145.779V54.2211C0 51.205 1.60907 48.418 4.22108 46.91L83.5125 1.13104ZM86.0461 24.994L23.574 61.0356C22.5287 61.6387 21.8847 62.7538 21.8847 63.9606V127.69C22.6492 139.008 39.2658 139.002 40.1197 127.69V74.7613C40.1197 73.5573 40.7608 72.4444 41.8022 71.8403L85.8729 46.2761C86.9194 45.6691 88.2106 45.6683 89.2578 46.2739L133.323 71.7569C134.367 72.3604 135.01 73.4745 135.01 74.6801V127.69C136.383 139.092 153.275 139.171 153.582 127.69V63.9606C153.582 62.7538 152.938 61.6387 151.893 61.0356L89.4211 24.994C88.3767 24.3915 87.0904 24.3915 86.0461 24.994ZM69.4985 145.52C69.4985 144.858 69.5337 144.205 69.6024 143.562H105.865C105.933 144.205 105.969 144.858 105.969 145.52C105.969 147.426 105.676 149.264 105.134 150.991H70.3333C69.7909 149.264 69.4985 147.426 69.4985 145.52ZM72.1795 155.043C75.386 160.269 81.1527 163.755 87.7336 163.755C94.3145 163.755 100.081 160.269 103.288 155.043H72.1795ZM105.5 139.509C105.364 133.125 106.989 124.077 110.439 120.203C115.22 114.833 118.125 107.756 118.125 100C118.125 83.2151 104.518 69.6082 87.7336 69.6082C70.9486 69.6082 57.3418 83.2151 57.3418 100C57.3418 107.756 60.2469 114.833 65.0283 120.203C68.4783 124.077 70.1028 133.125 69.9666 139.509H80.9798V105.741H94.4873V139.509H105.5ZM91.1104 139.509V120.322C90.2143 121.124 89.0309 121.612 87.7336 121.612C86.4363 121.612 85.2528 121.124 84.3567 120.322V139.509H91.1104Z" fill="#F2F2F2"/>
</svg>
