<svg width="689" height="481" viewBox="0 0 689 481" fill="none" xmlns="http://www.w3.org/2000/svg">
<path d="M452.923 112.349V112.351C452.923 116.038 449.943 119 446.187 119H361.736C357.98 119 355 116.038 355 112.351V59.3335H452.999L452.923 112.349Z" fill="#F2F2F3" stroke="#333638" stroke-width="2"/>
<path d="M452.923 47.6547V47.6492C452.923 43.9624 449.943 40.9998 446.187 40.9998H361.736C357.98 40.9998 355 43.9624 355 47.6492V60.6665H452.994L452.923 47.6547Z" fill="#F2F2F3" stroke="#333638" stroke-width="2"/>
<ellipse cx="367.559" cy="50.8335" rx="2.54237" ry="2.5" fill="#333638"/>
<ellipse cx="377.729" cy="50.8335" rx="2.54237" ry="2.5" fill="#333638"/>
<ellipse cx="387.898" cy="50.8335" rx="2.54238" ry="2.5" fill="#333638"/>
<path opacity="0.5" d="M452.923 112.349V112.351C452.923 116.038 449.943 119 446.187 119H361.736C357.98 119 355 116.038 355 112.351V59.3335H452.999L452.923 112.349Z" fill="#F2F2F3" stroke="#333638" stroke-width="2"/>
<path d="M383.312 86V74.72H384.976V79.584H391.296V74.72H392.944V86H391.296V80.976H384.976V86H383.312ZM398.794 86.144C398.004 86.144 397.322 85.9787 396.746 85.648C396.17 85.3173 395.722 84.8533 395.402 84.256C395.092 83.648 394.938 82.928 394.938 82.096C394.938 81.264 395.092 80.5493 395.402 79.952C395.722 79.344 396.17 78.8747 396.746 78.544C397.322 78.2133 398.004 78.048 398.794 78.048C399.562 78.048 400.234 78.2133 400.81 78.544C401.386 78.8747 401.834 79.344 402.154 79.952C402.474 80.5493 402.634 81.264 402.634 82.096C402.634 82.928 402.474 83.648 402.154 84.256C401.834 84.8533 401.386 85.3173 400.81 85.648C400.234 85.9787 399.562 86.144 398.794 86.144ZM398.794 84.896C399.455 84.896 399.988 84.656 400.394 84.176C400.799 83.696 401.002 83.0027 401.002 82.096C401.002 81.1893 400.799 80.5013 400.394 80.032C399.988 79.552 399.455 79.312 398.794 79.312C398.122 79.312 397.583 79.552 397.178 80.032C396.772 80.5013 396.57 81.1893 396.57 82.096C396.57 83.0027 396.772 83.696 397.178 84.176C397.583 84.656 398.122 84.896 398.794 84.896ZM404.481 86V78.192H406.049V79.456C406.283 79.008 406.609 78.6613 407.025 78.416C407.441 78.1707 407.926 78.048 408.481 78.048C409.675 78.048 410.449 78.5707 410.801 79.616C411.046 79.1253 411.398 78.7413 411.857 78.464C412.315 78.1867 412.838 78.048 413.425 78.048C415.174 78.048 416.049 79.0933 416.049 81.184V86H414.433V81.264C414.433 80.6027 414.315 80.1173 414.081 79.808C413.857 79.4987 413.483 79.344 412.961 79.344C412.374 79.344 411.91 79.552 411.569 79.968C411.227 80.3733 411.057 80.928 411.057 81.632V86H409.441V81.264C409.441 80.6027 409.329 80.1173 409.105 79.808C408.881 79.4987 408.507 79.344 407.985 79.344C407.398 79.344 406.934 79.552 406.593 79.968C406.262 80.3733 406.097 80.928 406.097 81.632V86H404.481ZM421.972 86.144C420.692 86.144 419.684 85.7867 418.948 85.072C418.212 84.3467 417.844 83.36 417.844 82.112C417.844 81.312 418.004 80.608 418.324 80C418.655 79.3813 419.108 78.9013 419.684 78.56C420.26 78.2187 420.921 78.048 421.668 78.048C422.745 78.048 423.593 78.3947 424.212 79.088C424.831 79.7707 425.14 80.7147 425.14 81.92V82.464H419.412C419.529 84.0853 420.388 84.896 421.988 84.896C422.436 84.896 422.873 84.8267 423.3 84.688C423.737 84.5493 424.148 84.32 424.532 84L425.012 85.12C424.66 85.44 424.207 85.6907 423.652 85.872C423.097 86.0533 422.537 86.144 421.972 86.144ZM421.732 79.184C421.06 79.184 420.527 79.392 420.132 79.808C419.737 80.224 419.497 80.7787 419.412 81.472H423.78C423.748 80.7467 423.556 80.1867 423.204 79.792C422.852 79.3867 422.361 79.184 421.732 79.184ZM383.312 108V96.72H387.984C389.2 96.72 390.139 97.024 390.8 97.632C391.461 98.2293 391.792 99.072 391.792 100.16C391.792 101.259 391.461 102.112 390.8 102.72C390.139 103.317 389.2 103.616 387.984 103.616H384.976V108H383.312ZM384.976 102.288H387.744C389.365 102.288 390.176 101.579 390.176 100.16C390.176 98.752 389.365 98.048 387.744 98.048H384.976V102.288ZM395.507 108.144C394.963 108.144 394.478 108.037 394.051 107.824C393.624 107.611 393.283 107.323 393.027 106.96C392.782 106.597 392.659 106.187 392.659 105.728C392.659 105.152 392.803 104.699 393.091 104.368C393.39 104.037 393.875 103.797 394.547 103.648C395.23 103.499 396.147 103.424 397.299 103.424H397.843V103.008C397.843 102.4 397.715 101.963 397.459 101.696C397.203 101.429 396.782 101.296 396.195 101.296C395.747 101.296 395.299 101.365 394.851 101.504C394.403 101.632 393.944 101.84 393.475 102.128L392.979 100.992C393.384 100.704 393.891 100.475 394.499 100.304C395.107 100.133 395.688 100.048 396.243 100.048C397.31 100.048 398.099 100.304 398.611 100.816C399.123 101.317 399.379 102.107 399.379 103.184V108H397.859V106.704C397.667 107.152 397.368 107.504 396.963 107.76C396.558 108.016 396.072 108.144 395.507 108.144ZM395.827 106.992C396.403 106.992 396.883 106.789 397.267 106.384C397.651 105.979 397.843 105.467 397.843 104.848V104.416H397.315C396.536 104.416 395.923 104.453 395.475 104.528C395.038 104.603 394.723 104.731 394.531 104.912C394.35 105.083 394.259 105.323 394.259 105.632C394.259 106.037 394.398 106.368 394.675 106.624C394.952 106.869 395.336 106.992 395.827 106.992ZM405.141 111.024C404.437 111.024 403.781 110.939 403.173 110.768C402.565 110.608 402.026 110.352 401.557 110L402.053 108.848C402.522 109.168 403.002 109.403 403.493 109.552C403.983 109.701 404.495 109.776 405.029 109.776C406.522 109.776 407.269 109.029 407.269 107.536V106.304C407.045 106.773 406.693 107.141 406.213 107.408C405.743 107.675 405.215 107.808 404.629 107.808C403.925 107.808 403.311 107.648 402.789 107.328C402.266 106.997 401.861 106.544 401.573 105.968C401.285 105.381 401.141 104.699 401.141 103.92C401.141 103.152 401.285 102.48 401.573 101.904C401.861 101.317 402.266 100.864 402.789 100.544C403.311 100.213 403.925 100.048 404.629 100.048C405.226 100.048 405.759 100.181 406.229 100.448C406.698 100.715 407.045 101.083 407.269 101.552V100.192H408.837V107.344C408.837 108.571 408.522 109.488 407.893 110.096C407.263 110.715 406.346 111.024 405.141 111.024ZM405.013 106.544C405.695 106.544 406.239 106.309 406.645 105.84C407.05 105.371 407.253 104.731 407.253 103.92C407.253 103.109 407.05 102.475 406.645 102.016C406.239 101.547 405.695 101.312 405.013 101.312C404.33 101.312 403.786 101.547 403.381 102.016C402.975 102.475 402.773 103.109 402.773 103.92C402.773 104.731 402.975 105.371 403.381 105.84C403.786 106.309 404.33 106.544 405.013 106.544ZM414.769 108.144C413.489 108.144 412.481 107.787 411.745 107.072C411.009 106.347 410.641 105.36 410.641 104.112C410.641 103.312 410.801 102.608 411.121 102C411.451 101.381 411.905 100.901 412.481 100.56C413.057 100.219 413.718 100.048 414.465 100.048C415.542 100.048 416.39 100.395 417.009 101.088C417.627 101.771 417.937 102.715 417.937 103.92V104.464H412.209C412.326 106.085 413.185 106.896 414.785 106.896C415.233 106.896 415.67 106.827 416.097 106.688C416.534 106.549 416.945 106.32 417.329 106L417.809 107.12C417.457 107.44 417.003 107.691 416.449 107.872C415.894 108.053 415.334 108.144 414.769 108.144ZM414.529 101.184C413.857 101.184 413.323 101.392 412.929 101.808C412.534 102.224 412.294 102.779 412.209 103.472H416.577C416.545 102.747 416.353 102.187 416.001 101.792C415.649 101.387 415.158 101.184 414.529 101.184Z" fill="#3A31D8"/>
<path d="M452.923 292.349V292.351C452.923 296.038 449.943 299 446.187 299H361.736C357.98 299 355 296.038 355 292.351V239.333H452.999L452.923 292.349Z" fill="#F2F2F3" stroke="#333638" stroke-width="2"/>
<path d="M452.923 227.655V227.649C452.923 223.962 449.943 221 446.187 221H361.736C357.98 221 355 223.962 355 227.649V240.667H452.994L452.923 227.655Z" fill="#F2F2F3" stroke="#333638" stroke-width="2"/>
<ellipse cx="367.559" cy="230.833" rx="2.54237" ry="2.5" fill="#333638"/>
<ellipse cx="377.729" cy="230.833" rx="2.54237" ry="2.5" fill="#333638"/>
<ellipse cx="387.898" cy="230.833" rx="2.54238" ry="2.5" fill="#333638"/>
<path opacity="0.5" d="M452.923 292.349V292.351C452.923 296.038 449.943 299 446.187 299H361.736C357.98 299 355 296.038 355 292.351V239.333H452.999L452.923 292.349Z" fill="#F2F2F3" stroke="#333638" stroke-width="2"/>
<path d="M376.312 273V261.72H381.016C382.189 261.72 383.096 261.981 383.736 262.504C384.387 263.016 384.712 263.736 384.712 264.664C384.712 265.272 384.552 265.795 384.232 266.232C383.912 266.669 383.475 266.989 382.92 267.192C383.571 267.363 384.077 267.677 384.44 268.136C384.803 268.595 384.984 269.176 384.984 269.88C384.984 270.883 384.648 271.656 383.976 272.2C383.315 272.733 382.392 273 381.208 273H376.312ZM377.912 266.648H380.76C382.317 266.648 383.096 266.04 383.096 264.824C383.096 263.608 382.317 263 380.76 263H377.912V266.648ZM377.912 271.72H381.016C382.584 271.72 383.368 271.085 383.368 269.816C383.368 268.557 382.584 267.928 381.016 267.928H377.912V271.72ZM387.042 273V265.192H388.61V266.584C389.016 265.656 389.858 265.139 391.138 265.032L391.666 265L391.778 266.376L390.802 266.472C389.384 266.611 388.674 267.341 388.674 268.664V273H387.042ZM396.294 273.144C395.504 273.144 394.822 272.979 394.246 272.648C393.67 272.317 393.222 271.853 392.902 271.256C392.592 270.648 392.438 269.928 392.438 269.096C392.438 268.264 392.592 267.549 392.902 266.952C393.222 266.344 393.67 265.875 394.246 265.544C394.822 265.213 395.504 265.048 396.294 265.048C397.062 265.048 397.734 265.213 398.31 265.544C398.886 265.875 399.334 266.344 399.654 266.952C399.974 267.549 400.134 268.264 400.134 269.096C400.134 269.928 399.974 270.648 399.654 271.256C399.334 271.853 398.886 272.317 398.31 272.648C397.734 272.979 397.062 273.144 396.294 273.144ZM396.294 271.896C396.955 271.896 397.488 271.656 397.894 271.176C398.299 270.696 398.502 270.003 398.502 269.096C398.502 268.189 398.299 267.501 397.894 267.032C397.488 266.552 396.955 266.312 396.294 266.312C395.622 266.312 395.083 266.552 394.678 267.032C394.272 267.501 394.07 268.189 394.07 269.096C394.07 270.003 394.272 270.696 394.678 271.176C395.083 271.656 395.622 271.896 396.294 271.896ZM403.92 273L400.944 265.192H402.608L404.704 271.112L406.864 265.192H408.112L410.24 271.144L412.368 265.192H413.952L410.976 273H409.504L407.44 267.416L405.392 273H403.92ZM417.919 273.144C417.279 273.144 416.682 273.064 416.127 272.904C415.572 272.733 415.108 272.499 414.735 272.2L415.199 271.112C415.594 271.389 416.026 271.603 416.495 271.752C416.975 271.901 417.455 271.976 417.935 271.976C418.5 271.976 418.927 271.875 419.215 271.672C419.503 271.469 419.647 271.197 419.647 270.856C419.647 270.579 419.551 270.365 419.359 270.216C419.167 270.056 418.879 269.933 418.495 269.848L416.975 269.544C415.631 269.267 414.959 268.573 414.959 267.464C414.959 266.728 415.252 266.141 415.839 265.704C416.426 265.267 417.194 265.048 418.143 265.048C418.687 265.048 419.204 265.128 419.695 265.288C420.196 265.448 420.612 265.688 420.943 266.008L420.479 267.096C420.159 266.819 419.791 266.605 419.375 266.456C418.959 266.307 418.548 266.232 418.143 266.232C417.588 266.232 417.167 266.339 416.879 266.552C416.591 266.755 416.447 267.032 416.447 267.384C416.447 267.917 416.799 268.259 417.503 268.408L419.023 268.712C419.716 268.851 420.239 269.085 420.591 269.416C420.954 269.747 421.135 270.195 421.135 270.76C421.135 271.507 420.842 272.093 420.255 272.52C419.668 272.936 418.89 273.144 417.919 273.144ZM426.597 273.144C425.317 273.144 424.309 272.787 423.573 272.072C422.837 271.347 422.469 270.36 422.469 269.112C422.469 268.312 422.629 267.608 422.949 267C423.28 266.381 423.733 265.901 424.309 265.56C424.885 265.219 425.546 265.048 426.293 265.048C427.37 265.048 428.218 265.395 428.837 266.088C429.456 266.771 429.765 267.715 429.765 268.92V269.464H424.037C424.154 271.085 425.013 271.896 426.613 271.896C427.061 271.896 427.498 271.827 427.925 271.688C428.362 271.549 428.773 271.32 429.157 271L429.637 272.12C429.285 272.44 428.832 272.691 428.277 272.872C427.722 273.053 427.162 273.144 426.597 273.144ZM426.357 266.184C425.685 266.184 425.152 266.392 424.757 266.808C424.362 267.224 424.122 267.779 424.037 268.472H428.405C428.373 267.747 428.181 267.187 427.829 266.792C427.477 266.387 426.986 266.184 426.357 266.184Z" fill="#3A31D8"/>
<path d="M452.923 472.349V472.351C452.923 476.038 449.943 479 446.187 479H361.736C357.98 479 355 476.038 355 472.351V419.333H452.999L452.923 472.349Z" fill="#F2F2F3" stroke="#333638" stroke-width="2"/>
<path d="M452.923 407.655V407.649C452.923 403.962 449.943 401 446.187 401H361.736C357.98 401 355 403.962 355 407.649V420.667H452.994L452.923 407.655Z" fill="#F2F2F3" stroke="#333638" stroke-width="2"/>
<ellipse cx="367.559" cy="410.833" rx="2.54237" ry="2.5" fill="#333638"/>
<ellipse cx="377.729" cy="410.833" rx="2.54237" ry="2.5" fill="#333638"/>
<ellipse cx="387.898" cy="410.833" rx="2.54238" ry="2.5" fill="#333638"/>
<path opacity="0.5" d="M452.923 472.349V472.351C452.923 476.038 449.943 479 446.187 479H361.736C357.98 479 355 476.038 355 472.351V419.333H452.999L452.923 472.349Z" fill="#F2F2F3" stroke="#333638" stroke-width="2"/>
<path d="M380.344 445V433.72H381.736L385.912 441.512L390.072 433.72H391.432V445H389.944V436.728L386.408 443.272H385.4L381.848 436.76V445H380.344ZM396.413 445.144C395.869 445.144 395.384 445.037 394.957 444.824C394.531 444.611 394.189 444.323 393.933 443.96C393.688 443.597 393.565 443.187 393.565 442.728C393.565 442.152 393.709 441.699 393.997 441.368C394.296 441.037 394.781 440.797 395.453 440.648C396.136 440.499 397.053 440.424 398.205 440.424H398.749V440.008C398.749 439.4 398.621 438.963 398.365 438.696C398.109 438.429 397.688 438.296 397.101 438.296C396.653 438.296 396.205 438.365 395.757 438.504C395.309 438.632 394.851 438.84 394.381 439.128L393.885 437.992C394.291 437.704 394.797 437.475 395.405 437.304C396.013 437.133 396.595 437.048 397.149 437.048C398.216 437.048 399.005 437.304 399.517 437.816C400.029 438.317 400.285 439.107 400.285 440.184V445H398.765V443.704C398.573 444.152 398.275 444.504 397.869 444.76C397.464 445.016 396.979 445.144 396.413 445.144ZM396.733 443.992C397.309 443.992 397.789 443.789 398.173 443.384C398.557 442.979 398.749 442.467 398.749 441.848V441.416H398.221C397.443 441.416 396.829 441.453 396.381 441.528C395.944 441.603 395.629 441.731 395.437 441.912C395.256 442.083 395.165 442.323 395.165 442.632C395.165 443.037 395.304 443.368 395.581 443.624C395.859 443.869 396.243 443.992 396.733 443.992ZM402.511 445V433.72H404.127V440.6H404.159L407.551 437.192H409.551L405.807 440.952L409.839 445H407.823L404.159 441.432H404.127V445H402.511ZM414.253 445.144C412.973 445.144 411.965 444.787 411.229 444.072C410.493 443.347 410.125 442.36 410.125 441.112C410.125 440.312 410.285 439.608 410.605 439C410.936 438.381 411.389 437.901 411.965 437.56C412.541 437.219 413.202 437.048 413.949 437.048C415.026 437.048 415.874 437.395 416.493 438.088C417.112 438.771 417.421 439.715 417.421 440.92V441.464H411.693C411.81 443.085 412.669 443.896 414.269 443.896C414.717 443.896 415.154 443.827 415.581 443.688C416.018 443.549 416.429 443.32 416.813 443L417.293 444.12C416.941 444.44 416.488 444.691 415.933 444.872C415.378 445.053 414.818 445.144 414.253 445.144ZM414.013 438.184C413.341 438.184 412.808 438.392 412.413 438.808C412.018 439.224 411.778 439.779 411.693 440.472H416.061C416.029 439.747 415.837 439.187 415.485 438.792C415.133 438.387 414.642 438.184 414.013 438.184ZM419.183 445V437.192H420.751V438.584C421.156 437.656 421.999 437.139 423.279 437.032L423.807 437L423.919 438.376L422.943 438.472C421.524 438.611 420.815 439.341 420.815 440.664V445H419.183ZM384.072 467.144C383.187 467.144 382.376 467.032 381.64 466.808C380.904 466.573 380.28 466.248 379.768 465.832L380.296 464.52C380.829 464.925 381.4 465.229 382.008 465.432C382.616 465.635 383.304 465.736 384.072 465.736C384.979 465.736 385.645 465.576 386.072 465.256C386.509 464.925 386.728 464.499 386.728 463.976C386.728 463.549 386.573 463.213 386.264 462.968C385.955 462.712 385.437 462.509 384.712 462.36L383 462.008C381.987 461.795 381.229 461.443 380.728 460.952C380.237 460.461 379.992 459.8 379.992 458.968C379.992 458.296 380.168 457.704 380.52 457.192C380.883 456.68 381.384 456.285 382.024 456.008C382.664 455.72 383.4 455.576 384.232 455.576C385 455.576 385.709 455.693 386.36 455.928C387.021 456.152 387.581 456.483 388.04 456.92L387.496 458.184C386.589 457.384 385.496 456.984 384.216 456.984C383.427 456.984 382.797 457.16 382.328 457.512C381.869 457.864 381.64 458.333 381.64 458.92C381.64 459.368 381.784 459.725 382.072 459.992C382.36 460.259 382.84 460.461 383.512 460.6L385.208 460.952C386.275 461.176 387.069 461.523 387.592 461.992C388.115 462.451 388.376 463.075 388.376 463.864C388.376 464.525 388.2 465.101 387.848 465.592C387.496 466.083 387 466.467 386.36 466.744C385.72 467.011 384.957 467.144 384.072 467.144ZM390.089 469.88V459.192H391.673V460.52C391.897 460.072 392.238 459.715 392.697 459.448C393.156 459.181 393.684 459.048 394.281 459.048C394.974 459.048 395.577 459.213 396.089 459.544C396.612 459.875 397.012 460.344 397.289 460.952C397.577 461.549 397.721 462.264 397.721 463.096C397.721 463.928 397.577 464.648 397.289 465.256C397.012 465.864 396.612 466.333 396.089 466.664C395.577 466.984 394.974 467.144 394.281 467.144C393.705 467.144 393.188 467.021 392.729 466.776C392.281 466.52 391.94 466.173 391.705 465.736V469.88H390.089ZM393.881 465.896C394.553 465.896 395.086 465.656 395.481 465.176C395.886 464.696 396.089 464.003 396.089 463.096C396.089 462.189 395.886 461.501 395.481 461.032C395.086 460.552 394.553 460.312 393.881 460.312C393.209 460.312 392.67 460.552 392.265 461.032C391.87 461.501 391.673 462.189 391.673 463.096C391.673 464.003 391.87 464.696 392.265 465.176C392.67 465.656 393.209 465.896 393.881 465.896ZM402.038 467.144C401.494 467.144 401.009 467.037 400.582 466.824C400.156 466.611 399.814 466.323 399.558 465.96C399.313 465.597 399.19 465.187 399.19 464.728C399.19 464.152 399.334 463.699 399.622 463.368C399.921 463.037 400.406 462.797 401.078 462.648C401.761 462.499 402.678 462.424 403.83 462.424H404.374V462.008C404.374 461.4 404.246 460.963 403.99 460.696C403.734 460.429 403.313 460.296 402.726 460.296C402.278 460.296 401.83 460.365 401.382 460.504C400.934 460.632 400.476 460.84 400.006 461.128L399.51 459.992C399.916 459.704 400.422 459.475 401.03 459.304C401.638 459.133 402.22 459.048 402.774 459.048C403.841 459.048 404.63 459.304 405.142 459.816C405.654 460.317 405.91 461.107 405.91 462.184V467H404.39V465.704C404.198 466.152 403.9 466.504 403.494 466.76C403.089 467.016 402.604 467.144 402.038 467.144ZM402.358 465.992C402.934 465.992 403.414 465.789 403.798 465.384C404.182 464.979 404.374 464.467 404.374 463.848V463.416H403.846C403.068 463.416 402.454 463.453 402.006 463.528C401.569 463.603 401.254 463.731 401.062 463.912C400.881 464.083 400.79 464.323 400.79 464.632C400.79 465.037 400.929 465.368 401.206 465.624C401.484 465.869 401.868 465.992 402.358 465.992ZM411.576 467.144C410.776 467.144 410.083 466.979 409.496 466.648C408.92 466.307 408.472 465.832 408.152 465.224C407.832 464.605 407.672 463.88 407.672 463.048C407.672 461.811 408.024 460.835 408.728 460.12C409.432 459.405 410.381 459.048 411.576 459.048C412.067 459.048 412.552 459.133 413.032 459.304C413.512 459.475 413.907 459.709 414.216 460.008L413.704 461.144C413.405 460.867 413.075 460.664 412.712 460.536C412.36 460.397 412.024 460.328 411.704 460.328C410.947 460.328 410.36 460.568 409.944 461.048C409.539 461.517 409.336 462.189 409.336 463.064C409.336 463.939 409.539 464.627 409.944 465.128C410.36 465.619 410.947 465.864 411.704 465.864C412.024 465.864 412.36 465.8 412.712 465.672C413.075 465.533 413.405 465.325 413.704 465.048L414.216 466.2C413.907 466.488 413.507 466.717 413.016 466.888C412.536 467.059 412.056 467.144 411.576 467.144ZM419.113 467.144C417.833 467.144 416.825 466.787 416.089 466.072C415.353 465.347 414.985 464.36 414.985 463.112C414.985 462.312 415.145 461.608 415.465 461C415.795 460.381 416.249 459.901 416.825 459.56C417.401 459.219 418.062 459.048 418.809 459.048C419.886 459.048 420.734 459.395 421.353 460.088C421.971 460.771 422.281 461.715 422.281 462.92V463.464H416.553C416.67 465.085 417.529 465.896 419.129 465.896C419.577 465.896 420.014 465.827 420.441 465.688C420.878 465.549 421.289 465.32 421.673 465L422.153 466.12C421.801 466.44 421.347 466.691 420.793 466.872C420.238 467.053 419.678 467.144 419.113 467.144ZM418.873 460.184C418.201 460.184 417.667 460.392 417.273 460.808C416.878 461.224 416.638 461.779 416.553 462.472H420.921C420.889 461.747 420.697 461.187 420.345 460.792C419.993 460.387 419.502 460.184 418.873 460.184Z" fill="#3A31D8"/>
<path d="M334.923 292.349V292.351C334.923 296.038 331.943 299 328.187 299H243.736C239.98 299 237 296.038 237 292.351V239.333H334.999L334.923 292.349Z" fill="#F2F2F3" stroke="#333638" stroke-width="2"/>
<path d="M334.923 227.655V227.649C334.923 223.962 331.943 221 328.187 221H243.736C239.98 221 237 223.962 237 227.649V240.667H334.994L334.923 227.655Z" fill="#F2F2F3" stroke="#333638" stroke-width="2"/>
<ellipse cx="249.559" cy="230.833" rx="2.54237" ry="2.5" fill="#333638"/>
<ellipse cx="259.729" cy="230.833" rx="2.54237" ry="2.5" fill="#333638"/>
<ellipse cx="269.898" cy="230.833" rx="2.54238" ry="2.5" fill="#333638"/>
<path opacity="0.5" d="M334.923 292.349V292.351C334.923 296.038 331.943 299 328.187 299H243.736C239.98 299 237 296.038 237 292.351V239.333H334.999L334.923 292.349Z" fill="#F2F2F3" stroke="#333638" stroke-width="2"/>
<path d="M246.312 273V261.72H250.296C252.152 261.72 253.581 262.205 254.584 263.176C255.597 264.147 256.104 265.539 256.104 267.352C256.104 269.165 255.597 270.563 254.584 271.544C253.581 272.515 252.152 273 250.296 273H246.312ZM247.976 271.608H250.2C252.984 271.608 254.376 270.189 254.376 267.352C254.376 264.525 252.984 263.112 250.2 263.112H247.976V271.608ZM260.648 273.144C260.104 273.144 259.618 273.037 259.192 272.824C258.765 272.611 258.424 272.323 258.168 271.96C257.922 271.597 257.8 271.187 257.8 270.728C257.8 270.152 257.944 269.699 258.232 269.368C258.53 269.037 259.016 268.797 259.688 268.648C260.37 268.499 261.288 268.424 262.44 268.424H262.984V268.008C262.984 267.4 262.856 266.963 262.6 266.696C262.344 266.429 261.922 266.296 261.336 266.296C260.888 266.296 260.44 266.365 259.992 266.504C259.544 266.632 259.085 266.84 258.616 267.128L258.12 265.992C258.525 265.704 259.032 265.475 259.64 265.304C260.248 265.133 260.829 265.048 261.384 265.048C262.45 265.048 263.24 265.304 263.752 265.816C264.264 266.317 264.52 267.107 264.52 268.184V273H263V271.704C262.808 272.152 262.509 272.504 262.104 272.76C261.698 273.016 261.213 273.144 260.648 273.144ZM260.968 271.992C261.544 271.992 262.024 271.789 262.408 271.384C262.792 270.979 262.984 270.467 262.984 269.848V269.416H262.456C261.677 269.416 261.064 269.453 260.616 269.528C260.178 269.603 259.864 269.731 259.672 269.912C259.49 270.083 259.4 270.323 259.4 270.632C259.4 271.037 259.538 271.368 259.816 271.624C260.093 271.869 260.477 271.992 260.968 271.992ZM269.481 273.144C268.841 273.144 268.244 273.064 267.689 272.904C267.135 272.733 266.671 272.499 266.297 272.2L266.761 271.112C267.156 271.389 267.588 271.603 268.057 271.752C268.537 271.901 269.017 271.976 269.497 271.976C270.063 271.976 270.489 271.875 270.777 271.672C271.065 271.469 271.209 271.197 271.209 270.856C271.209 270.579 271.113 270.365 270.921 270.216C270.729 270.056 270.441 269.933 270.057 269.848L268.537 269.544C267.193 269.267 266.521 268.573 266.521 267.464C266.521 266.728 266.815 266.141 267.401 265.704C267.988 265.267 268.756 265.048 269.705 265.048C270.249 265.048 270.767 265.128 271.257 265.288C271.759 265.448 272.175 265.688 272.505 266.008L272.041 267.096C271.721 266.819 271.353 266.605 270.937 266.456C270.521 266.307 270.111 266.232 269.705 266.232C269.151 266.232 268.729 266.339 268.441 266.552C268.153 266.755 268.009 267.032 268.009 267.384C268.009 267.917 268.361 268.259 269.065 268.408L270.585 268.712C271.279 268.851 271.801 269.085 272.153 269.416C272.516 269.747 272.697 270.195 272.697 270.76C272.697 271.507 272.404 272.093 271.817 272.52C271.231 272.936 270.452 273.144 269.481 273.144ZM274.495 273V261.72H276.111V266.408C276.378 265.96 276.735 265.624 277.183 265.4C277.642 265.165 278.154 265.048 278.719 265.048C280.565 265.048 281.487 266.093 281.487 268.184V273H279.871V268.28C279.871 267.608 279.738 267.117 279.471 266.808C279.215 266.499 278.81 266.344 278.255 266.344C277.605 266.344 277.082 266.552 276.687 266.968C276.303 267.373 276.111 267.912 276.111 268.584V273H274.495ZM287.906 273.144C287.309 273.144 286.781 273.011 286.322 272.744C285.863 272.477 285.522 272.12 285.298 271.672V273H283.714V261.72H285.33V266.456C285.565 266.029 285.906 265.688 286.354 265.432C286.813 265.176 287.33 265.048 287.906 265.048C288.599 265.048 289.202 265.213 289.714 265.544C290.237 265.875 290.637 266.344 290.914 266.952C291.202 267.549 291.346 268.264 291.346 269.096C291.346 269.928 291.202 270.648 290.914 271.256C290.637 271.864 290.237 272.333 289.714 272.664C289.202 272.984 288.599 273.144 287.906 273.144ZM287.506 271.896C288.178 271.896 288.711 271.656 289.106 271.176C289.511 270.696 289.714 270.003 289.714 269.096C289.714 268.189 289.511 267.501 289.106 267.032C288.711 266.552 288.178 266.312 287.506 266.312C286.834 266.312 286.295 266.552 285.89 267.032C285.495 267.501 285.298 268.189 285.298 269.096C285.298 270.003 285.495 270.696 285.89 271.176C286.295 271.656 286.834 271.896 287.506 271.896ZM296.559 273.144C295.77 273.144 295.087 272.979 294.511 272.648C293.935 272.317 293.487 271.853 293.167 271.256C292.858 270.648 292.703 269.928 292.703 269.096C292.703 268.264 292.858 267.549 293.167 266.952C293.487 266.344 293.935 265.875 294.511 265.544C295.087 265.213 295.77 265.048 296.559 265.048C297.327 265.048 297.999 265.213 298.575 265.544C299.151 265.875 299.599 266.344 299.919 266.952C300.239 267.549 300.399 268.264 300.399 269.096C300.399 269.928 300.239 270.648 299.919 271.256C299.599 271.853 299.151 272.317 298.575 272.648C297.999 272.979 297.327 273.144 296.559 273.144ZM296.559 271.896C297.221 271.896 297.754 271.656 298.159 271.176C298.565 270.696 298.767 270.003 298.767 269.096C298.767 268.189 298.565 267.501 298.159 267.032C297.754 266.552 297.221 266.312 296.559 266.312C295.887 266.312 295.349 266.552 294.943 267.032C294.538 267.501 294.335 268.189 294.335 269.096C294.335 270.003 294.538 270.696 294.943 271.176C295.349 271.656 295.887 271.896 296.559 271.896ZM304.71 273.144C304.166 273.144 303.681 273.037 303.254 272.824C302.827 272.611 302.486 272.323 302.23 271.96C301.985 271.597 301.862 271.187 301.862 270.728C301.862 270.152 302.006 269.699 302.294 269.368C302.593 269.037 303.078 268.797 303.75 268.648C304.433 268.499 305.35 268.424 306.502 268.424H307.046V268.008C307.046 267.4 306.918 266.963 306.662 266.696C306.406 266.429 305.985 266.296 305.398 266.296C304.95 266.296 304.502 266.365 304.054 266.504C303.606 266.632 303.147 266.84 302.678 267.128L302.182 265.992C302.587 265.704 303.094 265.475 303.702 265.304C304.31 265.133 304.891 265.048 305.446 265.048C306.513 265.048 307.302 265.304 307.814 265.816C308.326 266.317 308.582 267.107 308.582 268.184V273H307.062V271.704C306.87 272.152 306.571 272.504 306.166 272.76C305.761 273.016 305.275 273.144 304.71 273.144ZM305.03 271.992C305.606 271.992 306.086 271.789 306.47 271.384C306.854 270.979 307.046 270.467 307.046 269.848V269.416H306.518C305.739 269.416 305.126 269.453 304.678 269.528C304.241 269.603 303.926 269.731 303.734 269.912C303.553 270.083 303.462 270.323 303.462 270.632C303.462 271.037 303.601 271.368 303.878 271.624C304.155 271.869 304.539 271.992 305.03 271.992ZM310.808 273V265.192H312.376V266.584C312.781 265.656 313.624 265.139 314.904 265.032L315.432 265L315.544 266.376L314.568 266.472C313.149 266.611 312.44 267.341 312.44 268.664V273H310.808ZM319.643 273.144C318.961 273.144 318.358 272.984 317.835 272.664C317.323 272.333 316.923 271.864 316.635 271.256C316.347 270.648 316.203 269.928 316.203 269.096C316.203 268.264 316.347 267.549 316.635 266.952C316.923 266.344 317.323 265.875 317.835 265.544C318.347 265.213 318.95 265.048 319.643 265.048C320.23 265.048 320.753 265.176 321.211 265.432C321.67 265.688 322.011 266.035 322.235 266.472V261.72H323.851V273H322.267V271.64C322.043 272.109 321.697 272.477 321.227 272.744C320.769 273.011 320.241 273.144 319.643 273.144ZM320.059 271.896C320.721 271.896 321.254 271.656 321.659 271.176C322.065 270.696 322.267 270.003 322.267 269.096C322.267 268.189 322.065 267.501 321.659 267.032C321.254 266.552 320.721 266.312 320.059 266.312C319.387 266.312 318.849 266.552 318.443 267.032C318.038 267.501 317.835 268.189 317.835 269.096C317.835 270.003 318.038 270.696 318.443 271.176C318.849 271.656 319.387 271.896 320.059 271.896Z" fill="#3A31D8"/>
<path d="M216.923 292.349V292.351C216.923 296.038 213.943 299 210.187 299H125.736C121.98 299 119 296.038 119 292.351V239.333H216.999L216.923 292.349Z" fill="#F2F2F3" stroke="#333638" stroke-width="2"/>
<path d="M216.923 227.655V227.649C216.923 223.962 213.943 221 210.187 221H125.736C121.98 221 119 223.962 119 227.649V240.667H216.994L216.923 227.655Z" fill="#F2F2F3" stroke="#333638" stroke-width="2"/>
<ellipse cx="131.559" cy="230.833" rx="2.54237" ry="2.5" fill="#333638"/>
<ellipse cx="141.729" cy="230.833" rx="2.54237" ry="2.5" fill="#333638"/>
<ellipse cx="151.898" cy="230.833" rx="2.54238" ry="2.5" fill="#333638"/>
<path opacity="0.5" d="M216.923 292.349V292.351C216.923 296.038 213.943 299 210.187 299H125.736C121.98 299 119 296.038 119 292.351V239.333H216.999L216.923 292.349Z" fill="#F2F2F3" stroke="#333638" stroke-width="2"/>
<path d="M145.312 273V261.72H149.984C151.2 261.72 152.139 262.024 152.8 262.632C153.461 263.229 153.792 264.072 153.792 265.16C153.792 266.259 153.461 267.112 152.8 267.72C152.139 268.317 151.2 268.616 149.984 268.616H146.976V273H145.312ZM146.976 267.288H149.744C151.365 267.288 152.176 266.579 152.176 265.16C152.176 263.752 151.365 263.048 149.744 263.048H146.976V267.288ZM155.245 273V265.192H156.813V266.584C157.219 265.656 158.061 265.139 159.341 265.032L159.869 265L159.981 266.376L159.005 266.472C157.587 266.611 156.877 267.341 156.877 268.664V273H155.245ZM164.497 273.144C163.707 273.144 163.025 272.979 162.449 272.648C161.873 272.317 161.425 271.853 161.105 271.256C160.795 270.648 160.641 269.928 160.641 269.096C160.641 268.264 160.795 267.549 161.105 266.952C161.425 266.344 161.873 265.875 162.449 265.544C163.025 265.213 163.707 265.048 164.497 265.048C165.265 265.048 165.937 265.213 166.513 265.544C167.089 265.875 167.537 266.344 167.857 266.952C168.177 267.549 168.337 268.264 168.337 269.096C168.337 269.928 168.177 270.648 167.857 271.256C167.537 271.853 167.089 272.317 166.513 272.648C165.937 272.979 165.265 273.144 164.497 273.144ZM164.497 271.896C165.158 271.896 165.691 271.656 166.097 271.176C166.502 270.696 166.705 270.003 166.705 269.096C166.705 268.189 166.502 267.501 166.097 267.032C165.691 266.552 165.158 266.312 164.497 266.312C163.825 266.312 163.286 266.552 162.881 267.032C162.475 267.501 162.273 268.189 162.273 269.096C162.273 270.003 162.475 270.696 162.881 271.176C163.286 271.656 163.825 271.896 164.497 271.896ZM170.538 273V266.44H169.018V265.192H170.538V265.048C170.538 263.971 170.81 263.16 171.354 262.616C171.908 262.072 172.756 261.768 173.898 261.704L174.538 261.672L174.634 262.888L173.978 262.92C173.327 262.963 172.858 263.139 172.57 263.448C172.292 263.757 172.154 264.216 172.154 264.824V265.192H177.13V273H175.514V266.44H172.154V273H170.538ZM175.37 263.384V261.704H177.258V263.384H175.37ZM181.93 273.144C181.077 273.144 180.437 272.904 180.01 272.424C179.594 271.944 179.386 271.24 179.386 270.312V261.72H181.002V270.216C181.002 271.272 181.434 271.8 182.298 271.8C182.426 271.8 182.543 271.795 182.65 271.784C182.767 271.773 182.885 271.752 183.002 271.72L182.97 273.016C182.607 273.101 182.261 273.144 181.93 273.144ZM187.863 273.144C186.583 273.144 185.575 272.787 184.839 272.072C184.103 271.347 183.735 270.36 183.735 269.112C183.735 268.312 183.895 267.608 184.215 267C184.545 266.381 184.999 265.901 185.575 265.56C186.151 265.219 186.812 265.048 187.559 265.048C188.636 265.048 189.484 265.395 190.103 266.088C190.721 266.771 191.031 267.715 191.031 268.92V269.464H185.303C185.42 271.085 186.279 271.896 187.879 271.896C188.327 271.896 188.764 271.827 189.191 271.688C189.628 271.549 190.039 271.32 190.423 271L190.903 272.12C190.551 272.44 190.097 272.691 189.543 272.872C188.988 273.053 188.428 273.144 187.863 273.144ZM187.623 266.184C186.951 266.184 186.417 266.392 186.023 266.808C185.628 267.224 185.388 267.779 185.303 268.472H189.671C189.639 267.747 189.447 267.187 189.095 266.792C188.743 266.387 188.252 266.184 187.623 266.184Z" fill="#3A31D8"/>
<path d="M570.923 292.349V292.351C570.923 296.038 567.943 299 564.187 299H479.736C475.98 299 473 296.038 473 292.351V239.333H570.999L570.923 292.349Z" fill="#F2F2F3" stroke="#333638" stroke-width="2"/>
<path d="M570.923 227.655V227.649C570.923 223.962 567.943 221 564.187 221H479.736C475.98 221 473 223.962 473 227.649V240.667H570.994L570.923 227.655Z" fill="#F2F2F3" stroke="#333638" stroke-width="2"/>
<ellipse cx="485.559" cy="230.833" rx="2.54237" ry="2.5" fill="#333638"/>
<ellipse cx="495.729" cy="230.833" rx="2.54237" ry="2.5" fill="#333638"/>
<ellipse cx="505.898" cy="230.833" rx="2.54238" ry="2.5" fill="#333638"/>
<path opacity="0.5" d="M570.923 292.349V292.351C570.923 296.038 567.943 299 564.187 299H479.736C475.98 299 473 296.038 473 292.351V239.333H570.999L570.923 292.349Z" fill="#F2F2F3" stroke="#333638" stroke-width="2"/>
<path d="M487.176 273L492.2 261.72H493.576L498.616 273H496.92L495.736 270.248H490.024L488.856 273H487.176ZM492.872 263.56L490.616 268.904H495.176L492.904 263.56H492.872ZM504.109 273.144C503.512 273.144 502.984 273.011 502.525 272.744C502.067 272.477 501.725 272.12 501.501 271.672V273H499.917V261.72H501.533V266.456C501.768 266.029 502.109 265.688 502.557 265.432C503.016 265.176 503.533 265.048 504.109 265.048C504.803 265.048 505.405 265.213 505.917 265.544C506.44 265.875 506.84 266.344 507.117 266.952C507.405 267.549 507.549 268.264 507.549 269.096C507.549 269.928 507.405 270.648 507.117 271.256C506.84 271.864 506.44 272.333 505.917 272.664C505.405 272.984 504.803 273.144 504.109 273.144ZM503.709 271.896C504.381 271.896 504.915 271.656 505.309 271.176C505.715 270.696 505.917 270.003 505.917 269.096C505.917 268.189 505.715 267.501 505.309 267.032C504.915 266.552 504.381 266.312 503.709 266.312C503.037 266.312 502.499 266.552 502.093 267.032C501.699 267.501 501.501 268.189 501.501 269.096C501.501 270.003 501.699 270.696 502.093 271.176C502.499 271.656 503.037 271.896 503.709 271.896ZM512.762 273.144C511.973 273.144 511.29 272.979 510.714 272.648C510.138 272.317 509.69 271.853 509.37 271.256C509.061 270.648 508.906 269.928 508.906 269.096C508.906 268.264 509.061 267.549 509.37 266.952C509.69 266.344 510.138 265.875 510.714 265.544C511.29 265.213 511.973 265.048 512.762 265.048C513.53 265.048 514.202 265.213 514.778 265.544C515.354 265.875 515.802 266.344 516.122 266.952C516.442 267.549 516.602 268.264 516.602 269.096C516.602 269.928 516.442 270.648 516.122 271.256C515.802 271.853 515.354 272.317 514.778 272.648C514.202 272.979 513.53 273.144 512.762 273.144ZM512.762 271.896C513.424 271.896 513.957 271.656 514.362 271.176C514.768 270.696 514.97 270.003 514.97 269.096C514.97 268.189 514.768 267.501 514.362 267.032C513.957 266.552 513.424 266.312 512.762 266.312C512.09 266.312 511.552 266.552 511.146 267.032C510.741 267.501 510.538 268.189 510.538 269.096C510.538 270.003 510.741 270.696 511.146 271.176C511.552 271.656 512.09 271.896 512.762 271.896ZM521.201 273.144C519.313 273.144 518.369 272.093 518.369 269.992V265.192H519.985V270.008C519.985 270.637 520.113 271.101 520.369 271.4C520.625 271.699 521.031 271.848 521.585 271.848C522.193 271.848 522.684 271.645 523.057 271.24C523.441 270.835 523.633 270.291 523.633 269.608V265.192H525.249V273H523.681V271.752C523.425 272.211 523.084 272.557 522.657 272.792C522.231 273.027 521.745 273.144 521.201 273.144ZM530.855 273.144C529.873 273.144 529.143 272.893 528.663 272.392C528.183 271.891 527.943 271.165 527.943 270.216V266.44H526.423V265.192H527.943V262.84H529.559V265.192H531.975V266.44H529.559V270.088C529.559 270.653 529.676 271.08 529.911 271.368C530.156 271.656 530.551 271.8 531.095 271.8C531.265 271.8 531.431 271.784 531.591 271.752C531.751 271.709 531.911 271.661 532.071 271.608L532.327 272.824C532.167 272.92 531.943 272.995 531.655 273.048C531.377 273.112 531.111 273.144 530.855 273.144ZM542.31 273.144C540.806 273.144 539.654 272.749 538.854 271.96C538.064 271.16 537.67 269.992 537.67 268.456V261.72H539.334V268.424C539.334 270.611 540.326 271.704 542.31 271.704C544.294 271.704 545.286 270.611 545.286 268.424V261.72H546.918V268.456C546.918 269.992 546.528 271.16 545.75 271.96C544.971 272.749 543.824 273.144 542.31 273.144ZM552.044 273.144C551.404 273.144 550.807 273.064 550.252 272.904C549.697 272.733 549.233 272.499 548.86 272.2L549.324 271.112C549.719 271.389 550.151 271.603 550.62 271.752C551.1 271.901 551.58 271.976 552.06 271.976C552.625 271.976 553.052 271.875 553.34 271.672C553.628 271.469 553.772 271.197 553.772 270.856C553.772 270.579 553.676 270.365 553.484 270.216C553.292 270.056 553.004 269.933 552.62 269.848L551.1 269.544C549.756 269.267 549.084 268.573 549.084 267.464C549.084 266.728 549.377 266.141 549.964 265.704C550.551 265.267 551.319 265.048 552.268 265.048C552.812 265.048 553.329 265.128 553.82 265.288C554.321 265.448 554.737 265.688 555.068 266.008L554.604 267.096C554.284 266.819 553.916 266.605 553.5 266.456C553.084 266.307 552.673 266.232 552.268 266.232C551.713 266.232 551.292 266.339 551.004 266.552C550.716 266.755 550.572 267.032 550.572 267.384C550.572 267.917 550.924 268.259 551.628 268.408L553.148 268.712C553.841 268.851 554.364 269.085 554.716 269.416C555.079 269.747 555.26 270.195 555.26 270.76C555.26 271.507 554.967 272.093 554.38 272.52C553.793 272.936 553.015 273.144 552.044 273.144Z" fill="#3A31D8"/>
<path d="M687.923 292.349V292.351C687.923 296.038 684.943 299 681.187 299H596.736C592.98 299 590 296.038 590 292.351V239.333H687.999L687.923 292.349Z" fill="#F2F2F3" stroke="#333638" stroke-width="2"/>
<path d="M687.923 227.655V227.649C687.923 223.962 684.943 221 681.187 221H596.736C592.98 221 590 223.962 590 227.649V240.667H687.994L687.923 227.655Z" fill="#F2F2F3" stroke="#333638" stroke-width="2"/>
<ellipse cx="602.559" cy="230.833" rx="2.54237" ry="2.5" fill="#333638"/>
<ellipse cx="612.729" cy="230.833" rx="2.54237" ry="2.5" fill="#333638"/>
<ellipse cx="622.898" cy="230.833" rx="2.54238" ry="2.5" fill="#333638"/>
<path opacity="0.5" d="M687.923 292.349V292.351C687.923 296.038 684.943 299 681.187 299H596.736C592.98 299 590 296.038 590 292.351V239.333H687.999L687.923 292.349Z" fill="#F2F2F3" stroke="#333638" stroke-width="2"/>
<path d="M605.368 273.144C604.227 273.144 603.251 272.909 602.44 272.44C601.629 271.971 601.005 271.304 600.568 270.44C600.141 269.565 599.928 268.536 599.928 267.352C599.928 266.168 600.141 265.144 600.568 264.28C601.005 263.416 601.629 262.749 602.44 262.28C603.251 261.811 604.227 261.576 605.368 261.576C606.136 261.576 606.851 261.699 607.512 261.944C608.184 262.179 608.744 262.52 609.192 262.968L608.616 264.296C608.125 263.859 607.619 263.544 607.096 263.352C606.584 263.149 606.024 263.048 605.416 263.048C604.2 263.048 603.272 263.421 602.632 264.168C601.992 264.915 601.672 265.976 601.672 267.352C601.672 268.728 601.992 269.795 602.632 270.552C603.272 271.299 604.2 271.672 605.416 271.672C606.024 271.672 606.584 271.576 607.096 271.384C607.619 271.181 608.125 270.861 608.616 270.424L609.192 271.752C608.744 272.189 608.184 272.531 607.512 272.776C606.851 273.021 606.136 273.144 605.368 273.144ZM613.778 273.144C612.989 273.144 612.306 272.979 611.73 272.648C611.154 272.317 610.706 271.853 610.386 271.256C610.077 270.648 609.922 269.928 609.922 269.096C609.922 268.264 610.077 267.549 610.386 266.952C610.706 266.344 611.154 265.875 611.73 265.544C612.306 265.213 612.989 265.048 613.778 265.048C614.546 265.048 615.218 265.213 615.794 265.544C616.37 265.875 616.818 266.344 617.138 266.952C617.458 267.549 617.618 268.264 617.618 269.096C617.618 269.928 617.458 270.648 617.138 271.256C616.818 271.853 616.37 272.317 615.794 272.648C615.218 272.979 614.546 273.144 613.778 273.144ZM613.778 271.896C614.439 271.896 614.973 271.656 615.378 271.176C615.783 270.696 615.986 270.003 615.986 269.096C615.986 268.189 615.783 267.501 615.378 267.032C614.973 266.552 614.439 266.312 613.778 266.312C613.106 266.312 612.567 266.552 612.162 267.032C611.757 267.501 611.554 268.189 611.554 269.096C611.554 270.003 611.757 270.696 612.162 271.176C612.567 271.656 613.106 271.896 613.778 271.896ZM619.433 273V265.192H621.001V266.488C621.268 266.019 621.63 265.661 622.089 265.416C622.558 265.171 623.081 265.048 623.657 265.048C625.502 265.048 626.425 266.093 626.425 268.184V273H624.809V268.28C624.809 267.608 624.676 267.117 624.409 266.808C624.153 266.499 623.748 266.344 623.193 266.344C622.542 266.344 622.02 266.552 621.625 266.968C621.241 267.373 621.049 267.912 621.049 268.584V273H619.433ZM631.98 273.144C630.998 273.144 630.268 272.893 629.788 272.392C629.308 271.891 629.068 271.165 629.068 270.216V266.44H627.548V265.192H629.068V262.84H630.684V265.192H633.1V266.44H630.684V270.088C630.684 270.653 630.801 271.08 631.036 271.368C631.281 271.656 631.676 271.8 632.22 271.8C632.39 271.8 632.556 271.784 632.716 271.752C632.876 271.709 633.036 271.661 633.196 271.608L633.452 272.824C633.292 272.92 633.068 272.995 632.78 273.048C632.502 273.112 632.236 273.144 631.98 273.144ZM636.991 273.144C636.447 273.144 635.962 273.037 635.535 272.824C635.109 272.611 634.767 272.323 634.511 271.96C634.266 271.597 634.143 271.187 634.143 270.728C634.143 270.152 634.287 269.699 634.575 269.368C634.874 269.037 635.359 268.797 636.031 268.648C636.714 268.499 637.631 268.424 638.783 268.424H639.327V268.008C639.327 267.4 639.199 266.963 638.943 266.696C638.687 266.429 638.266 266.296 637.679 266.296C637.231 266.296 636.783 266.365 636.335 266.504C635.887 266.632 635.429 266.84 634.959 267.128L634.463 265.992C634.869 265.704 635.375 265.475 635.983 265.304C636.591 265.133 637.173 265.048 637.727 265.048C638.794 265.048 639.583 265.304 640.095 265.816C640.607 266.317 640.863 267.107 640.863 268.184V273H639.343V271.704C639.151 272.152 638.853 272.504 638.447 272.76C638.042 273.016 637.557 273.144 636.991 273.144ZM637.311 271.992C637.887 271.992 638.367 271.789 638.751 271.384C639.135 270.979 639.327 270.467 639.327 269.848V269.416H638.799C638.021 269.416 637.407 269.453 636.959 269.528C636.522 269.603 636.207 269.731 636.015 269.912C635.834 270.083 635.743 270.323 635.743 270.632C635.743 271.037 635.882 271.368 636.159 271.624C636.437 271.869 636.821 271.992 637.311 271.992ZM646.529 273.144C645.729 273.144 645.036 272.979 644.449 272.648C643.873 272.307 643.425 271.832 643.105 271.224C642.785 270.605 642.625 269.88 642.625 269.048C642.625 267.811 642.977 266.835 643.681 266.12C644.385 265.405 645.334 265.048 646.529 265.048C647.02 265.048 647.505 265.133 647.985 265.304C648.465 265.475 648.86 265.709 649.169 266.008L648.657 267.144C648.358 266.867 648.028 266.664 647.665 266.536C647.313 266.397 646.977 266.328 646.657 266.328C645.9 266.328 645.313 266.568 644.897 267.048C644.492 267.517 644.289 268.189 644.289 269.064C644.289 269.939 644.492 270.627 644.897 271.128C645.313 271.619 645.9 271.864 646.657 271.864C646.977 271.864 647.313 271.8 647.665 271.672C648.028 271.533 648.358 271.325 648.657 271.048L649.169 272.2C648.86 272.488 648.46 272.717 647.969 272.888C647.489 273.059 647.009 273.144 646.529 273.144ZM653.902 273.144C652.92 273.144 652.19 272.893 651.71 272.392C651.23 271.891 650.99 271.165 650.99 270.216V266.44H649.47V265.192H650.99V262.84H652.606V265.192H655.022V266.44H652.606V270.088C652.606 270.653 652.723 271.08 652.958 271.368C653.203 271.656 653.598 271.8 654.141 271.8C654.312 271.8 654.478 271.784 654.638 271.752C654.798 271.709 654.958 271.661 655.118 271.608L655.374 272.824C655.214 272.92 654.99 272.995 654.702 273.048C654.424 273.112 654.158 273.144 653.902 273.144ZM665.356 273.144C663.852 273.144 662.7 272.749 661.9 271.96C661.111 271.16 660.716 269.992 660.716 268.456V261.72H662.38V268.424C662.38 270.611 663.372 271.704 665.356 271.704C667.34 271.704 668.332 270.611 668.332 268.424V261.72H669.964V268.456C669.964 269.992 669.575 271.16 668.796 271.96C668.018 272.749 666.871 273.144 665.356 273.144ZM675.091 273.144C674.451 273.144 673.853 273.064 673.299 272.904C672.744 272.733 672.28 272.499 671.907 272.2L672.371 271.112C672.765 271.389 673.197 271.603 673.667 271.752C674.147 271.901 674.627 271.976 675.107 271.976C675.672 271.976 676.099 271.875 676.387 271.672C676.675 271.469 676.819 271.197 676.819 270.856C676.819 270.579 676.723 270.365 676.531 270.216C676.339 270.056 676.051 269.933 675.667 269.848L674.147 269.544C672.803 269.267 672.131 268.573 672.131 267.464C672.131 266.728 672.424 266.141 673.011 265.704C673.597 265.267 674.365 265.048 675.315 265.048C675.859 265.048 676.376 265.128 676.867 265.288C677.368 265.448 677.784 265.688 678.115 266.008L677.651 267.096C677.331 266.819 676.963 266.605 676.547 266.456C676.131 266.307 675.72 266.232 675.315 266.232C674.76 266.232 674.339 266.339 674.051 266.552C673.763 266.755 673.619 267.032 673.619 267.384C673.619 267.917 673.971 268.259 674.675 268.408L676.195 268.712C676.888 268.851 677.411 269.085 677.763 269.416C678.125 269.747 678.307 270.195 678.307 270.76C678.307 271.507 678.013 272.093 677.427 272.52C676.84 272.936 676.061 273.144 675.091 273.144Z" fill="#3A31D8"/>
<path d="M98.9231 473.349V473.351C98.9231 477.038 95.9432 480 92.1871 480H7.73598C3.97986 480 1 477.038 1 473.351V420.333H98.9986L98.9231 473.349Z" fill="#F2F2F3" stroke="#333638" stroke-width="2"/>
<path d="M98.9231 408.655V408.649C98.9231 404.962 95.9432 402 92.1871 402H7.73598C3.97986 402 1 404.962 1 408.649V421.667H98.9945L98.9231 408.655Z" fill="#F2F2F3" stroke="#333638" stroke-width="2"/>
<ellipse cx="13.5593" cy="411.833" rx="2.54237" ry="2.5" fill="#333638"/>
<ellipse cx="23.7288" cy="411.833" rx="2.54237" ry="2.5" fill="#333638"/>
<ellipse cx="33.8983" cy="411.833" rx="2.54238" ry="2.5" fill="#333638"/>
<path opacity="0.5" d="M98.9231 473.349V473.351C98.9231 477.038 95.9432 480 92.1871 480H7.73598C3.97986 480 1 477.038 1 473.351V420.333H98.9986L98.9231 473.349Z" fill="#F2F2F3" stroke="#333638" stroke-width="2"/>
<path d="M10.176 454L15.2 442.72H16.576L21.616 454H19.92L18.736 451.248H13.024L11.856 454H10.176ZM15.872 444.56L13.616 449.904H18.176L15.904 444.56H15.872ZM25.8151 454.144C25.1325 454.144 24.5298 453.984 24.0071 453.664C23.4951 453.333 23.0951 452.864 22.8071 452.256C22.5191 451.648 22.3751 450.928 22.3751 450.096C22.3751 449.264 22.5191 448.549 22.8071 447.952C23.0951 447.344 23.4951 446.875 24.0071 446.544C24.5191 446.213 25.1218 446.048 25.8151 446.048C26.4018 446.048 26.9245 446.176 27.3831 446.432C27.8418 446.688 28.1831 447.035 28.4071 447.472V442.72H30.0231V454H28.4391V452.64C28.2151 453.109 27.8685 453.477 27.3991 453.744C26.9405 454.011 26.4125 454.144 25.8151 454.144ZM26.2311 452.896C26.8925 452.896 27.4258 452.656 27.8311 452.176C28.2365 451.696 28.4391 451.003 28.4391 450.096C28.4391 449.189 28.2365 448.501 27.8311 448.032C27.4258 447.552 26.8925 447.312 26.2311 447.312C25.5591 447.312 25.0205 447.552 24.6151 448.032C24.2098 448.501 24.0071 449.189 24.0071 450.096C24.0071 451.003 24.2098 451.696 24.6151 452.176C25.0205 452.656 25.5591 452.896 26.2311 452.896ZM35.2682 454.144C34.5856 454.144 33.9829 453.984 33.4603 453.664C32.9483 453.333 32.5483 452.864 32.2603 452.256C31.9723 451.648 31.8283 450.928 31.8283 450.096C31.8283 449.264 31.9723 448.549 32.2603 447.952C32.5483 447.344 32.9483 446.875 33.4603 446.544C33.9723 446.213 34.5749 446.048 35.2682 446.048C35.8549 446.048 36.3776 446.176 36.8363 446.432C37.2949 446.688 37.6363 447.035 37.8603 447.472V442.72H39.4763V454H37.8923V452.64C37.6683 453.109 37.3216 453.477 36.8523 453.744C36.3936 454.011 35.8656 454.144 35.2682 454.144ZM35.6843 452.896C36.3456 452.896 36.8789 452.656 37.2843 452.176C37.6896 451.696 37.8923 451.003 37.8923 450.096C37.8923 449.189 37.6896 448.501 37.2843 448.032C36.8789 447.552 36.3456 447.312 35.6843 447.312C35.0123 447.312 34.4736 447.552 34.0683 448.032C33.6629 448.501 33.4603 449.189 33.4603 450.096C33.4603 451.003 33.6629 451.696 34.0683 452.176C34.4736 452.656 35.0123 452.896 35.6843 452.896ZM49.8845 454.144C48.9992 454.144 48.1885 454.032 47.4525 453.808C46.7165 453.573 46.0925 453.248 45.5805 452.832L46.1085 451.52C46.6418 451.925 47.2125 452.229 47.8205 452.432C48.4285 452.635 49.1165 452.736 49.8845 452.736C50.7912 452.736 51.4578 452.576 51.8845 452.256C52.3218 451.925 52.5405 451.499 52.5405 450.976C52.5405 450.549 52.3858 450.213 52.0765 449.968C51.7672 449.712 51.2498 449.509 50.5245 449.36L48.8125 449.008C47.7992 448.795 47.0418 448.443 46.5405 447.952C46.0498 447.461 45.8045 446.8 45.8045 445.968C45.8045 445.296 45.9805 444.704 46.3325 444.192C46.6952 443.68 47.1965 443.285 47.8365 443.008C48.4765 442.72 49.2125 442.576 50.0445 442.576C50.8125 442.576 51.5218 442.693 52.1725 442.928C52.8338 443.152 53.3938 443.483 53.8525 443.92L53.3085 445.184C52.4018 444.384 51.3085 443.984 50.0285 443.984C49.2392 443.984 48.6098 444.16 48.1405 444.512C47.6818 444.864 47.4525 445.333 47.4525 445.92C47.4525 446.368 47.5965 446.725 47.8845 446.992C48.1725 447.259 48.6525 447.461 49.3245 447.6L51.0205 447.952C52.0872 448.176 52.8818 448.523 53.4045 448.992C53.9272 449.451 54.1885 450.075 54.1885 450.864C54.1885 451.525 54.0125 452.101 53.6605 452.592C53.3085 453.083 52.8125 453.467 52.1725 453.744C51.5325 454.011 50.7698 454.144 49.8845 454.144ZM55.9016 456.88V446.192H57.4856V447.52C57.7096 447.072 58.051 446.715 58.5096 446.448C58.9683 446.181 59.4963 446.048 60.0936 446.048C60.787 446.048 61.3896 446.213 61.9016 446.544C62.4243 446.875 62.8243 447.344 63.1016 447.952C63.3896 448.549 63.5336 449.264 63.5336 450.096C63.5336 450.928 63.3896 451.648 63.1016 452.256C62.8243 452.864 62.4243 453.333 61.9016 453.664C61.3896 453.984 60.787 454.144 60.0936 454.144C59.5176 454.144 59.0003 454.021 58.5416 453.776C58.0936 453.52 57.7523 453.173 57.5176 452.736V456.88H55.9016ZM59.6936 452.896C60.3656 452.896 60.899 452.656 61.2936 452.176C61.699 451.696 61.9016 451.003 61.9016 450.096C61.9016 449.189 61.699 448.501 61.2936 448.032C60.899 447.552 60.3656 447.312 59.6936 447.312C59.0216 447.312 58.483 447.552 58.0776 448.032C57.683 448.501 57.4856 449.189 57.4856 450.096C57.4856 451.003 57.683 451.696 58.0776 452.176C58.483 452.656 59.0216 452.896 59.6936 452.896ZM67.8508 454.144C67.3068 454.144 66.8214 454.037 66.3948 453.824C65.9681 453.611 65.6268 453.323 65.3708 452.96C65.1254 452.597 65.0028 452.187 65.0028 451.728C65.0028 451.152 65.1468 450.699 65.4348 450.368C65.7334 450.037 66.2188 449.797 66.8908 449.648C67.5734 449.499 68.4908 449.424 69.6428 449.424H70.1868V449.008C70.1868 448.4 70.0588 447.963 69.8028 447.696C69.5468 447.429 69.1254 447.296 68.5388 447.296C68.0908 447.296 67.6428 447.365 67.1948 447.504C66.7468 447.632 66.2881 447.84 65.8188 448.128L65.3228 446.992C65.7281 446.704 66.2348 446.475 66.8428 446.304C67.4508 446.133 68.0321 446.048 68.5868 446.048C69.6534 446.048 70.4428 446.304 70.9548 446.816C71.4668 447.317 71.7228 448.107 71.7228 449.184V454H70.2028V452.704C70.0108 453.152 69.7121 453.504 69.3068 453.76C68.9014 454.016 68.4161 454.144 67.8508 454.144ZM68.1708 452.992C68.7468 452.992 69.2268 452.789 69.6108 452.384C69.9948 451.979 70.1868 451.467 70.1868 450.848V450.416H69.6588C68.8801 450.416 68.2668 450.453 67.8188 450.528C67.3814 450.603 67.0668 450.731 66.8748 450.912C66.6934 451.083 66.6028 451.323 66.6028 451.632C66.6028 452.037 66.7414 452.368 67.0188 452.624C67.2961 452.869 67.6801 452.992 68.1708 452.992ZM77.3885 454.144C76.5885 454.144 75.8952 453.979 75.3085 453.648C74.7325 453.307 74.2845 452.832 73.9645 452.224C73.6445 451.605 73.4845 450.88 73.4845 450.048C73.4845 448.811 73.8365 447.835 74.5405 447.12C75.2445 446.405 76.1938 446.048 77.3885 446.048C77.8792 446.048 78.3645 446.133 78.8445 446.304C79.3245 446.475 79.7192 446.709 80.0285 447.008L79.5165 448.144C79.2178 447.867 78.8872 447.664 78.5245 447.536C78.1725 447.397 77.8365 447.328 77.5165 447.328C76.7592 447.328 76.1725 447.568 75.7565 448.048C75.3512 448.517 75.1485 449.189 75.1485 450.064C75.1485 450.939 75.3512 451.627 75.7565 452.128C76.1725 452.619 76.7592 452.864 77.5165 452.864C77.8365 452.864 78.1725 452.8 78.5245 452.672C78.8872 452.533 79.2178 452.325 79.5165 452.048L80.0285 453.2C79.7192 453.488 79.3192 453.717 78.8285 453.888C78.3485 454.059 77.8685 454.144 77.3885 454.144ZM84.925 454.144C83.645 454.144 82.637 453.787 81.901 453.072C81.165 452.347 80.797 451.36 80.797 450.112C80.797 449.312 80.957 448.608 81.277 448C81.6077 447.381 82.061 446.901 82.637 446.56C83.213 446.219 83.8743 446.048 84.621 446.048C85.6983 446.048 86.5463 446.395 87.165 447.088C87.7837 447.771 88.093 448.715 88.093 449.92V450.464H82.365C82.4823 452.085 83.341 452.896 84.941 452.896C85.389 452.896 85.8263 452.827 86.253 452.688C86.6903 452.549 87.101 452.32 87.485 452L87.965 453.12C87.613 453.44 87.1597 453.691 86.605 453.872C86.0503 454.053 85.4903 454.144 84.925 454.144ZM84.685 447.184C84.013 447.184 83.4797 447.392 83.085 447.808C82.6903 448.224 82.4503 448.779 82.365 449.472H86.733C86.701 448.747 86.509 448.187 86.157 447.792C85.805 447.387 85.3143 447.184 84.685 447.184Z" fill="#3A31D8"/>
<path d="M216.923 473.349V473.351C216.923 477.038 213.943 480 210.187 480H125.736C121.98 480 119 477.038 119 473.351V420.333H216.999L216.923 473.349Z" fill="#F2F2F3" stroke="#333638" stroke-width="2"/>
<path d="M216.923 408.655V408.649C216.923 404.962 213.943 402 210.187 402H125.736C121.98 402 119 404.962 119 408.649V421.667H216.994L216.923 408.655Z" fill="#F2F2F3" stroke="#333638" stroke-width="2"/>
<ellipse cx="131.559" cy="411.833" rx="2.54237" ry="2.5" fill="#333638"/>
<ellipse cx="141.729" cy="411.833" rx="2.54237" ry="2.5" fill="#333638"/>
<ellipse cx="151.898" cy="411.833" rx="2.54238" ry="2.5" fill="#333638"/>
<path opacity="0.5" d="M216.923 473.349V473.351C216.923 477.038 213.943 480 210.187 480H125.736C121.98 480 119 477.038 119 473.351V420.333H216.999L216.923 473.349Z" fill="#F2F2F3" stroke="#333638" stroke-width="2"/>
<path d="M135.312 454V442.72H140.016C141.189 442.72 142.096 442.981 142.736 443.504C143.387 444.016 143.712 444.736 143.712 445.664C143.712 446.272 143.552 446.795 143.232 447.232C142.912 447.669 142.475 447.989 141.92 448.192C142.571 448.363 143.077 448.677 143.44 449.136C143.803 449.595 143.984 450.176 143.984 450.88C143.984 451.883 143.648 452.656 142.976 453.2C142.315 453.733 141.392 454 140.208 454H135.312ZM136.912 447.648H139.76C141.317 447.648 142.096 447.04 142.096 445.824C142.096 444.608 141.317 444 139.76 444H136.912V447.648ZM136.912 452.72H140.016C141.584 452.72 142.368 452.085 142.368 450.816C142.368 449.557 141.584 448.928 140.016 448.928H136.912V452.72ZM149.434 454.144C148.645 454.144 147.962 453.979 147.386 453.648C146.81 453.317 146.362 452.853 146.042 452.256C145.733 451.648 145.578 450.928 145.578 450.096C145.578 449.264 145.733 448.549 146.042 447.952C146.362 447.344 146.81 446.875 147.386 446.544C147.962 446.213 148.645 446.048 149.434 446.048C150.202 446.048 150.874 446.213 151.45 446.544C152.026 446.875 152.474 447.344 152.794 447.952C153.114 448.549 153.274 449.264 153.274 450.096C153.274 450.928 153.114 451.648 152.794 452.256C152.474 452.853 152.026 453.317 151.45 453.648C150.874 453.979 150.202 454.144 149.434 454.144ZM149.434 452.896C150.096 452.896 150.629 452.656 151.034 452.176C151.44 451.696 151.642 451.003 151.642 450.096C151.642 449.189 151.44 448.501 151.034 448.032C150.629 447.552 150.096 447.312 149.434 447.312C148.762 447.312 148.224 447.552 147.818 448.032C147.413 448.501 147.21 449.189 147.21 450.096C147.21 451.003 147.413 451.696 147.818 452.176C148.224 452.656 148.762 452.896 149.434 452.896ZM158.481 454.144C157.692 454.144 157.009 453.979 156.433 453.648C155.857 453.317 155.409 452.853 155.089 452.256C154.78 451.648 154.625 450.928 154.625 450.096C154.625 449.264 154.78 448.549 155.089 447.952C155.409 447.344 155.857 446.875 156.433 446.544C157.009 446.213 157.692 446.048 158.481 446.048C159.249 446.048 159.921 446.213 160.497 446.544C161.073 446.875 161.521 447.344 161.841 447.952C162.161 448.549 162.321 449.264 162.321 450.096C162.321 450.928 162.161 451.648 161.841 452.256C161.521 452.853 161.073 453.317 160.497 453.648C159.921 453.979 159.249 454.144 158.481 454.144ZM158.481 452.896C159.142 452.896 159.676 452.656 160.081 452.176C160.486 451.696 160.689 451.003 160.689 450.096C160.689 449.189 160.486 448.501 160.081 448.032C159.676 447.552 159.142 447.312 158.481 447.312C157.809 447.312 157.27 447.552 156.865 448.032C156.46 448.501 156.257 449.189 156.257 450.096C156.257 451.003 156.46 451.696 156.865 452.176C157.27 452.656 157.809 452.896 158.481 452.896ZM164.136 454V442.72H165.752V449.6H165.784L169.176 446.192H171.176L167.432 449.952L171.464 454H169.448L165.784 450.432H165.752V454H164.136ZM172.242 444.384V442.704H174.13V444.384H172.242ZM172.386 454V446.192H174.002V454H172.386ZM176.277 454V446.192H177.845V447.488C178.111 447.019 178.474 446.661 178.933 446.416C179.402 446.171 179.925 446.048 180.501 446.048C182.346 446.048 183.269 447.093 183.269 449.184V454H181.653V449.28C181.653 448.608 181.519 448.117 181.253 447.808C180.997 447.499 180.591 447.344 180.037 447.344C179.386 447.344 178.863 447.552 178.469 447.968C178.085 448.373 177.893 448.912 177.893 449.584V454H176.277ZM189.031 457.024C188.327 457.024 187.671 456.939 187.063 456.768C186.455 456.608 185.917 456.352 185.447 456L185.943 454.848C186.413 455.168 186.893 455.403 187.383 455.552C187.874 455.701 188.386 455.776 188.919 455.776C190.413 455.776 191.159 455.029 191.159 453.536V452.304C190.935 452.773 190.583 453.141 190.103 453.408C189.634 453.675 189.106 453.808 188.519 453.808C187.815 453.808 187.202 453.648 186.679 453.328C186.157 452.997 185.751 452.544 185.463 451.968C185.175 451.381 185.031 450.699 185.031 449.92C185.031 449.152 185.175 448.48 185.463 447.904C185.751 447.317 186.157 446.864 186.679 446.544C187.202 446.213 187.815 446.048 188.519 446.048C189.117 446.048 189.65 446.181 190.119 446.448C190.589 446.715 190.935 447.083 191.159 447.552V446.192H192.727V453.344C192.727 454.571 192.413 455.488 191.783 456.096C191.154 456.715 190.237 457.024 189.031 457.024ZM188.903 452.544C189.586 452.544 190.13 452.309 190.535 451.84C190.941 451.371 191.143 450.731 191.143 449.92C191.143 449.109 190.941 448.475 190.535 448.016C190.13 447.547 189.586 447.312 188.903 447.312C188.221 447.312 187.677 447.547 187.271 448.016C186.866 448.475 186.663 449.109 186.663 449.92C186.663 450.731 186.866 451.371 187.271 451.84C187.677 452.309 188.221 452.544 188.903 452.544ZM197.731 454.144C197.091 454.144 196.494 454.064 195.939 453.904C195.385 453.733 194.921 453.499 194.547 453.2L195.011 452.112C195.406 452.389 195.838 452.603 196.307 452.752C196.787 452.901 197.267 452.976 197.747 452.976C198.313 452.976 198.739 452.875 199.027 452.672C199.315 452.469 199.459 452.197 199.459 451.856C199.459 451.579 199.363 451.365 199.171 451.216C198.979 451.056 198.691 450.933 198.307 450.848L196.787 450.544C195.443 450.267 194.771 449.573 194.771 448.464C194.771 447.728 195.065 447.141 195.651 446.704C196.238 446.267 197.006 446.048 197.955 446.048C198.499 446.048 199.017 446.128 199.507 446.288C200.009 446.448 200.425 446.688 200.755 447.008L200.291 448.096C199.971 447.819 199.603 447.605 199.187 447.456C198.771 447.307 198.361 447.232 197.955 447.232C197.401 447.232 196.979 447.339 196.691 447.552C196.403 447.755 196.259 448.032 196.259 448.384C196.259 448.917 196.611 449.259 197.315 449.408L198.835 449.712C199.529 449.851 200.051 450.085 200.403 450.416C200.766 450.747 200.947 451.195 200.947 451.76C200.947 452.507 200.654 453.093 200.067 453.52C199.481 453.936 198.702 454.144 197.731 454.144Z" fill="#3A31D8"/>
<path d="M334.923 472.349V472.351C334.923 476.038 331.943 479 328.187 479H243.736C239.98 479 237 476.038 237 472.351V419.333H334.999L334.923 472.349Z" fill="#F2F2F3" stroke="#333638" stroke-width="2"/>
<path d="M334.923 407.655V407.649C334.923 403.962 331.943 401 328.187 401H243.736C239.98 401 237 403.962 237 407.649V420.667H334.994L334.923 407.655Z" fill="#F2F2F3" stroke="#333638" stroke-width="2"/>
<ellipse cx="249.559" cy="410.833" rx="2.54237" ry="2.5" fill="#333638"/>
<ellipse cx="259.729" cy="410.833" rx="2.54237" ry="2.5" fill="#333638"/>
<ellipse cx="269.898" cy="410.833" rx="2.54238" ry="2.5" fill="#333638"/>
<path opacity="0.5" d="M334.923 472.349V472.351C334.923 476.038 331.943 479 328.187 479H243.736C239.98 479 237 476.038 237 472.351V419.333H334.999L334.923 472.349Z" fill="#F2F2F3" stroke="#333638" stroke-width="2"/>
<path d="M248.344 453V441.72H249.736L253.912 449.512L258.072 441.72H259.432V453H257.944V444.728L254.408 451.272H253.4L249.848 444.76V453H248.344ZM262.717 455.88L264.109 452.792L260.845 445.192H262.573L264.973 451.128L267.405 445.192H269.069L264.413 455.88H262.717ZM278.369 453.144C277.484 453.144 276.673 453.032 275.937 452.808C275.201 452.573 274.577 452.248 274.065 451.832L274.593 450.52C275.126 450.925 275.697 451.229 276.305 451.432C276.913 451.635 277.601 451.736 278.369 451.736C279.276 451.736 279.942 451.576 280.369 451.256C280.806 450.925 281.025 450.499 281.025 449.976C281.025 449.549 280.87 449.213 280.561 448.968C280.252 448.712 279.734 448.509 279.009 448.36L277.297 448.008C276.284 447.795 275.526 447.443 275.025 446.952C274.534 446.461 274.289 445.8 274.289 444.968C274.289 444.296 274.465 443.704 274.817 443.192C275.18 442.68 275.681 442.285 276.321 442.008C276.961 441.72 277.697 441.576 278.529 441.576C279.297 441.576 280.006 441.693 280.657 441.928C281.318 442.152 281.878 442.483 282.337 442.92L281.793 444.184C280.886 443.384 279.793 442.984 278.513 442.984C277.724 442.984 277.094 443.16 276.625 443.512C276.166 443.864 275.937 444.333 275.937 444.92C275.937 445.368 276.081 445.725 276.369 445.992C276.657 446.259 277.137 446.461 277.809 446.6L279.505 446.952C280.572 447.176 281.366 447.523 281.889 447.992C282.412 448.451 282.673 449.075 282.673 449.864C282.673 450.525 282.497 451.101 282.145 451.592C281.793 452.083 281.297 452.467 280.657 452.744C280.017 453.011 279.254 453.144 278.369 453.144ZM284.386 455.88V445.192H285.97V446.52C286.194 446.072 286.535 445.715 286.994 445.448C287.453 445.181 287.981 445.048 288.578 445.048C289.271 445.048 289.874 445.213 290.386 445.544C290.909 445.875 291.309 446.344 291.586 446.952C291.874 447.549 292.018 448.264 292.018 449.096C292.018 449.928 291.874 450.648 291.586 451.256C291.309 451.864 290.909 452.333 290.386 452.664C289.874 452.984 289.271 453.144 288.578 453.144C288.002 453.144 287.485 453.021 287.026 452.776C286.578 452.52 286.237 452.173 286.002 451.736V455.88H284.386ZM288.178 451.896C288.85 451.896 289.383 451.656 289.778 451.176C290.183 450.696 290.386 450.003 290.386 449.096C290.386 448.189 290.183 447.501 289.778 447.032C289.383 446.552 288.85 446.312 288.178 446.312C287.506 446.312 286.967 446.552 286.562 447.032C286.167 447.501 285.97 448.189 285.97 449.096C285.97 450.003 286.167 450.696 286.562 451.176C286.967 451.656 287.506 451.896 288.178 451.896ZM296.335 453.144C295.791 453.144 295.306 453.037 294.879 452.824C294.452 452.611 294.111 452.323 293.855 451.96C293.61 451.597 293.487 451.187 293.487 450.728C293.487 450.152 293.631 449.699 293.919 449.368C294.218 449.037 294.703 448.797 295.375 448.648C296.058 448.499 296.975 448.424 298.127 448.424H298.671V448.008C298.671 447.4 298.543 446.963 298.287 446.696C298.031 446.429 297.61 446.296 297.023 446.296C296.575 446.296 296.127 446.365 295.679 446.504C295.231 446.632 294.772 446.84 294.303 447.128L293.807 445.992C294.212 445.704 294.719 445.475 295.327 445.304C295.935 445.133 296.516 445.048 297.071 445.048C298.138 445.048 298.927 445.304 299.439 445.816C299.951 446.317 300.207 447.107 300.207 448.184V453H298.687V451.704C298.495 452.152 298.196 452.504 297.791 452.76C297.386 453.016 296.9 453.144 296.335 453.144ZM296.655 451.992C297.231 451.992 297.711 451.789 298.095 451.384C298.479 450.979 298.671 450.467 298.671 449.848V449.416H298.143C297.364 449.416 296.751 449.453 296.303 449.528C295.866 449.603 295.551 449.731 295.359 449.912C295.178 450.083 295.087 450.323 295.087 450.632C295.087 451.037 295.226 451.368 295.503 451.624C295.78 451.869 296.164 451.992 296.655 451.992ZM305.873 453.144C305.073 453.144 304.38 452.979 303.793 452.648C303.217 452.307 302.769 451.832 302.449 451.224C302.129 450.605 301.969 449.88 301.969 449.048C301.969 447.811 302.321 446.835 303.025 446.12C303.729 445.405 304.678 445.048 305.873 445.048C306.364 445.048 306.849 445.133 307.329 445.304C307.809 445.475 308.204 445.709 308.513 446.008L308.001 447.144C307.702 446.867 307.372 446.664 307.009 446.536C306.657 446.397 306.321 446.328 306.001 446.328C305.244 446.328 304.657 446.568 304.241 447.048C303.836 447.517 303.633 448.189 303.633 449.064C303.633 449.939 303.836 450.627 304.241 451.128C304.657 451.619 305.244 451.864 306.001 451.864C306.321 451.864 306.657 451.8 307.009 451.672C307.372 451.533 307.702 451.325 308.001 451.048L308.513 452.2C308.204 452.488 307.804 452.717 307.313 452.888C306.833 453.059 306.353 453.144 305.873 453.144ZM313.409 453.144C312.129 453.144 311.121 452.787 310.385 452.072C309.649 451.347 309.281 450.36 309.281 449.112C309.281 448.312 309.441 447.608 309.761 447C310.092 446.381 310.545 445.901 311.121 445.56C311.697 445.219 312.359 445.048 313.105 445.048C314.183 445.048 315.031 445.395 315.649 446.088C316.268 446.771 316.577 447.715 316.577 448.92V449.464H310.849C310.967 451.085 311.825 451.896 313.425 451.896C313.873 451.896 314.311 451.827 314.737 451.688C315.175 451.549 315.585 451.32 315.969 451L316.449 452.12C316.097 452.44 315.644 452.691 315.089 452.872C314.535 453.053 313.975 453.144 313.409 453.144ZM313.169 446.184C312.497 446.184 311.964 446.392 311.569 446.808C311.175 447.224 310.935 447.779 310.849 448.472H315.217C315.185 447.747 314.993 447.187 314.641 446.792C314.289 446.387 313.799 446.184 313.169 446.184ZM321.075 453.144C320.435 453.144 319.838 453.064 319.283 452.904C318.728 452.733 318.264 452.499 317.891 452.2L318.355 451.112C318.75 451.389 319.182 451.603 319.651 451.752C320.131 451.901 320.611 451.976 321.091 451.976C321.656 451.976 322.083 451.875 322.371 451.672C322.659 451.469 322.803 451.197 322.803 450.856C322.803 450.579 322.707 450.365 322.515 450.216C322.323 450.056 322.035 449.933 321.651 449.848L320.131 449.544C318.787 449.267 318.115 448.573 318.115 447.464C318.115 446.728 318.408 446.141 318.995 445.704C319.582 445.267 320.35 445.048 321.299 445.048C321.843 445.048 322.36 445.128 322.851 445.288C323.352 445.448 323.768 445.688 324.099 446.008L323.635 447.096C323.315 446.819 322.947 446.605 322.531 446.456C322.115 446.307 321.704 446.232 321.299 446.232C320.744 446.232 320.323 446.339 320.035 446.552C319.747 446.755 319.603 447.032 319.603 447.384C319.603 447.917 319.955 448.259 320.659 448.408L322.179 448.712C322.872 448.851 323.395 449.085 323.747 449.416C324.11 449.747 324.291 450.195 324.291 450.76C324.291 451.507 323.998 452.093 323.411 452.52C322.824 452.936 322.046 453.144 321.075 453.144Z" fill="#3A31D8"/>
<path d="M248.923 72.3493V72.3508C248.923 76.0376 245.943 79.0002 242.187 79.0002H157.736C153.98 79.0002 151 76.0376 151 72.3508V19.3335H248.999L248.923 72.3493Z" fill="#F2F2F3" stroke="#333638" stroke-width="2"/>
<path d="M248.923 7.65473V7.64924C248.923 3.96244 245.943 0.999838 242.187 0.999838H157.736C153.98 0.999838 151 3.96244 151 7.64924V20.6665H248.994L248.923 7.65473Z" fill="#F2F2F3" stroke="#333638" stroke-width="2"/>
<ellipse cx="163.559" cy="10.8335" rx="2.54237" ry="2.5" fill="#333638"/>
<ellipse cx="173.729" cy="10.8335" rx="2.54237" ry="2.5" fill="#333638"/>
<ellipse cx="183.898" cy="10.8335" rx="2.54238" ry="2.5" fill="#333638"/>
<path opacity="0.5" d="M248.923 72.3493V72.3508C248.923 76.0376 245.943 79.0002 242.187 79.0002H157.736C153.98 79.0002 151 76.0376 151 72.3508V19.3335H248.999L248.923 72.3493Z" fill="#F2F2F3" stroke="#333638" stroke-width="2"/>
<path d="M180.312 52V40.72H181.976V50.576H187.56V52H180.312ZM192.278 52.144C191.489 52.144 190.806 51.9787 190.23 51.648C189.654 51.3173 189.206 50.8533 188.886 50.256C188.577 49.648 188.422 48.928 188.422 48.096C188.422 47.264 188.577 46.5493 188.886 45.952C189.206 45.344 189.654 44.8747 190.23 44.544C190.806 44.2133 191.489 44.048 192.278 44.048C193.046 44.048 193.718 44.2133 194.294 44.544C194.87 44.8747 195.318 45.344 195.638 45.952C195.958 46.5493 196.118 47.264 196.118 48.096C196.118 48.928 195.958 49.648 195.638 50.256C195.318 50.8533 194.87 51.3173 194.294 51.648C193.718 51.9787 193.046 52.144 192.278 52.144ZM192.278 50.896C192.939 50.896 193.473 50.656 193.878 50.176C194.283 49.696 194.486 49.0027 194.486 48.096C194.486 47.1893 194.283 46.5013 193.878 46.032C193.473 45.552 192.939 45.312 192.278 45.312C191.606 45.312 191.067 45.552 190.662 46.032C190.257 46.5013 190.054 47.1893 190.054 48.096C190.054 49.0027 190.257 49.696 190.662 50.176C191.067 50.656 191.606 50.896 192.278 50.896ZM201.469 55.024C200.765 55.024 200.109 54.9387 199.501 54.768C198.893 54.608 198.354 54.352 197.885 54L198.381 52.848C198.85 53.168 199.33 53.4027 199.821 53.552C200.312 53.7013 200.824 53.776 201.357 53.776C202.85 53.776 203.597 53.0293 203.597 51.536V50.304C203.373 50.7733 203.021 51.1413 202.541 51.408C202.072 51.6747 201.544 51.808 200.957 51.808C200.253 51.808 199.64 51.648 199.117 51.328C198.594 50.9973 198.189 50.544 197.901 49.968C197.613 49.3813 197.469 48.6987 197.469 47.92C197.469 47.152 197.613 46.48 197.901 45.904C198.189 45.3173 198.594 44.864 199.117 44.544C199.64 44.2133 200.253 44.048 200.957 44.048C201.554 44.048 202.088 44.1813 202.557 44.448C203.026 44.7147 203.373 45.0827 203.597 45.552V44.192H205.165V51.344C205.165 52.5707 204.85 53.488 204.221 54.096C203.592 54.7147 202.674 55.024 201.469 55.024ZM201.341 50.544C202.024 50.544 202.568 50.3093 202.973 49.84C203.378 49.3707 203.581 48.7307 203.581 47.92C203.581 47.1093 203.378 46.4747 202.973 46.016C202.568 45.5467 202.024 45.312 201.341 45.312C200.658 45.312 200.114 45.5467 199.709 46.016C199.304 46.4747 199.101 47.1093 199.101 47.92C199.101 48.7307 199.304 49.3707 199.709 49.84C200.114 50.3093 200.658 50.544 201.341 50.544ZM207.289 42.384V40.704H209.177V42.384H207.289ZM207.433 52V44.192H209.049V52H207.433ZM211.324 52V44.192H212.892V45.488C213.158 45.0187 213.521 44.6613 213.98 44.416C214.449 44.1707 214.972 44.048 215.548 44.048C217.393 44.048 218.316 45.0933 218.316 47.184V52H216.7V47.28C216.7 46.608 216.566 46.1173 216.3 45.808C216.044 45.4987 215.638 45.344 215.084 45.344C214.433 45.344 213.91 45.552 213.516 45.968C213.132 46.3733 212.94 46.912 212.94 47.584V52H211.324Z" fill="#3A31D8"/>
<path d="M656.923 72.3493V72.3508C656.923 76.0376 653.943 79.0002 650.187 79.0002H565.736C561.98 79.0002 559 76.0376 559 72.3508V19.3335H656.999L656.923 72.3493Z" fill="#F2F2F3" stroke="#333638" stroke-width="2"/>
<path d="M656.923 7.65473V7.64924C656.923 3.96244 653.943 0.999838 650.187 0.999838H565.736C561.98 0.999838 559 3.96244 559 7.64924V20.6665H656.994L656.923 7.65473Z" fill="#F2F2F3" stroke="#333638" stroke-width="2"/>
<ellipse cx="571.559" cy="10.8335" rx="2.54237" ry="2.5" fill="#333638"/>
<ellipse cx="581.729" cy="10.8335" rx="2.54237" ry="2.5" fill="#333638"/>
<ellipse cx="591.898" cy="10.8335" rx="2.54238" ry="2.5" fill="#333638"/>
<path opacity="0.5" d="M656.923 72.3493V72.3508C656.923 76.0376 653.943 79.0002 650.187 79.0002H565.736C561.98 79.0002 559 76.0376 559 72.3508V19.3335H656.999L656.923 72.3493Z" fill="#F2F2F3" stroke="#333638" stroke-width="2"/>
<path d="M578.312 52V40.72H582.984C584.2 40.72 585.139 41.0133 585.8 41.6C586.461 42.176 586.792 42.9867 586.792 44.032C586.792 44.8747 586.568 45.568 586.12 46.112C585.672 46.6453 585.037 47.0027 584.216 47.184C584.728 47.3547 585.16 47.7653 585.512 48.416L587.464 52H585.64L583.688 48.4C583.464 47.984 583.203 47.7067 582.904 47.568C582.616 47.4187 582.243 47.344 581.784 47.344H579.976V52H578.312ZM579.976 46.096H582.712C584.355 46.096 585.176 45.4187 585.176 44.064C585.176 42.72 584.355 42.048 582.712 42.048H579.976V46.096ZM592.441 52.144C591.161 52.144 590.153 51.7867 589.417 51.072C588.681 50.3467 588.313 49.36 588.313 48.112C588.313 47.312 588.473 46.608 588.793 46C589.123 45.3813 589.577 44.9013 590.153 44.56C590.729 44.2187 591.39 44.048 592.137 44.048C593.214 44.048 594.062 44.3947 594.681 45.088C595.299 45.7707 595.609 46.7147 595.609 47.92V48.464H589.881C589.998 50.0853 590.857 50.896 592.457 50.896C592.905 50.896 593.342 50.8267 593.769 50.688C594.206 50.5493 594.617 50.32 595.001 50L595.481 51.12C595.129 51.44 594.675 51.6907 594.121 51.872C593.566 52.0533 593.006 52.144 592.441 52.144ZM592.201 45.184C591.529 45.184 590.995 45.392 590.601 45.808C590.206 46.224 589.966 46.7787 589.881 47.472H594.249C594.217 46.7467 594.025 46.1867 593.673 45.792C593.321 45.3867 592.83 45.184 592.201 45.184ZM600.906 55.024C600.202 55.024 599.546 54.9387 598.938 54.768C598.33 54.608 597.792 54.352 597.322 54L597.818 52.848C598.288 53.168 598.768 53.4027 599.258 53.552C599.749 53.7013 600.261 53.776 600.794 53.776C602.288 53.776 603.034 53.0293 603.034 51.536V50.304C602.81 50.7733 602.458 51.1413 601.978 51.408C601.509 51.6747 600.981 51.808 600.394 51.808C599.69 51.808 599.077 51.648 598.554 51.328C598.032 50.9973 597.626 50.544 597.338 49.968C597.05 49.3813 596.906 48.6987 596.906 47.92C596.906 47.152 597.05 46.48 597.338 45.904C597.626 45.3173 598.032 44.864 598.554 44.544C599.077 44.2133 599.69 44.048 600.394 44.048C600.992 44.048 601.525 44.1813 601.994 44.448C602.464 44.7147 602.81 45.0827 603.034 45.552V44.192H604.602V51.344C604.602 52.5707 604.288 53.488 603.658 54.096C603.029 54.7147 602.112 55.024 600.906 55.024ZM600.778 50.544C601.461 50.544 602.005 50.3093 602.41 49.84C602.816 49.3707 603.018 48.7307 603.018 47.92C603.018 47.1093 602.816 46.4747 602.41 46.016C602.005 45.5467 601.461 45.312 600.778 45.312C600.096 45.312 599.552 45.5467 599.146 46.016C598.741 46.4747 598.538 47.1093 598.538 47.92C598.538 48.7307 598.741 49.3707 599.146 49.84C599.552 50.3093 600.096 50.544 600.778 50.544ZM606.726 42.384V40.704H608.614V42.384H606.726ZM606.87 52V44.192H608.486V52H606.87ZM613.497 52.144C612.857 52.144 612.26 52.064 611.705 51.904C611.15 51.7333 610.686 51.4987 610.313 51.2L610.777 50.112C611.172 50.3893 611.604 50.6027 612.073 50.752C612.553 50.9013 613.033 50.976 613.513 50.976C614.078 50.976 614.505 50.8747 614.793 50.672C615.081 50.4693 615.225 50.1973 615.225 49.856C615.225 49.5787 615.129 49.3653 614.937 49.216C614.745 49.056 614.457 48.9333 614.073 48.848L612.553 48.544C611.209 48.2667 610.537 47.5733 610.537 46.464C610.537 45.728 610.83 45.1413 611.417 44.704C612.004 44.2667 612.772 44.048 613.721 44.048C614.265 44.048 614.782 44.128 615.273 44.288C615.774 44.448 616.19 44.688 616.521 45.008L616.057 46.096C615.737 45.8187 615.369 45.6053 614.953 45.456C614.537 45.3067 614.126 45.232 613.721 45.232C613.166 45.232 612.745 45.3387 612.457 45.552C612.169 45.7547 612.025 46.032 612.025 46.384C612.025 46.9173 612.377 47.2587 613.081 47.408L614.601 47.712C615.294 47.8507 615.817 48.0853 616.169 48.416C616.532 48.7467 616.713 49.1947 616.713 49.76C616.713 50.5067 616.42 51.0933 615.833 51.52C615.246 51.936 614.468 52.144 613.497 52.144ZM621.761 52.144C620.78 52.144 620.049 51.8933 619.569 51.392C619.089 50.8907 618.849 50.1653 618.849 49.216V45.44H617.329V44.192H618.849V41.84H620.465V44.192H622.881V45.44H620.465V49.088C620.465 49.6533 620.582 50.08 620.817 50.368C621.062 50.656 621.457 50.8 622.001 50.8C622.172 50.8 622.337 50.784 622.497 50.752C622.657 50.7093 622.817 50.6613 622.977 50.608L623.233 51.824C623.073 51.92 622.849 51.9947 622.561 52.048C622.284 52.112 622.017 52.144 621.761 52.144ZM627.863 52.144C626.583 52.144 625.575 51.7867 624.839 51.072C624.103 50.3467 623.735 49.36 623.735 48.112C623.735 47.312 623.895 46.608 624.215 46C624.545 45.3813 624.999 44.9013 625.575 44.56C626.151 44.2187 626.812 44.048 627.559 44.048C628.636 44.048 629.484 44.3947 630.103 45.088C630.721 45.7707 631.031 46.7147 631.031 47.92V48.464H625.303C625.42 50.0853 626.279 50.896 627.879 50.896C628.327 50.896 628.764 50.8267 629.191 50.688C629.628 50.5493 630.039 50.32 630.423 50L630.903 51.12C630.551 51.44 630.097 51.6907 629.543 51.872C628.988 52.0533 628.428 52.144 627.863 52.144ZM627.623 45.184C626.951 45.184 626.417 45.392 626.023 45.808C625.628 46.224 625.388 46.7787 625.303 47.472H629.671C629.639 46.7467 629.447 46.1867 629.095 45.792C628.743 45.3867 628.252 45.184 627.623 45.184ZM632.792 52V44.192H634.36V45.584C634.766 44.656 635.608 44.1387 636.888 44.032L637.416 44L637.528 45.376L636.552 45.472C635.134 45.6107 634.424 46.3413 634.424 47.664V52H632.792Z" fill="#3A31D8"/>
<path d="M554 40H537C524.297 40 514 50.2975 514 63V63C514 75.7025 503.703 86 491 86H474" stroke="#BDBDBD" stroke-width="4" stroke-linecap="round" stroke-linejoin="round"/>
<path d="M490 86L472 86" stroke="#BDBDBD" stroke-width="4" stroke-linecap="round" stroke-linejoin="round"/>
<circle cx="7" cy="7" r="7" transform="matrix(-1 0 0 1 472 79)" stroke="#BDBDBD" stroke-width="4" stroke-linecap="round" stroke-linejoin="round"/>
<path d="M546 48L554 40L546 32" stroke="#BDBDBD" stroke-width="4" stroke-linecap="round" stroke-linejoin="round"/>
<path d="M254 40H271C283.703 40 294 50.2975 294 63V63C294 75.7025 304.297 86 317 86H334" stroke="#BDBDBD" stroke-width="4" stroke-linecap="round" stroke-linejoin="round"/>
<path d="M318 86L336 86" stroke="#BDBDBD" stroke-width="4" stroke-linecap="round" stroke-linejoin="round"/>
<circle cx="343" cy="86" r="7" stroke="#BDBDBD" stroke-width="4" stroke-linecap="round" stroke-linejoin="round"/>
<path d="M262 48L254 40L262 32" stroke="#BDBDBD" stroke-width="4" stroke-linecap="round" stroke-linejoin="round"/>
<path d="M640 216V216C640 201.992 640 194.988 637.166 189.686C634.929 185.5 631.5 182.071 627.314 179.834C622.012 177 615.008 177 601 177H443C428.992 177 421.988 177 416.686 174.166C412.5 171.929 409.071 168.5 406.834 164.314C404 159.012 404 152.008 404 138V138" stroke="#BDBDBD" stroke-width="4" stroke-linecap="round" stroke-linejoin="round"/>
<circle cx="7" cy="7" r="7" transform="matrix(0 -1 -1 0 411 138)" stroke="#BDBDBD" stroke-width="4" stroke-linecap="round" stroke-linejoin="round"/>
<path d="M632 208L640 216L648 208" stroke="#BDBDBD" stroke-width="4" stroke-linecap="round" stroke-linejoin="round"/>
<path d="M168 216V216C168 201.992 168 194.988 170.834 189.686C173.071 185.5 176.5 182.071 180.686 179.834C185.988 177 192.992 177 207 177H365C379.008 177 386.012 177 391.314 174.166C395.5 171.929 398.929 168.5 401.166 164.314C404 159.012 404 152.008 404 138V138" stroke="#BDBDBD" stroke-width="4" stroke-linecap="round" stroke-linejoin="round"/>
<circle cx="404" cy="131" r="7" transform="rotate(-90 404 131)" stroke="#BDBDBD" stroke-width="4" stroke-linecap="round" stroke-linejoin="round"/>
<path d="M176 208L168 216L160 208" stroke="#BDBDBD" stroke-width="4" stroke-linecap="round" stroke-linejoin="round"/>
<path d="M49 396V396C49 381.992 49 374.988 51.8339 369.686C54.0715 365.5 57.5002 362.071 61.6865 359.834C66.9883 357 73.9922 357 88 357H246C260.008 357 267.012 357 272.314 354.166C276.5 351.929 279.929 348.5 282.166 344.314C285 339.012 285 332.008 285 318V318" stroke="#BDBDBD" stroke-width="4" stroke-linecap="round" stroke-linejoin="round"/>
<circle cx="285" cy="311" r="7" transform="rotate(-90 285 311)" stroke="#BDBDBD" stroke-width="4" stroke-linecap="round" stroke-linejoin="round"/>
<path d="M57 388L49 396L41 388" stroke="#BDBDBD" stroke-width="4" stroke-linecap="round" stroke-linejoin="round"/>
<path d="M523 216V216C523 201.992 523 194.988 520.166 189.686C517.929 185.5 514.5 182.071 510.314 179.834C505.012 177 498.008 177 484 177H443C428.992 177 421.988 177 416.686 174.166C412.5 171.929 409.071 168.5 406.834 164.314C404 159.012 404 152.008 404 138V138" stroke="#BDBDBD" stroke-width="4" stroke-linecap="round" stroke-linejoin="round"/>
<circle cx="7" cy="7" r="7" transform="matrix(0 -1 -1 0 411 138)" stroke="#BDBDBD" stroke-width="4" stroke-linecap="round" stroke-linejoin="round"/>
<path d="M515 208L523 216L531 208" stroke="#BDBDBD" stroke-width="4" stroke-linecap="round" stroke-linejoin="round"/>
<path d="M285 216V216C285 201.992 285 194.988 287.834 189.686C290.071 185.5 293.5 182.071 297.686 179.834C302.988 177 309.992 177 324 177H365C379.008 177 386.012 177 391.314 174.166C395.5 171.929 398.929 168.5 401.166 164.314C404 159.012 404 152.008 404 138V138" stroke="#BDBDBD" stroke-width="4" stroke-linecap="round" stroke-linejoin="round"/>
<circle cx="404" cy="131" r="7" transform="rotate(-90 404 131)" stroke="#BDBDBD" stroke-width="4" stroke-linecap="round" stroke-linejoin="round"/>
<path d="M293 208L285 216L277 208" stroke="#BDBDBD" stroke-width="4" stroke-linecap="round" stroke-linejoin="round"/>
<path d="M166 396V396C166 381.992 166 374.988 168.834 369.686C171.071 365.5 174.5 362.071 178.686 359.834C183.988 357 190.992 357 205 357H246C260.008 357 267.012 357 272.314 354.166C276.5 351.929 279.929 348.5 282.166 344.314C285 339.012 285 332.008 285 318V318" stroke="#BDBDBD" stroke-width="4" stroke-linecap="round" stroke-linejoin="round"/>
<circle cx="285" cy="311" r="7" transform="rotate(-90 285 311)" stroke="#BDBDBD" stroke-width="4" stroke-linecap="round" stroke-linejoin="round"/>
<path d="M174 388L166 396L158 388" stroke="#BDBDBD" stroke-width="4" stroke-linecap="round" stroke-linejoin="round"/>
<path d="M404 216V138" stroke="#BDBDBD" stroke-width="4" stroke-linecap="round" stroke-linejoin="round"/>
<path d="M396 208L404 216L412 208" stroke="#BDBDBD" stroke-width="4" stroke-linecap="round" stroke-linejoin="round"/>
<circle cx="7" cy="7" r="7" transform="matrix(0 -1 -1 0 411 138)" stroke="#BDBDBD" stroke-width="4" stroke-linecap="round" stroke-linejoin="round"/>
<path d="M404 396V318" stroke="#BDBDBD" stroke-width="4" stroke-linecap="round" stroke-linejoin="round"/>
<path d="M396 388L404 396L412 388" stroke="#BDBDBD" stroke-width="4" stroke-linecap="round" stroke-linejoin="round"/>
<circle cx="7" cy="7" r="7" transform="matrix(0 -1 -1 0 411 318)" stroke="#BDBDBD" stroke-width="4" stroke-linecap="round" stroke-linejoin="round"/>
<path d="M285 396V318" stroke="#BDBDBD" stroke-width="4" stroke-linecap="round" stroke-linejoin="round"/>
<path d="M277 388L285 396L293 388" stroke="#BDBDBD" stroke-width="4" stroke-linecap="round" stroke-linejoin="round"/>
<circle cx="7" cy="7" r="7" transform="matrix(0 -1 -1 0 292 318)" stroke="#BDBDBD" stroke-width="4" stroke-linecap="round" stroke-linejoin="round"/>
</svg>
