<svg width="836" height="356" viewBox="0 0 836 356" fill="none" xmlns="http://www.w3.org/2000/svg">
<rect x="1" y="51" width="231" height="299" rx="19" fill="#F9FAFA" stroke="#333638" stroke-width="2"/>
<rect x="1" y="51" width="231" height="299" rx="19" fill="#F9FAFA" stroke="#333638" stroke-width="2"/>
<rect x="374" y="51" width="195" height="181" rx="19" fill="#F9FAFA" fill-opacity="0.5" stroke="#333638" stroke-width="2"/>
<rect x="716.5" y="51.5" width="113" height="157" rx="8.5" fill="#F9FAFA"/>
<rect x="716.5" y="51.5" width="113" height="157" rx="8.5" stroke="#333638" stroke-width="3" stroke-linecap="round"/>
<rect x="735" y="70" width="76" height="85" fill="#F9FAFA"/>
<rect x="735" y="70" width="76" height="85" stroke="#F9FAFA" stroke-width="10"/>
<path d="M748.988 180.06C748.748 180.06 748.573 179.99 748.463 179.85C748.363 179.71 748.328 179.515 748.358 179.265L749.828 169.98C749.868 169.75 749.948 169.585 750.068 169.485C750.198 169.375 750.373 169.32 750.593 169.32C750.793 169.32 750.948 169.365 751.058 169.455C751.168 169.535 751.263 169.68 751.343 169.89L754.028 177.165H753.608L758.723 169.77C758.843 169.61 758.963 169.495 759.083 169.425C759.213 169.355 759.378 169.32 759.578 169.32C759.808 169.32 759.978 169.39 760.088 169.53C760.198 169.67 760.233 169.86 760.193 170.1L758.708 179.385C758.678 179.605 758.603 179.775 758.483 179.895C758.363 180.005 758.188 180.06 757.958 180.06C757.728 180.06 757.558 179.99 757.448 179.85C757.338 179.71 757.298 179.515 757.328 179.265L758.543 171.585H758.888L754.358 178.125C754.268 178.265 754.173 178.365 754.073 178.425C753.983 178.475 753.868 178.5 753.728 178.5C753.558 178.5 753.423 178.46 753.323 178.38C753.233 178.3 753.158 178.18 753.098 178.02L750.653 171.615H750.968L749.738 179.385C749.708 179.605 749.628 179.775 749.498 179.895C749.378 180.005 749.208 180.06 748.988 180.06ZM764.428 180.105C764.178 180.105 763.998 180.025 763.888 179.865C763.788 179.705 763.758 179.485 763.798 179.205L764.533 174.54L764.698 175.53L761.863 170.43C761.753 170.23 761.703 170.05 761.713 169.89C761.733 169.72 761.803 169.585 761.923 169.485C762.053 169.375 762.223 169.32 762.433 169.32C762.623 169.32 762.773 169.365 762.883 169.455C763.003 169.535 763.123 169.68 763.243 169.89L765.493 173.955H765.133L768.778 169.785C768.928 169.605 769.063 169.485 769.183 169.425C769.313 169.355 769.468 169.32 769.648 169.32C769.838 169.32 769.993 169.375 770.113 169.485C770.233 169.595 770.293 169.735 770.293 169.905C770.293 170.075 770.218 170.25 770.068 170.43L765.583 175.53L766.078 174.54L765.313 179.34C765.233 179.85 764.938 180.105 764.428 180.105ZM773.698 180.135C773.258 180.135 772.823 180.105 772.393 180.045C771.963 179.985 771.548 179.885 771.148 179.745C770.748 179.595 770.378 179.405 770.038 179.175C769.888 179.085 769.783 178.97 769.723 178.83C769.673 178.69 769.663 178.555 769.693 178.425C769.723 178.285 769.783 178.165 769.873 178.065C769.963 177.965 770.078 177.905 770.218 177.885C770.368 177.865 770.528 177.905 770.698 178.005C771.178 178.305 771.678 178.515 772.198 178.635C772.728 178.755 773.273 178.815 773.833 178.815C774.583 178.815 775.183 178.665 775.633 178.365C776.093 178.055 776.323 177.64 776.323 177.12C776.323 176.75 776.188 176.435 775.918 176.175C775.648 175.915 775.183 175.715 774.523 175.575L772.933 175.185C772.223 175.015 771.653 174.72 771.223 174.3C770.803 173.87 770.593 173.28 770.593 172.53C770.593 172.03 770.698 171.58 770.908 171.18C771.118 170.78 771.413 170.44 771.793 170.16C772.173 169.87 772.608 169.655 773.098 169.515C773.588 169.365 774.108 169.29 774.658 169.29C775.218 169.29 775.798 169.37 776.398 169.53C777.008 169.68 777.548 169.935 778.018 170.295C778.158 170.395 778.248 170.515 778.288 170.655C778.338 170.795 778.348 170.935 778.318 171.075C778.288 171.205 778.228 171.315 778.138 171.405C778.048 171.485 777.928 171.53 777.778 171.54C777.638 171.55 777.468 171.495 777.268 171.375C776.898 171.115 776.478 170.925 776.008 170.805C775.548 170.675 775.088 170.61 774.628 170.61C774.148 170.61 773.718 170.685 773.338 170.835C772.968 170.985 772.673 171.195 772.453 171.465C772.243 171.725 772.138 172.04 772.138 172.41C772.138 172.86 772.258 173.195 772.498 173.415C772.738 173.635 773.093 173.805 773.563 173.925L775.153 174.315C776.073 174.525 776.753 174.855 777.193 175.305C777.643 175.755 777.868 176.3 777.868 176.94C777.868 177.47 777.758 177.935 777.538 178.335C777.318 178.735 777.013 179.07 776.623 179.34C776.243 179.6 775.803 179.8 775.303 179.94C774.803 180.07 774.268 180.135 773.698 180.135ZM787.559 181.95C787.659 182.15 787.689 182.325 787.649 182.475C787.609 182.625 787.529 182.745 787.409 182.835C787.299 182.925 787.169 182.975 787.019 182.985C786.869 183.005 786.724 182.975 786.584 182.895C786.444 182.825 786.329 182.695 786.239 182.505L785.549 180.99C785.419 180.7 785.229 180.485 784.979 180.345C784.729 180.205 784.389 180.135 783.959 180.135L785.264 179.64C785.684 179.65 786.029 179.735 786.299 179.895C786.579 180.055 786.819 180.35 787.019 180.78L787.559 181.95ZM784.154 180.135C783.244 180.135 782.449 179.96 781.769 179.61C781.099 179.26 780.574 178.74 780.194 178.05C779.824 177.36 779.639 176.53 779.639 175.56C779.639 174.66 779.759 173.83 779.999 173.07C780.249 172.31 780.609 171.645 781.079 171.075C781.549 170.505 782.119 170.065 782.789 169.755C783.459 169.445 784.224 169.29 785.084 169.29C786.004 169.29 786.799 169.465 787.469 169.815C788.149 170.165 788.674 170.685 789.044 171.375C789.414 172.055 789.599 172.88 789.599 173.85C789.599 174.76 789.474 175.595 789.224 176.355C788.984 177.115 788.629 177.78 788.159 178.35C787.689 178.92 787.119 179.36 786.449 179.67C785.779 179.98 785.014 180.135 784.154 180.135ZM784.184 178.785C785.004 178.785 785.694 178.575 786.254 178.155C786.814 177.725 787.239 177.14 787.529 176.4C787.819 175.66 787.964 174.82 787.964 173.88C787.964 172.78 787.704 171.965 787.184 171.435C786.674 170.905 785.959 170.64 785.039 170.64C784.229 170.64 783.544 170.85 782.984 171.27C782.424 171.69 781.999 172.27 781.709 173.01C781.419 173.75 781.274 174.59 781.274 175.53C781.274 176.64 781.534 177.46 782.054 177.99C782.574 178.52 783.284 178.785 784.184 178.785ZM791.69 180C791.42 180 791.22 179.925 791.09 179.775C790.97 179.625 790.93 179.415 790.97 179.145L792.425 170.025C792.465 169.785 792.55 169.61 792.68 169.5C792.82 169.38 793.01 169.32 793.25 169.32C793.51 169.32 793.7 169.395 793.82 169.545C793.94 169.695 793.98 169.9 793.94 170.16L792.605 178.665H797.12C797.35 178.665 797.525 178.715 797.645 178.815C797.775 178.905 797.84 179.035 797.84 179.205C797.84 179.465 797.765 179.665 797.615 179.805C797.475 179.935 797.285 180 797.045 180H791.69Z" fill="#333638"/>
<path d="M806.071 141.286C806.071 148.321 789.455 152 773.036 152C756.616 152 740 148.321 740 141.286V87.7143C740 80.6786 756.616 77 773.036 77C789.455 77 806.071 80.6786 806.071 87.7143V141.286Z" fill="#077690" fill-opacity="0.15"/>
<path opacity="0.5" d="M804.94 138.752C805.42 139.318 805.756 139.902 805.933 140.5L804.975 140.785C805.046 141.025 805.081 141.263 805.081 141.5C805.081 141.737 805.046 141.975 804.975 142.215L805.933 142.499C805.756 143.098 805.42 143.682 804.94 144.248L804.178 143.6C803.836 144.002 803.394 144.409 802.849 144.816L803.447 145.618C802.944 145.992 802.375 146.356 801.744 146.707L801.258 145.833C800.729 146.127 800.15 146.414 799.522 146.693L799.928 147.607C799.338 147.869 798.71 148.123 798.048 148.366L797.703 147.428C797.109 147.646 796.484 147.858 795.83 148.061L796.126 149.016C795.5 149.21 794.849 149.397 794.175 149.575L793.919 148.608C793.296 148.774 792.652 148.931 791.988 149.082L792.209 150.057C791.563 150.204 790.9 150.343 790.221 150.474L790.031 149.493C789.391 149.617 788.736 149.734 788.067 149.844L788.229 150.831C787.573 150.939 786.904 151.04 786.223 151.134L786.086 150.144C785.434 150.234 784.771 150.318 784.097 150.394L784.211 151.388C783.549 151.463 782.877 151.532 782.196 151.594L782.105 150.599C781.446 150.659 780.779 150.712 780.104 150.759L780.174 151.757C779.506 151.803 778.83 151.844 778.148 151.877L778.099 150.878C777.437 150.911 776.769 150.937 776.094 150.956L776.123 151.956C775.454 151.975 774.778 151.989 774.097 151.995L774.088 150.995C773.753 150.998 773.418 151 773.081 151C772.744 151 772.409 150.998 772.074 150.995L772.065 151.995C771.384 151.989 770.708 151.975 770.039 151.956L770.068 150.956C769.393 150.937 768.725 150.911 768.063 150.878L768.014 151.877C767.332 151.844 766.656 151.803 765.988 151.757L766.058 150.759C765.383 150.712 764.716 150.659 764.057 150.599L763.966 151.594C763.285 151.532 762.614 151.463 761.951 151.388L762.065 150.394C761.391 150.318 760.728 150.234 760.076 150.144L759.939 151.134C759.258 151.04 758.589 150.939 757.933 150.831L758.096 149.844C757.427 149.734 756.772 149.617 756.132 149.493L755.941 150.474C755.262 150.343 754.599 150.204 753.953 150.057L754.174 149.082C753.51 148.931 752.866 148.774 752.243 148.608L751.987 149.575C751.313 149.397 750.663 149.21 750.036 149.016L750.332 148.061C749.679 147.858 749.054 147.646 748.459 147.428L748.114 148.366C747.452 148.123 746.824 147.869 746.234 147.607L746.64 146.693C746.012 146.414 745.433 146.127 744.904 145.833L744.418 146.707C743.787 146.356 743.218 145.992 742.715 145.618L743.313 144.816C742.768 144.409 742.326 144.002 741.984 143.6L741.222 144.248C740.742 143.682 740.406 143.098 740.229 142.499L741.187 142.215C741.116 141.975 741.081 141.737 741.081 141.5C741.081 141.263 741.116 141.025 741.187 140.785L740.229 140.501C740.406 139.902 740.742 139.318 741.222 138.752L741.984 139.4C742.326 138.998 742.768 138.591 743.313 138.184L742.715 137.382C743.218 137.008 743.787 136.644 744.418 136.293L744.904 137.167C745.433 136.873 746.012 136.586 746.64 136.307L746.234 135.393C746.824 135.131 747.452 134.877 748.114 134.634L748.459 135.572C749.054 135.354 749.679 135.142 750.332 134.939L750.036 133.984C750.663 133.79 751.313 133.603 751.987 133.425L752.243 134.392C752.866 134.226 753.51 134.069 754.174 133.918L753.953 132.943C754.599 132.796 755.262 132.657 755.941 132.526L756.132 133.507C756.772 133.383 757.427 133.266 758.096 133.156L757.933 132.169C758.589 132.061 759.258 131.96 759.939 131.866L760.076 132.856C760.728 132.766 761.391 132.682 762.065 132.606L761.951 131.612C762.614 131.537 763.285 131.468 763.966 131.406L764.057 132.401C764.716 132.341 765.383 132.288 766.058 132.241L765.988 131.243C766.656 131.197 767.332 131.156 768.014 131.123L768.063 132.122C768.725 132.089 769.393 132.063 770.068 132.044L770.039 131.044C770.708 131.025 771.384 131.011 772.065 131.005L772.074 132.005C772.409 132.002 772.744 132 773.081 132C773.418 132 773.753 132.002 774.088 132.005L774.097 131.005C774.778 131.011 775.454 131.025 776.123 131.044L776.094 132.044C776.769 132.063 777.437 132.089 778.099 132.122L778.148 131.123C778.83 131.156 779.506 131.197 780.174 131.243L780.104 132.241C780.779 132.288 781.446 132.341 782.105 132.401L782.196 131.406C782.877 131.468 783.549 131.537 784.211 131.612L784.097 132.606C784.771 132.682 785.434 132.766 786.086 132.856L786.223 131.866C786.904 131.96 787.573 132.061 788.229 132.169L788.067 133.156C788.736 133.266 789.391 133.383 790.031 133.507L790.221 132.526C790.9 132.657 791.563 132.796 792.209 132.943L791.988 133.918C792.652 134.069 793.296 134.226 793.919 134.392L794.175 133.425C794.849 133.603 795.5 133.79 796.126 133.984L795.83 134.939C796.484 135.142 797.109 135.354 797.703 135.572L798.048 134.634C798.71 134.877 799.338 135.131 799.928 135.393L799.522 136.307C800.15 136.586 800.729 136.873 801.258 137.167L801.744 136.293C802.375 136.644 802.944 137.008 803.447 137.382L802.849 138.184C803.394 138.591 803.836 138.998 804.178 139.4L804.94 138.752Z" stroke="#333638" stroke-width="2" stroke-dasharray="2 2"/>
<path fill-rule="evenodd" clip-rule="evenodd" d="M773.036 152C789.455 152 806.071 148.321 806.071 141.286V87.7143C806.071 80.6786 789.455 77 773.036 77C756.616 77 740 80.6786 740 87.7143V141.286C740 148.321 756.616 152 773.036 152ZM803.5 87.7143C803.5 85.2232 792.384 79.5714 773.036 79.5714C753.687 79.5714 742.571 85.2232 742.571 87.7143V91.8482V105.571V109.705V123.429V127.562V141.286C742.571 143.777 753.687 149.429 773.036 149.429C792.384 149.429 803.5 143.777 803.5 141.286V127.562V123.429V108.705V104.571V91.8482V87.7143Z" fill="#333638"/>
<path fill-rule="evenodd" clip-rule="evenodd" d="M765.474 109.661C765.091 109.661 764.803 109.709 764.564 109.758V109.807H764.612C764.803 110.149 765.091 110.442 765.33 110.735C765.522 111.076 765.666 111.467 765.857 111.809L765.905 111.76C766.24 111.516 766.384 111.174 766.384 110.637C766.24 110.491 766.24 110.295 766.097 110.149C765.953 109.954 765.666 109.807 765.474 109.661Z" fill="#687E91"/>
<path fill-rule="evenodd" clip-rule="evenodd" d="M788.366 129.482C786.594 129.433 785.205 129.628 784.008 130.116C783.673 130.263 783.146 130.263 783.098 130.702C783.29 130.897 783.29 131.19 783.481 131.434C783.768 131.874 784.199 132.509 784.63 132.85C785.109 133.192 785.588 133.583 786.067 133.924C786.929 134.461 787.935 134.803 788.797 135.34C789.276 135.682 789.803 136.072 790.282 136.414C790.521 136.609 790.665 136.902 791 137V136.951C790.856 136.756 790.808 136.463 790.665 136.219C790.425 135.975 790.234 135.779 789.994 135.535C789.324 134.657 788.558 133.876 787.648 133.241C786.929 132.753 785.349 132.069 785.061 131.19C785.061 131.19 785.061 131.19 785.014 131.142C785.493 131.093 786.067 130.897 786.546 130.751C787.312 130.556 787.983 130.605 788.797 130.409C789.18 130.312 789.515 130.214 789.898 130.068V129.872C789.515 129.482 789.18 128.896 788.797 128.505C787.648 127.48 786.402 126.504 785.109 125.674C784.391 125.234 783.529 124.941 782.763 124.551C782.475 124.404 782.044 124.356 781.901 124.111C781.518 123.623 781.278 122.94 780.991 122.354C780.32 121.085 779.698 119.718 779.171 118.399C778.788 117.521 778.5 116.642 778.021 115.812C775.723 111.906 773.184 109.563 769.353 107.268C768.539 106.78 767.533 106.585 766.48 106.341C765.905 106.341 765.378 106.292 764.803 106.243C764.42 106.097 764.085 105.657 763.75 105.462C762.361 104.583 759.104 102.826 758.147 105.169C757.524 106.634 759.057 108.098 759.535 108.88C759.919 109.417 760.397 110.002 760.685 110.588C760.876 110.979 760.924 111.369 761.068 111.809C761.403 112.834 761.738 113.957 762.217 114.884C762.457 115.373 762.744 115.861 763.031 116.3C763.223 116.544 763.51 116.642 763.606 117.081C763.271 117.521 763.271 118.204 763.079 118.79C762.313 121.329 762.6 124.551 763.75 126.455C764.085 127.041 764.947 128.261 766.097 127.822C767.102 127.431 766.863 126.113 767.15 124.99C767.198 124.697 767.15 124.551 767.294 124.356V124.404C767.629 125.039 767.916 125.674 768.204 126.308C768.922 127.431 770.119 128.603 771.125 129.384C771.652 129.775 772.083 130.507 772.753 130.751V130.702H772.706C772.562 130.507 772.37 130.409 772.179 130.263C771.796 129.872 771.317 129.335 771.029 128.896C770.072 127.627 769.257 126.211 768.539 124.746C768.156 124.014 767.869 123.281 767.581 122.549C767.437 122.256 767.437 121.866 767.246 121.719C766.911 122.207 766.432 122.647 766.192 123.281C765.761 124.258 765.713 125.478 765.57 126.748C765.474 126.748 765.522 126.748 765.474 126.797C764.756 126.601 764.516 125.869 764.229 125.234C763.558 123.623 763.463 120.987 764.037 119.132C764.181 118.644 764.851 117.13 764.612 116.691C764.468 116.251 764.037 116.007 763.798 115.666C763.51 115.226 763.175 114.689 762.984 114.201C762.457 112.932 762.169 111.516 761.595 110.246C761.307 109.661 760.876 109.026 760.493 108.489C760.014 107.659 759.535 107.268 759.2 106.536C759.104 106.243 758.913 105.853 759.104 105.56C759.152 105.413 759.248 105.316 759.44 105.267C759.727 105.023 760.541 105.316 760.828 105.462C761.643 105.804 762.361 106.146 763.031 106.585C763.367 106.829 763.702 107.268 764.085 107.366H764.564C765.282 107.513 766.097 107.415 766.767 107.61C767.964 108.001 769.018 108.587 769.976 109.172C772.897 111.076 775.34 113.762 776.968 116.984C777.255 117.521 777.351 118.009 777.59 118.546C778.069 119.669 778.644 120.792 779.123 121.915C779.602 122.989 780.033 124.063 780.703 124.99C781.039 125.478 782.38 125.723 783.002 125.967C783.433 126.162 784.152 126.357 784.535 126.601C785.301 127.089 786.067 127.627 786.786 128.164C787.169 128.456 788.27 129.042 788.366 129.482Z" fill="#077690"/>
<path opacity="0.5" d="M773.464 79C792.812 79 803.929 84.6518 803.929 87.1429V91.2768V104V108.134V122.857V126.991V140.714C803.929 143.205 792.812 148.857 773.464 148.857C754.116 148.857 743 143.205 743 140.714V126.991V122.857V109.134V105V91.2768V87.1429C743 84.6518 754.116 79 773.464 79Z" fill="#F2F2F3"/>
<path d="M804.831 87.5C804.831 88.377 804.271 89.4335 802.736 90.5882C801.223 91.7268 798.953 92.8054 796.037 93.7335C790.218 95.5849 782.102 96.75 773.081 96.75C764.061 96.75 755.944 95.5849 750.126 93.7335C747.209 92.8054 744.939 91.7268 743.426 90.5882C741.891 89.4335 741.331 88.377 741.331 87.5C741.331 86.623 741.891 85.5665 743.426 84.4118C744.939 83.2732 747.209 82.1946 750.126 81.2665C755.944 79.4151 764.061 78.25 773.081 78.25C782.102 78.25 790.218 79.4151 796.037 81.2665C798.953 82.1946 801.223 83.2732 802.736 84.4118C804.271 85.5665 804.831 86.623 804.831 87.5Z" stroke="#333638" stroke-width="2.5"/>
<path d="M97.2536 323.135C96.5836 323.135 95.9886 323.04 95.4686 322.85C94.9486 322.66 94.5186 322.37 94.1786 321.98C93.8386 321.59 93.6036 321.105 93.4736 320.525C93.3536 319.935 93.3586 319.25 93.4886 318.47L94.3436 313.04C94.3836 312.79 94.4736 312.61 94.6136 312.5C94.7636 312.38 94.9586 312.32 95.1986 312.32C95.4586 312.32 95.6436 312.395 95.7536 312.545C95.8736 312.685 95.9136 312.895 95.8736 313.175L95.0186 318.605C94.8486 319.655 94.9586 320.45 95.3486 320.99C95.7486 321.52 96.4136 321.785 97.3436 321.785C98.2536 321.785 98.9686 321.555 99.4886 321.095C100.019 320.635 100.364 319.895 100.524 318.875L101.454 313.04C101.494 312.79 101.584 312.61 101.724 312.5C101.874 312.38 102.069 312.32 102.309 312.32C102.559 312.32 102.739 312.395 102.849 312.545C102.969 312.685 103.009 312.895 102.969 313.175L102.069 318.89C101.919 319.82 101.649 320.6 101.259 321.23C100.869 321.86 100.344 322.335 99.6836 322.655C99.0236 322.975 98.2136 323.135 97.2536 323.135ZM107.67 323.135C107.23 323.135 106.795 323.105 106.365 323.045C105.935 322.985 105.52 322.885 105.12 322.745C104.72 322.595 104.35 322.405 104.01 322.175C103.86 322.085 103.755 321.97 103.695 321.83C103.645 321.69 103.635 321.555 103.665 321.425C103.695 321.285 103.755 321.165 103.845 321.065C103.935 320.965 104.05 320.905 104.19 320.885C104.34 320.865 104.5 320.905 104.67 321.005C105.15 321.305 105.65 321.515 106.17 321.635C106.7 321.755 107.245 321.815 107.805 321.815C108.555 321.815 109.155 321.665 109.605 321.365C110.065 321.055 110.295 320.64 110.295 320.12C110.295 319.75 110.16 319.435 109.89 319.175C109.62 318.915 109.155 318.715 108.495 318.575L106.905 318.185C106.195 318.015 105.625 317.72 105.195 317.3C104.775 316.87 104.565 316.28 104.565 315.53C104.565 315.03 104.67 314.58 104.88 314.18C105.09 313.78 105.385 313.44 105.765 313.16C106.145 312.87 106.58 312.655 107.07 312.515C107.56 312.365 108.08 312.29 108.63 312.29C109.19 312.29 109.77 312.37 110.37 312.53C110.98 312.68 111.52 312.935 111.99 313.295C112.13 313.395 112.22 313.515 112.26 313.655C112.31 313.795 112.32 313.935 112.29 314.075C112.26 314.205 112.2 314.315 112.11 314.405C112.02 314.485 111.9 314.53 111.75 314.54C111.61 314.55 111.44 314.495 111.24 314.375C110.87 314.115 110.45 313.925 109.98 313.805C109.52 313.675 109.06 313.61 108.6 313.61C108.12 313.61 107.69 313.685 107.31 313.835C106.94 313.985 106.645 314.195 106.425 314.465C106.215 314.725 106.11 315.04 106.11 315.41C106.11 315.86 106.23 316.195 106.47 316.415C106.71 316.635 107.065 316.805 107.535 316.925L109.125 317.315C110.045 317.525 110.725 317.855 111.165 318.305C111.615 318.755 111.84 319.3 111.84 319.94C111.84 320.47 111.73 320.935 111.51 321.335C111.29 321.735 110.985 322.07 110.595 322.34C110.215 322.6 109.775 322.8 109.275 322.94C108.775 323.07 108.24 323.135 107.67 323.135ZM114.091 323C113.801 323 113.586 322.925 113.446 322.775C113.316 322.615 113.271 322.39 113.311 322.1L114.736 313.19C114.776 312.93 114.871 312.74 115.021 312.62C115.171 312.49 115.371 312.425 115.621 312.425H121.051C121.261 312.425 121.421 312.47 121.531 312.56C121.651 312.64 121.711 312.76 121.711 312.92C121.711 313.17 121.641 313.36 121.501 313.49C121.371 313.62 121.196 313.685 120.976 313.685H116.146L115.621 317H120.016C120.226 317 120.386 317.045 120.496 317.135C120.606 317.215 120.661 317.34 120.661 317.51C120.661 317.75 120.591 317.935 120.451 318.065C120.321 318.195 120.146 318.26 119.926 318.26H115.426L114.856 321.74H119.566C119.776 321.74 119.936 321.785 120.046 321.875C120.166 321.955 120.226 322.08 120.226 322.25C120.226 322.49 120.156 322.675 120.016 322.805C119.886 322.935 119.711 323 119.491 323H114.091ZM122.774 323.105C122.534 323.105 122.354 323.025 122.234 322.865C122.124 322.705 122.094 322.48 122.144 322.19L123.569 313.205C123.609 312.945 123.704 312.75 123.854 312.62C124.004 312.49 124.209 312.425 124.469 312.425H127.619C128.769 312.425 129.639 312.685 130.229 313.205C130.819 313.715 131.114 314.415 131.114 315.305C131.114 316.045 130.944 316.66 130.604 317.15C130.264 317.64 129.799 318.005 129.209 318.245C128.619 318.485 127.944 318.6 127.184 318.59V318.38H127.499C127.949 318.38 128.319 318.51 128.609 318.77C128.899 319.03 129.134 319.39 129.314 319.85L130.169 322.1C130.249 322.31 130.279 322.49 130.259 322.64C130.239 322.79 130.169 322.905 130.049 322.985C129.939 323.065 129.774 323.105 129.554 323.105C129.344 323.105 129.174 323.055 129.044 322.955C128.924 322.845 128.819 322.67 128.729 322.43L127.709 319.745C127.559 319.345 127.359 319.06 127.109 318.89C126.869 318.72 126.524 318.635 126.074 318.635H124.244L123.674 322.34C123.634 322.59 123.539 322.78 123.389 322.91C123.239 323.04 123.034 323.105 122.774 323.105ZM124.439 317.465H127.229C127.979 317.465 128.559 317.29 128.969 316.94C129.389 316.58 129.599 316.075 129.599 315.425C129.599 314.835 129.424 314.395 129.074 314.105C128.724 313.815 128.174 313.67 127.424 313.67H125.039L124.439 317.465ZM135.97 323.135C135.53 323.135 135.095 323.105 134.665 323.045C134.235 322.985 133.82 322.885 133.42 322.745C133.02 322.595 132.65 322.405 132.31 322.175C132.16 322.085 132.055 321.97 131.995 321.83C131.945 321.69 131.935 321.555 131.965 321.425C131.995 321.285 132.055 321.165 132.145 321.065C132.235 320.965 132.35 320.905 132.49 320.885C132.64 320.865 132.8 320.905 132.97 321.005C133.45 321.305 133.95 321.515 134.47 321.635C135 321.755 135.545 321.815 136.105 321.815C136.855 321.815 137.455 321.665 137.905 321.365C138.365 321.055 138.595 320.64 138.595 320.12C138.595 319.75 138.46 319.435 138.19 319.175C137.92 318.915 137.455 318.715 136.795 318.575L135.205 318.185C134.495 318.015 133.925 317.72 133.495 317.3C133.075 316.87 132.865 316.28 132.865 315.53C132.865 315.03 132.97 314.58 133.18 314.18C133.39 313.78 133.685 313.44 134.065 313.16C134.445 312.87 134.88 312.655 135.37 312.515C135.86 312.365 136.38 312.29 136.93 312.29C137.49 312.29 138.07 312.37 138.67 312.53C139.28 312.68 139.82 312.935 140.29 313.295C140.43 313.395 140.52 313.515 140.56 313.655C140.61 313.795 140.62 313.935 140.59 314.075C140.56 314.205 140.5 314.315 140.41 314.405C140.32 314.485 140.2 314.53 140.05 314.54C139.91 314.55 139.74 314.495 139.54 314.375C139.17 314.115 138.75 313.925 138.28 313.805C137.82 313.675 137.36 313.61 136.9 313.61C136.42 313.61 135.99 313.685 135.61 313.835C135.24 313.985 134.945 314.195 134.725 314.465C134.515 314.725 134.41 315.04 134.41 315.41C134.41 315.86 134.53 316.195 134.77 316.415C135.01 316.635 135.365 316.805 135.835 316.925L137.425 317.315C138.345 317.525 139.025 317.855 139.465 318.305C139.915 318.755 140.14 319.3 140.14 319.94C140.14 320.47 140.03 320.935 139.81 321.335C139.59 321.735 139.285 322.07 138.895 322.34C138.515 322.6 138.075 322.8 137.575 322.94C137.075 323.07 136.54 323.135 135.97 323.135Z" fill="#333638"/>
<path d="M545.954 114.409V114.41C545.954 116.397 544.349 118 542.312 118H491.642C489.605 118 488 116.397 488 114.41V83H545.999L545.954 114.409Z" fill="#F2F2F3" stroke="#333638" stroke-width="2"/>
<path d="M545.954 75.5951V75.5896C545.954 73.6027 544.349 72 542.312 72H491.642C489.605 72 488 73.6027 488 75.5896V83H545.994L545.954 75.5951Z" fill="#DFE1EC" stroke="#333638" stroke-width="2"/>
<ellipse cx="495.136" cy="77.5" rx="1.52542" ry="1.5" fill="#333638"/>
<ellipse cx="501.237" cy="77.5" rx="1.52542" ry="1.5" fill="#333638"/>
<ellipse cx="507.339" cy="77.5" rx="1.52542" ry="1.5" fill="#333638"/>
<path d="M526 92.1096L524.269 110.909L516.488 113L508.729 110.912L507 92.1096H526Z" fill="#264DE4"/>
<path d="M522.787 109.712L524.266 93.647H516.5V111.402L522.787 109.712Z" fill="#2965F1"/>
<path d="M510.964 100.62L511.177 102.926H516.5V100.62H510.964Z" fill="#EBEBEB"/>
<path d="M516.5 95.953H516.492H510.536L510.752 98.259H516.5V95.953Z" fill="#EBEBEB"/>
<path d="M516.5 109.009V106.609L516.49 106.612L513.841 105.919L513.671 104.079H511.283L511.617 107.7L516.489 109.011L516.5 109.009Z" fill="#EBEBEB"/>
<path d="M511.472 87H514.352V88.168H512.676V89.3359H514.352V90.5039H511.472V87Z" fill="black"/>
<path d="M514.929 87H517.809V88.0156H516.133V88.2188H517.809V90.5547H514.929V89.4883H516.605V89.2852H514.929V87Z" fill="black"/>
<path d="M518.386 87H521.267V88.0156H519.59V88.2188H521.267V90.5547H518.386V89.4883H520.062V89.2852H518.386V87Z" fill="black"/>
<path d="M519.421 102.926L519.145 105.917L516.492 106.611V109.01L521.368 107.7L521.963 101.24L522.021 100.62L522.45 95.953H516.492L516.492 98.259H519.843L519.627 100.62H516.492V102.926H519.421Z" fill="white"/>
<path opacity="0.5" d="M545.954 114.409V114.41C545.954 116.397 544.349 118 542.312 118H491.642C489.605 118 488 116.397 488 114.41V83H545.999L545.954 114.409Z" fill="#CDD1E7" stroke="#333638" stroke-width="2"/>
<path d="M455.954 192.409V192.41C455.954 194.397 454.349 196 452.312 196H401.642C399.605 196 398 194.397 398 192.41V161H455.999L455.954 192.409Z" fill="#F2F2F3" stroke="#333638" stroke-width="2"/>
<path d="M455.954 153.595V153.59C455.954 151.603 454.349 150 452.312 150H401.642C399.605 150 398 151.603 398 153.59V161H455.994L455.954 153.595Z" fill="#F7F5E5" stroke="#333638" stroke-width="2"/>
<ellipse cx="405.136" cy="155.5" rx="1.52542" ry="1.5" fill="#333638"/>
<ellipse cx="411.237" cy="155.5" rx="1.52542" ry="1.5" fill="#333638"/>
<ellipse cx="417.339" cy="155.5" rx="1.52542" ry="1.5" fill="#333638"/>
<g clip-path="url(#clip0_103_2443)">
<path d="M413 178V164H427H441V178V192H427H413V178ZM425.258 189.693C426.94 189.4 427.957 188.327 428.182 186.588C428.206 186.412 428.222 184.345 428.222 181.553V176.818H426.92H425.618V181.297C425.618 183.977 425.602 185.923 425.578 186.152C425.498 186.901 425.217 187.265 424.625 187.389C423.783 187.566 423.159 187.229 422.646 186.324C422.582 186.208 422.51 186.116 422.486 186.116C422.449 186.116 420.479 187.289 420.399 187.357C420.314 187.429 420.815 188.195 421.204 188.587C422.157 189.553 423.671 189.965 425.258 189.693ZM435.332 189.713C436.401 189.577 437.275 189.164 437.916 188.487C438.176 188.211 438.276 188.066 438.436 187.738C438.697 187.197 438.761 186.925 438.785 186.248C438.833 185.03 438.508 184.169 437.727 183.42C437.167 182.887 436.462 182.474 435.132 181.902C433.766 181.313 433.345 181.044 433.145 180.632C433.005 180.343 433.013 179.911 433.161 179.606C433.381 179.158 433.806 178.949 434.435 178.985C435.031 179.021 435.448 179.27 435.813 179.819L435.993 180.091L436.91 179.502C437.415 179.178 437.876 178.877 437.932 178.833L438.036 178.753L437.811 178.417C437.243 177.575 436.494 177.043 435.544 176.806C435.064 176.686 433.99 176.654 433.469 176.746C432.612 176.894 432.003 177.199 431.442 177.752C430.938 178.252 430.661 178.753 430.521 179.442C430.421 179.927 430.461 180.844 430.605 181.317C430.97 182.526 431.783 183.308 433.457 184.049C433.786 184.193 434.294 184.417 434.591 184.549C435.789 185.078 436.165 185.459 436.165 186.128C436.165 186.744 435.773 187.177 435.027 187.369C434.631 187.474 433.87 187.437 433.453 187.293C432.884 187.097 432.34 186.66 431.967 186.096C431.859 185.931 431.795 185.871 431.751 185.887C431.627 185.939 429.664 187.089 429.664 187.113C429.664 187.205 430.269 188.026 430.529 188.287C431.683 189.448 433.397 189.957 435.332 189.713Z" fill="#EED94D"/>
<path d="M423.836 189.753C422.806 189.677 421.865 189.26 421.2 188.587C420.811 188.194 420.31 187.429 420.395 187.357C420.475 187.285 422.442 186.115 422.482 186.115C422.506 186.115 422.578 186.212 422.642 186.324C423.155 187.233 423.779 187.57 424.621 187.389C425.213 187.265 425.494 186.901 425.574 186.151C425.598 185.927 425.614 183.976 425.614 181.297V176.818H426.916H428.222V181.553C428.222 184.341 428.206 186.412 428.182 186.588C427.897 188.783 426.315 189.933 423.836 189.753ZM433.946 189.753C432.183 189.628 430.813 188.879 429.936 187.557C429.784 187.329 429.66 187.129 429.66 187.113C429.66 187.089 431.623 185.939 431.747 185.891C431.791 185.875 431.855 185.935 431.963 186.099C432.336 186.664 432.88 187.105 433.449 187.297C433.866 187.441 434.627 187.477 435.024 187.373C435.769 187.181 436.161 186.748 436.161 186.131C436.161 185.463 435.781 185.082 434.587 184.553C434.29 184.421 433.778 184.197 433.453 184.052C431.779 183.311 430.962 182.534 430.601 181.321C430.461 180.848 430.421 179.931 430.517 179.446C430.657 178.761 430.934 178.26 431.438 177.755C431.999 177.203 432.608 176.902 433.465 176.75C433.986 176.658 435.06 176.69 435.54 176.81C436.49 177.046 437.239 177.579 437.807 178.42L438.032 178.757L437.928 178.837C437.872 178.881 437.411 179.182 436.906 179.506L435.989 180.095L435.809 179.822C435.444 179.274 435.028 179.021 434.431 178.989C433.802 178.953 433.377 179.161 433.157 179.61C433.061 179.806 433.045 179.887 433.049 180.147C433.057 180.872 433.397 181.16 435.128 181.905C436.462 182.478 437.167 182.891 437.723 183.424C438.504 184.169 438.825 185.03 438.781 186.252C438.757 186.925 438.689 187.197 438.432 187.742C437.763 189.136 436.061 189.901 433.946 189.753Z" fill="#31322F"/>
</g>
<path opacity="0.5" d="M455.954 192.409V192.41C455.954 194.397 454.349 196 452.312 196H401.642C399.605 196 398 194.397 398 192.41V161H455.999L455.954 192.409Z" fill="#FAF7E3" stroke="#333638" stroke-width="2"/>
<path d="M545.954 192.409V192.41C545.954 194.397 544.349 196 542.312 196H491.642C489.605 196 488 194.397 488 192.41V161H545.999L545.954 192.409Z" fill="#F2F2F3" stroke="#333638" stroke-width="2"/>
<path d="M545.954 153.595V153.59C545.954 151.603 544.349 150 542.312 150H491.642C489.605 150 488 151.603 488 153.59V161H545.994L545.954 153.595Z" fill="#F2F2F3" stroke="#333638" stroke-width="2"/>
<ellipse cx="495.136" cy="155.5" rx="1.52542" ry="1.5" fill="#333638"/>
<ellipse cx="501.237" cy="155.5" rx="1.52542" ry="1.5" fill="#333638"/>
<ellipse cx="507.339" cy="155.5" rx="1.52542" ry="1.5" fill="#333638"/>
<path d="M530.121 177.494L524.322 182.273C523.772 182.712 523.722 183.493 524.172 183.98C524.422 184.273 524.772 184.419 525.122 184.419C525.422 184.419 525.672 184.322 525.922 184.127L532.821 178.421C533.121 178.177 533.271 177.835 533.271 177.494C533.271 177.153 533.121 176.811 532.821 176.567L525.922 170.861C525.422 170.422 524.622 170.471 524.172 171.008C523.722 171.495 523.772 172.276 524.322 172.715L530.121 177.494Z" fill="#333638"/>
<path d="M500.729 177.494C500.729 177.835 500.879 178.177 501.179 178.421L508.078 184.127C508.328 184.322 508.578 184.419 508.878 184.419C509.228 184.419 509.578 184.273 509.828 183.98C510.278 183.493 510.228 182.712 509.678 182.273L503.879 177.494L509.678 172.715C510.228 172.276 510.278 171.544 509.828 171.008C509.378 170.471 508.628 170.422 508.078 170.861L501.179 176.567C500.879 176.811 500.729 177.153 500.729 177.494Z" fill="#333638"/>
<path d="M518.75 168.768L512.9 185.293C512.65 185.927 512.95 186.61 513.6 186.902C513.75 186.951 513.9 187 514.05 187C514.55 187 515 186.707 515.2 186.22L521.1 169.695C521.35 169.061 521.05 168.329 520.4 168.086C519.75 167.842 519 168.134 518.75 168.768Z" fill="#333638"/>
<path opacity="0.5" d="M545.954 192.409V192.41C545.954 194.397 544.349 196 542.312 196H491.642C489.605 196 488 194.397 488 192.41V161H545.999L545.954 192.409Z" fill="#F2F2F3" stroke="#333638" stroke-width="2"/>
<path d="M455.954 114.409V114.41C455.954 116.397 454.349 118 452.312 118H401.642C399.605 118 398 116.397 398 114.41V83H455.999L455.954 114.409Z" fill="#F8B4C1" stroke="#333638" stroke-width="2"/>
<path d="M455.954 75.5951V75.5896C455.954 73.6027 454.349 72 452.312 72H401.642C399.605 72 398 73.6027 398 75.5896V83H455.994L455.954 75.5951Z" fill="#F8B5C1" stroke="#333638" stroke-width="2"/>
<ellipse cx="405.136" cy="77.5" rx="1.52542" ry="1.5" fill="#333638"/>
<ellipse cx="411.237" cy="77.5" rx="1.52542" ry="1.5" fill="#333638"/>
<ellipse cx="417.339" cy="77.5" rx="1.52542" ry="1.5" fill="#333638"/>
<path d="M440.121 99.494L434.322 104.273C433.772 104.712 433.722 105.493 434.172 105.98C434.422 106.273 434.772 106.419 435.122 106.419C435.422 106.419 435.672 106.322 435.922 106.127L442.821 100.421C443.121 100.177 443.271 99.8354 443.271 99.494C443.271 99.1526 443.121 98.8112 442.821 98.5674L435.922 92.8614C435.422 92.4225 434.622 92.4712 434.172 93.0077C433.722 93.4954 433.772 94.2757 434.322 94.7146L440.121 99.494Z" fill="#333638"/>
<path d="M410.729 99.494C410.729 99.8354 410.879 100.177 411.179 100.421L418.078 106.127C418.328 106.322 418.578 106.419 418.878 106.419C419.228 106.419 419.578 106.273 419.828 105.98C420.278 105.493 420.228 104.712 419.678 104.273L413.879 99.494L419.678 94.7146C420.228 94.2757 420.278 93.5442 419.828 93.0077C419.378 92.4712 418.628 92.4225 418.078 92.8614L411.179 98.5674C410.879 98.8112 410.729 99.1526 410.729 99.494Z" fill="#333638"/>
<path d="M428.75 90.7683L422.9 107.293C422.65 107.927 422.95 108.61 423.6 108.902C423.75 108.951 423.9 109 424.05 109C424.55 109 425 108.707 425.2 108.22L431.1 91.695C431.35 91.061 431.05 90.3294 430.4 90.0856C429.75 89.8417 429 90.1343 428.75 90.7683Z" fill="#333638"/>
<path opacity="0.5" d="M455.954 114.409V114.41C455.954 116.397 454.349 118 452.312 118H401.642C399.605 118 398 116.397 398 114.41V83H455.999L455.954 114.409Z" fill="#F2F2F3" stroke="#333638" stroke-width="2"/>
<path d="M416.976 134.096L416.88 133.076L417.66 133.028C418.444 132.964 418.836 132.516 418.836 131.684V125.54H420.072V131.684C420.072 132.412 419.884 132.976 419.508 133.376C419.132 133.776 418.576 134 417.84 134.048L416.976 134.096ZM424.859 134.108C424.195 134.108 423.587 134.024 423.035 133.856C422.483 133.68 422.015 133.436 421.631 133.124L422.027 132.14C422.427 132.444 422.855 132.672 423.311 132.824C423.767 132.976 424.283 133.052 424.859 133.052C425.539 133.052 426.039 132.932 426.359 132.692C426.687 132.444 426.851 132.124 426.851 131.732C426.851 131.412 426.735 131.16 426.503 130.976C426.271 130.784 425.883 130.632 425.339 130.52L424.055 130.256C423.295 130.096 422.727 129.832 422.351 129.464C421.983 129.096 421.799 128.6 421.799 127.976C421.799 127.472 421.931 127.028 422.195 126.644C422.467 126.26 422.843 125.964 423.323 125.756C423.803 125.54 424.355 125.432 424.979 125.432C425.555 125.432 426.087 125.52 426.575 125.696C427.071 125.864 427.491 126.112 427.835 126.44L427.427 127.388C426.747 126.788 425.927 126.488 424.967 126.488C424.375 126.488 423.903 126.62 423.551 126.884C423.207 127.148 423.035 127.5 423.035 127.94C423.035 128.276 423.143 128.544 423.359 128.744C423.575 128.944 423.935 129.096 424.439 129.2L425.711 129.464C426.511 129.632 427.107 129.892 427.499 130.244C427.891 130.588 428.087 131.056 428.087 131.648C428.087 132.144 427.955 132.576 427.691 132.944C427.427 133.312 427.055 133.6 426.575 133.808C426.095 134.008 425.523 134.108 424.859 134.108ZM429.504 134V125.54H433.008C433.92 125.54 434.624 125.768 435.12 126.224C435.616 126.672 435.864 127.304 435.864 128.12C435.864 128.944 435.616 129.584 435.12 130.04C434.624 130.488 433.92 130.712 433.008 130.712H430.752V134H429.504ZM430.752 129.716H432.828C434.044 129.716 434.652 129.184 434.652 128.12C434.652 127.064 434.044 126.536 432.828 126.536H430.752V129.716Z" fill="#333638"/>
<path d="M390.976 212.096L390.88 211.076L391.66 211.028C392.444 210.964 392.836 210.516 392.836 209.684V203.54H394.072V209.684C394.072 210.412 393.884 210.976 393.508 211.376C393.132 211.776 392.576 212 391.84 212.048L390.976 212.096ZM395.187 212L398.955 203.54H399.987L403.767 212H402.495L401.607 209.936H397.323L396.447 212H395.187ZM399.459 204.92L397.767 208.928H401.187L399.483 204.92H399.459ZM406.871 212L403.139 203.54H404.471L407.435 210.428L410.399 203.54H411.671L407.939 212H406.871ZM411.066 212L414.834 203.54H415.866L419.646 212H418.374L417.486 209.936H413.202L412.326 212H411.066ZM415.338 204.92L413.646 208.928H417.066L415.362 204.92H415.338ZM423.492 212.108C422.828 212.108 422.22 212.024 421.668 211.856C421.116 211.68 420.648 211.436 420.264 211.124L420.66 210.14C421.06 210.444 421.488 210.672 421.944 210.824C422.4 210.976 422.916 211.052 423.492 211.052C424.172 211.052 424.672 210.932 424.992 210.692C425.32 210.444 425.484 210.124 425.484 209.732C425.484 209.412 425.368 209.16 425.136 208.976C424.904 208.784 424.516 208.632 423.972 208.52L422.688 208.256C421.928 208.096 421.36 207.832 420.984 207.464C420.616 207.096 420.432 206.6 420.432 205.976C420.432 205.472 420.564 205.028 420.828 204.644C421.1 204.26 421.476 203.964 421.956 203.756C422.436 203.54 422.988 203.432 423.612 203.432C424.188 203.432 424.72 203.52 425.208 203.696C425.704 203.864 426.124 204.112 426.467 204.44L426.06 205.388C425.38 204.788 424.56 204.488 423.6 204.488C423.008 204.488 422.536 204.62 422.184 204.884C421.84 205.148 421.668 205.5 421.668 205.94C421.668 206.276 421.776 206.544 421.992 206.744C422.208 206.944 422.568 207.096 423.072 207.2L424.344 207.464C425.144 207.632 425.74 207.892 426.132 208.244C426.524 208.588 426.72 209.056 426.72 209.648C426.72 210.144 426.588 210.576 426.324 210.944C426.06 211.312 425.688 211.6 425.208 211.808C424.728 212.008 424.156 212.108 423.492 212.108ZM431.928 212.108C431.072 212.108 430.34 211.932 429.732 211.58C429.124 211.228 428.656 210.728 428.328 210.08C428.008 209.424 427.848 208.652 427.848 207.764C427.848 206.876 428.008 206.108 428.328 205.46C428.656 204.812 429.124 204.312 429.732 203.96C430.34 203.608 431.072 203.432 431.928 203.432C432.504 203.432 433.04 203.524 433.536 203.708C434.04 203.884 434.46 204.14 434.796 204.476L434.364 205.472C433.996 205.144 433.616 204.908 433.224 204.764C432.84 204.612 432.42 204.536 431.964 204.536C431.052 204.536 430.356 204.816 429.876 205.376C429.396 205.936 429.156 206.732 429.156 207.764C429.156 208.796 429.396 209.596 429.876 210.164C430.356 210.724 431.052 211.004 431.964 211.004C432.42 211.004 432.84 210.932 433.224 210.788C433.616 210.636 433.996 210.396 434.364 210.068L434.796 211.064C434.46 211.392 434.04 211.648 433.536 211.832C433.04 212.016 432.504 212.108 431.928 212.108ZM436.246 212V203.54H439.75C440.662 203.54 441.366 203.76 441.862 204.2C442.358 204.632 442.606 205.24 442.606 206.024C442.606 206.656 442.438 207.176 442.102 207.584C441.766 207.984 441.29 208.252 440.674 208.388C441.058 208.516 441.382 208.824 441.646 209.312L443.11 212H441.742L440.278 209.3C440.11 208.988 439.914 208.78 439.69 208.676C439.474 208.564 439.194 208.508 438.85 208.508H437.494V212H436.246ZM437.494 207.572H439.546C440.778 207.572 441.394 207.064 441.394 206.048C441.394 205.04 440.778 204.536 439.546 204.536H437.494V207.572ZM444.367 212V203.54H445.615V212H444.367ZM447.566 212V203.54H451.07C451.982 203.54 452.686 203.768 453.182 204.224C453.678 204.672 453.926 205.304 453.926 206.12C453.926 206.944 453.678 207.584 453.182 208.04C452.686 208.488 451.982 208.712 451.07 208.712H448.814V212H447.566ZM448.814 207.716H450.89C452.106 207.716 452.714 207.184 452.714 206.12C452.714 205.064 452.106 204.536 450.89 204.536H448.814V207.716ZM457.107 212V204.584H454.107V203.54H461.343V204.584H458.343V212H457.107Z" fill="#333638"/>
<path d="M501.976 212.096L501.88 211.076L502.66 211.028C503.444 210.964 503.836 210.516 503.836 209.684V203.54H505.072V209.684C505.072 210.412 504.884 210.976 504.508 211.376C504.132 211.776 503.576 212 502.84 212.048L501.976 212.096ZM506.187 212L509.955 203.54H510.987L514.767 212H513.495L512.607 209.936H508.323L507.447 212H506.187ZM510.459 204.92L508.767 208.928H512.187L510.483 204.92H510.459ZM517.871 212L514.139 203.54H515.471L518.435 210.428L521.399 203.54H522.671L518.939 212H517.871ZM522.066 212L525.834 203.54H526.866L530.646 212H529.374L528.486 209.936H524.202L523.326 212H522.066ZM526.338 204.92L524.646 208.928H528.066L526.362 204.92H526.338Z" fill="#333638"/>
<path d="M509.776 134.108C508.92 134.108 508.188 133.932 507.58 133.58C506.972 133.228 506.504 132.728 506.176 132.08C505.856 131.424 505.696 130.652 505.696 129.764C505.696 128.876 505.856 128.108 506.176 127.46C506.504 126.812 506.972 126.312 507.58 125.96C508.188 125.608 508.92 125.432 509.776 125.432C510.352 125.432 510.888 125.524 511.384 125.708C511.888 125.884 512.308 126.14 512.644 126.476L512.212 127.472C511.844 127.144 511.464 126.908 511.072 126.764C510.688 126.612 510.268 126.536 509.812 126.536C508.9 126.536 508.204 126.816 507.724 127.376C507.244 127.936 507.004 128.732 507.004 129.764C507.004 130.796 507.244 131.596 507.724 132.164C508.204 132.724 508.9 133.004 509.812 133.004C510.268 133.004 510.688 132.932 511.072 132.788C511.464 132.636 511.844 132.396 512.212 132.068L512.644 133.064C512.308 133.392 511.888 133.648 511.384 133.832C510.888 134.016 510.352 134.108 509.776 134.108ZM516.749 134.108C516.085 134.108 515.477 134.024 514.925 133.856C514.373 133.68 513.905 133.436 513.521 133.124L513.917 132.14C514.317 132.444 514.745 132.672 515.201 132.824C515.657 132.976 516.173 133.052 516.749 133.052C517.429 133.052 517.929 132.932 518.249 132.692C518.577 132.444 518.741 132.124 518.741 131.732C518.741 131.412 518.625 131.16 518.393 130.976C518.161 130.784 517.773 130.632 517.229 130.52L515.945 130.256C515.185 130.096 514.617 129.832 514.241 129.464C513.873 129.096 513.689 128.6 513.689 127.976C513.689 127.472 513.821 127.028 514.085 126.644C514.357 126.26 514.733 125.964 515.213 125.756C515.693 125.54 516.245 125.432 516.869 125.432C517.445 125.432 517.977 125.52 518.465 125.696C518.961 125.864 519.381 126.112 519.725 126.44L519.317 127.388C518.637 126.788 517.817 126.488 516.857 126.488C516.265 126.488 515.793 126.62 515.441 126.884C515.097 127.148 514.925 127.5 514.925 127.94C514.925 128.276 515.033 128.544 515.249 128.744C515.465 128.944 515.825 129.096 516.329 129.2L517.601 129.464C518.401 129.632 518.997 129.892 519.389 130.244C519.781 130.588 519.977 131.056 519.977 131.648C519.977 132.144 519.845 132.576 519.581 132.944C519.317 133.312 518.945 133.6 518.465 133.808C517.985 134.008 517.413 134.108 516.749 134.108ZM524.214 134.108C523.55 134.108 522.942 134.024 522.39 133.856C521.838 133.68 521.37 133.436 520.986 133.124L521.382 132.14C521.782 132.444 522.21 132.672 522.666 132.824C523.122 132.976 523.638 133.052 524.214 133.052C524.894 133.052 525.394 132.932 525.714 132.692C526.042 132.444 526.206 132.124 526.206 131.732C526.206 131.412 526.09 131.16 525.858 130.976C525.626 130.784 525.238 130.632 524.694 130.52L523.41 130.256C522.65 130.096 522.082 129.832 521.706 129.464C521.338 129.096 521.154 128.6 521.154 127.976C521.154 127.472 521.286 127.028 521.55 126.644C521.822 126.26 522.198 125.964 522.678 125.756C523.158 125.54 523.71 125.432 524.334 125.432C524.91 125.432 525.442 125.52 525.93 125.696C526.426 125.864 526.846 126.112 527.19 126.44L526.782 127.388C526.102 126.788 525.282 126.488 524.322 126.488C523.73 126.488 523.258 126.62 522.906 126.884C522.562 127.148 522.39 127.5 522.39 127.94C522.39 128.276 522.498 128.544 522.714 128.744C522.93 128.944 523.29 129.096 523.794 129.2L525.066 129.464C525.866 129.632 526.462 129.892 526.854 130.244C527.246 130.588 527.442 131.056 527.442 131.648C527.442 132.144 527.31 132.576 527.046 132.944C526.782 133.312 526.41 133.6 525.93 133.808C525.45 134.008 524.878 134.108 524.214 134.108Z" fill="#333638"/>
<path d="M392.176 27L397.2 15.72H398.576L403.616 27H401.92L400.736 24.248H395.024L393.856 27H392.176ZM397.872 17.56L395.616 22.904H400.176L397.904 17.56H397.872ZM405.093 27V15.72H409.765C410.981 15.72 411.92 16.024 412.581 16.632C413.243 17.2293 413.573 18.072 413.573 19.16C413.573 20.2587 413.243 21.112 412.581 21.72C411.92 22.3173 410.981 22.616 409.765 22.616H406.757V27H405.093ZM406.757 21.288H409.525C411.147 21.288 411.957 20.5787 411.957 19.16C411.957 17.752 411.147 17.048 409.525 17.048H406.757V21.288ZM415.359 27V15.72H420.031C421.247 15.72 422.186 16.024 422.847 16.632C423.508 17.2293 423.839 18.072 423.839 19.16C423.839 20.2587 423.508 21.112 422.847 21.72C422.186 22.3173 421.247 22.616 420.031 22.616H417.023V27H415.359ZM417.023 21.288H419.791C421.412 21.288 422.223 20.5787 422.223 19.16C422.223 17.752 421.412 17.048 419.791 17.048H417.023V21.288ZM425.625 27V15.72H427.289V25.576H432.873V27H425.625ZM434.453 27V15.72H436.117V27H434.453ZM443.774 27.144C442.633 27.144 441.657 26.9093 440.846 26.44C440.036 25.9707 439.412 25.304 438.974 24.44C438.548 23.5653 438.334 22.536 438.334 21.352C438.334 20.168 438.548 19.144 438.974 18.28C439.412 17.416 440.036 16.7493 440.846 16.28C441.657 15.8107 442.633 15.576 443.774 15.576C444.542 15.576 445.257 15.6987 445.918 15.944C446.59 16.1787 447.15 16.52 447.598 16.968L447.022 18.296C446.532 17.8587 446.025 17.544 445.502 17.352C444.99 17.1493 444.43 17.048 443.822 17.048C442.606 17.048 441.678 17.4213 441.038 18.168C440.398 18.9147 440.078 19.976 440.078 21.352C440.078 22.728 440.398 23.7947 441.038 24.552C441.678 25.2987 442.606 25.672 443.822 25.672C444.43 25.672 444.99 25.576 445.502 25.384C446.025 25.1813 446.532 24.8613 447.022 24.424L447.598 25.752C447.15 26.1893 446.59 26.5307 445.918 26.776C445.257 27.0213 444.542 27.144 443.774 27.144ZM448.145 27L453.169 15.72H454.545L459.585 27H457.889L456.705 24.248H450.993L449.825 27H448.145ZM453.841 17.56L451.585 22.904H456.145L453.873 17.56H453.841ZM462.58 27V17.112H458.58V15.72H468.228V17.112H464.228V27H462.58ZM469.609 27V15.72H471.273V27H469.609ZM478.771 27.144C477.693 27.144 476.76 26.9093 475.971 26.44C475.181 25.96 474.568 25.288 474.131 24.424C473.704 23.5493 473.491 22.5253 473.491 21.352C473.491 20.168 473.704 19.144 474.131 18.28C474.568 17.416 475.181 16.7493 475.971 16.28C476.76 15.8107 477.693 15.576 478.771 15.576C479.837 15.576 480.765 15.8107 481.555 16.28C482.355 16.7493 482.968 17.416 483.395 18.28C483.832 19.144 484.051 20.1627 484.051 21.336C484.051 22.52 483.832 23.5493 483.395 24.424C482.968 25.288 482.355 25.96 481.555 26.44C480.765 26.9093 479.837 27.144 478.771 27.144ZM478.771 25.704C479.891 25.704 480.76 25.3253 481.378 24.568C482.008 23.8 482.323 22.728 482.323 21.352C482.323 19.976 482.013 18.9093 481.395 18.152C480.776 17.3947 479.901 17.016 478.771 17.016C477.651 17.016 476.776 17.3947 476.147 18.152C475.528 18.9093 475.219 19.976 475.219 21.352C475.219 22.728 475.528 23.8 476.147 24.568C476.776 25.3253 477.651 25.704 478.771 25.704ZM486.281 27V15.72H487.545L494.009 24.248V15.72H495.545V27H494.313L487.817 18.44V27H486.281ZM502.375 27V15.72H504.039V25.576H509.623V27H502.375ZM509.785 27L514.809 15.72H516.185L521.225 27H519.529L518.345 24.248H512.633L511.465 27H509.785ZM515.481 17.56L513.225 22.904H517.785L515.513 17.56H515.481ZM524.36 27V21.736L520.04 15.72H521.96L525.224 20.28L528.488 15.72H530.328L526.008 21.752V27H524.36ZM531.765 27V15.72H539.061V17.064H533.365V20.6H538.725V21.944H533.365V25.656H539.061V27H531.765ZM541.187 27V15.72H545.859C547.075 15.72 548.014 16.0133 548.675 16.6C549.336 17.176 549.667 17.9867 549.667 19.032C549.667 19.8747 549.443 20.568 548.995 21.112C548.547 21.6453 547.912 22.0027 547.091 22.184C547.603 22.3547 548.035 22.7653 548.387 23.416L550.339 27H548.515L546.563 23.4C546.339 22.984 546.078 22.7067 545.779 22.568C545.491 22.4187 545.118 22.344 544.659 22.344H542.851V27H541.187ZM542.851 21.096H545.587C547.23 21.096 548.051 20.4187 548.051 19.064C548.051 17.72 547.23 17.048 545.587 17.048H542.851V21.096Z" fill="#399DE0"/>
<path d="M27.312 27V15.72H31.984C33.2 15.72 34.1387 16.024 34.8 16.632C35.4613 17.2293 35.792 18.072 35.792 19.16C35.792 20.2587 35.4613 21.112 34.8 21.72C34.1387 22.3173 33.2 22.616 31.984 22.616H28.976V27H27.312ZM28.976 21.288H31.744C33.3653 21.288 34.176 20.5787 34.176 19.16C34.176 17.752 33.3653 17.048 31.744 17.048H28.976V21.288ZM37.5776 27V15.72H42.2496C43.4656 15.72 44.4043 16.0133 45.0656 16.6C45.727 17.176 46.0576 17.9867 46.0576 19.032C46.0576 19.8747 45.8336 20.568 45.3856 21.112C44.9376 21.6453 44.303 22.0027 43.4816 22.184C43.9936 22.3547 44.4256 22.7653 44.7776 23.416L46.7296 27H44.9056L42.9536 23.4C42.7296 22.984 42.4683 22.7067 42.1696 22.568C41.8816 22.4187 41.5083 22.344 41.0496 22.344H39.2416V27H37.5776ZM39.2416 21.096H41.9776C43.6203 21.096 44.4416 20.4187 44.4416 19.064C44.4416 17.72 43.6203 17.048 41.9776 17.048H39.2416V21.096ZM48.4058 27V15.72H55.7018V17.064H50.0058V20.6H55.3658V21.944H50.0058V25.656H55.7018V27H48.4058ZM61.4314 27.144C60.546 27.144 59.7354 27.032 58.9994 26.808C58.2634 26.5733 57.6394 26.248 57.1274 25.832L57.6554 24.52C58.1887 24.9253 58.7594 25.2293 59.3674 25.432C59.9754 25.6347 60.6634 25.736 61.4314 25.736C62.338 25.736 63.0047 25.576 63.4314 25.256C63.8687 24.9253 64.0874 24.4987 64.0874 23.976C64.0874 23.5493 63.9327 23.2133 63.6234 22.968C63.314 22.712 62.7967 22.5093 62.0714 22.36L60.3594 22.008C59.346 21.7947 58.5887 21.4427 58.0874 20.952C57.5967 20.4613 57.3514 19.8 57.3514 18.968C57.3514 18.296 57.5274 17.704 57.8794 17.192C58.242 16.68 58.7434 16.2853 59.3834 16.008C60.0234 15.72 60.7594 15.576 61.5914 15.576C62.3594 15.576 63.0687 15.6933 63.7194 15.928C64.3807 16.152 64.9407 16.4827 65.3994 16.92L64.8554 18.184C63.9487 17.384 62.8554 16.984 61.5754 16.984C60.786 16.984 60.1567 17.16 59.6874 17.512C59.2287 17.864 58.9994 18.3333 58.9994 18.92C58.9994 19.368 59.1434 19.7253 59.4314 19.992C59.7194 20.2587 60.1994 20.4613 60.8714 20.6L62.5674 20.952C63.634 21.176 64.4287 21.5227 64.9514 21.992C65.474 22.4507 65.7354 23.0747 65.7354 23.864C65.7354 24.5253 65.5594 25.1013 65.2074 25.592C64.8554 26.0827 64.3594 26.4667 63.7194 26.744C63.0794 27.0107 62.3167 27.144 61.4314 27.144ZM67.6245 27V15.72H74.9205V17.064H69.2245V20.6H74.5845V21.944H69.2245V25.656H74.9205V27H67.6245ZM77.0464 27V15.72H78.3104L84.7744 24.248V15.72H86.3104V27H85.0784L78.5824 18.44V27H77.0464ZM91.689 27V17.112H87.689V15.72H97.337V17.112H93.337V27H91.689ZM96.3479 27L101.372 15.72H102.748L107.788 27H106.092L104.908 24.248H99.1959L98.0279 27H96.3479ZM102.044 17.56L99.7879 22.904H104.348L102.076 17.56H102.044ZM110.783 27V17.112H106.783V15.72H116.431V17.112H112.431V27H110.783ZM117.812 27V15.72H119.476V27H117.812ZM126.974 27.144C125.896 27.144 124.963 26.9093 124.174 26.44C123.384 25.96 122.771 25.288 122.334 24.424C121.907 23.5493 121.694 22.5253 121.694 21.352C121.694 20.168 121.907 19.144 122.334 18.28C122.771 17.416 123.384 16.7493 124.174 16.28C124.963 15.8107 125.896 15.576 126.974 15.576C128.04 15.576 128.968 15.8107 129.758 16.28C130.558 16.7493 131.171 17.416 131.598 18.28C132.035 19.144 132.254 20.1627 132.254 21.336C132.254 22.52 132.035 23.5493 131.598 24.424C131.171 25.288 130.558 25.96 129.758 26.44C128.968 26.9093 128.04 27.144 126.974 27.144ZM126.974 25.704C128.094 25.704 128.963 25.3253 129.582 24.568C130.211 23.8 130.526 22.728 130.526 21.352C130.526 19.976 130.216 18.9093 129.598 18.152C128.979 17.3947 128.104 17.016 126.974 17.016C125.854 17.016 124.979 17.3947 124.35 18.152C123.731 18.9093 123.422 19.976 123.422 21.352C123.422 22.728 123.731 23.8 124.35 24.568C124.979 25.3253 125.854 25.704 126.974 25.704ZM134.484 27V15.72H135.748L142.212 24.248V15.72H143.748V27H142.516L136.02 18.44V27H134.484ZM150.578 27V15.72H152.242V25.576H157.826V27H150.578ZM157.989 27L163.013 15.72H164.389L169.429 27H167.733L166.549 24.248H160.837L159.669 27H157.989ZM163.685 17.56L161.429 22.904H165.989L163.717 17.56H163.685ZM172.563 27V21.736L168.243 15.72H170.163L173.427 20.28L176.691 15.72H178.531L174.211 21.752V27H172.563ZM179.968 27V15.72H187.264V17.064H181.568V20.6H186.928V21.944H181.568V25.656H187.264V27H179.968ZM189.39 27V15.72H194.062C195.278 15.72 196.217 16.0133 196.878 16.6C197.539 17.176 197.87 17.9867 197.87 19.032C197.87 19.8747 197.646 20.568 197.198 21.112C196.75 21.6453 196.115 22.0027 195.294 22.184C195.806 22.3547 196.238 22.7653 196.59 23.416L198.542 27H196.718L194.766 23.4C194.542 22.984 194.281 22.7067 193.982 22.568C193.694 22.4187 193.321 22.344 192.862 22.344H191.054V27H189.39ZM191.054 21.096H193.79C195.433 21.096 196.254 20.4187 196.254 19.064C196.254 17.72 195.433 17.048 193.79 17.048H191.054V21.096Z" fill="#399DE0"/>
<path d="M726.312 27V15.72H730.296C732.152 15.72 733.581 16.2053 734.584 17.176C735.597 18.1467 736.104 19.5387 736.104 21.352C736.104 23.1653 735.597 24.5627 734.584 25.544C733.581 26.5147 732.152 27 730.296 27H726.312ZM727.976 25.608H730.2C732.984 25.608 734.376 24.1893 734.376 21.352C734.376 18.5253 732.984 17.112 730.2 17.112H727.976V25.608ZM736.973 27L741.997 15.72H743.373L748.413 27H746.717L745.533 24.248H739.821L738.653 27H736.973ZM742.669 17.56L740.413 22.904H744.973L742.701 17.56H742.669ZM751.408 27V17.112H747.408V15.72H757.056V17.112H753.056V27H751.408ZM756.067 27L761.091 15.72H762.467L767.507 27H765.811L764.627 24.248H758.915L757.747 27H756.067ZM761.763 17.56L759.507 22.904H764.067L761.795 17.56H761.763ZM773.187 27V15.72H774.851V25.576H780.435V27H773.187ZM780.598 27L785.622 15.72H786.998L792.038 27H790.342L789.158 24.248H783.446L782.278 27H780.598ZM786.294 17.56L784.038 22.904H788.598L786.326 17.56H786.294ZM795.172 27V21.736L790.852 15.72H792.772L796.036 20.28L799.3 15.72H801.14L796.82 21.752V27H795.172ZM802.578 27V15.72H809.874V17.064H804.178V20.6H809.538V21.944H804.178V25.656H809.874V27H802.578ZM812 27V15.72H816.672C817.888 15.72 818.826 16.0133 819.488 16.6C820.149 17.176 820.48 17.9867 820.48 19.032C820.48 19.8747 820.256 20.568 819.808 21.112C819.36 21.6453 818.725 22.0027 817.904 22.184C818.416 22.3547 818.848 22.7653 819.2 23.416L821.152 27H819.328L817.376 23.4C817.152 22.984 816.89 22.7067 816.592 22.568C816.304 22.4187 815.93 22.344 815.472 22.344H813.664V27H812ZM813.664 21.096H816.4C818.042 21.096 818.864 20.4187 818.864 19.064C818.864 17.72 818.042 17.048 816.4 17.048H813.664V21.096Z" fill="#399DE0"/>
<mask id="path-52-inside-1_103_2443" fill="white">
<path fill-rule="evenodd" clip-rule="evenodd" d="M148.287 117.589C148.287 117.587 148.287 117.585 148.287 117.584V83.0193C148.288 82.7538 148.236 82.4908 148.136 82.2453C148.036 81.9999 147.888 81.7768 147.702 81.5891C147.515 81.4014 147.294 81.2527 147.05 81.1516C146.806 81.0505 146.545 80.999 146.281 81H87.1265C86.8629 80.999 86.6017 81.0505 86.3579 81.1516C86.1142 81.2527 85.8927 81.4014 85.7063 81.5891C85.5199 81.7768 85.3722 81.9999 85.2718 82.2453C85.1714 82.4908 85.1202 82.7538 85.1213 83.0193V117.495L78.9366 128.872C78.7021 129.254 78.5584 129.708 78.5218 130.184C78.4851 130.661 78.557 131.14 78.7293 131.569C78.9016 131.998 79.1675 132.359 79.4971 132.611C79.8266 132.864 80.2068 132.998 80.5949 132.999H152.842C153.246 133.013 153.643 132.881 153.987 132.621C154.33 132.361 154.605 131.983 154.778 131.534C154.95 131.084 155.013 130.583 154.959 130.09C154.904 129.598 154.734 129.135 154.47 128.759L148.287 117.589Z"/>
</mask>
<path fill-rule="evenodd" clip-rule="evenodd" d="M148.287 117.589C148.287 117.587 148.287 117.585 148.287 117.584V83.0193C148.288 82.7538 148.236 82.4908 148.136 82.2453C148.036 81.9999 147.888 81.7768 147.702 81.5891C147.515 81.4014 147.294 81.2527 147.05 81.1516C146.806 81.0505 146.545 80.999 146.281 81H87.1265C86.8629 80.999 86.6017 81.0505 86.3579 81.1516C86.1142 81.2527 85.8927 81.4014 85.7063 81.5891C85.5199 81.7768 85.3722 81.9999 85.2718 82.2453C85.1714 82.4908 85.1202 82.7538 85.1213 83.0193V117.495L78.9366 128.872C78.7021 129.254 78.5584 129.708 78.5218 130.184C78.4851 130.661 78.557 131.14 78.7293 131.569C78.9016 131.998 79.1675 132.359 79.4971 132.611C79.8266 132.864 80.2068 132.998 80.5949 132.999H152.842C153.246 133.013 153.643 132.881 153.987 132.621C154.33 132.361 154.605 131.983 154.778 131.534C154.95 131.084 155.013 130.583 154.959 130.09C154.904 129.598 154.734 129.135 154.47 128.759L148.287 117.589Z" fill="#F2F2F3"/>
<path d="M148.287 117.589H146.287V118.106L146.537 118.558L148.287 117.589ZM148.287 83.0193L146.287 83.0115V83.0193H148.287ZM148.136 82.2453L149.987 81.4881L149.987 81.4881L148.136 82.2453ZM147.702 81.5891L149.121 80.1799L149.121 80.1798L147.702 81.5891ZM147.05 81.1516L146.284 82.999L146.284 82.999L147.05 81.1516ZM146.281 81V83L146.289 83L146.281 81ZM87.1265 81L87.1186 83H87.1265V81ZM86.3579 81.1516L87.1242 82.999L87.1242 82.999L86.3579 81.1516ZM85.7063 81.5891L84.2872 80.1798L84.2872 80.1798L85.7063 81.5891ZM85.2718 82.2453L87.1229 83.0025V83.0025L85.2718 82.2453ZM85.1213 83.0193H87.1213L87.1213 83.0115L85.1213 83.0193ZM85.1213 117.495L86.8784 118.451L87.1213 118.004V117.495H85.1213ZM78.9366 128.872L80.64 129.921L80.6681 129.875L80.6938 129.828L78.9366 128.872ZM80.5949 132.999L80.5905 134.999H80.5949V132.999ZM152.842 132.999L152.91 131L152.876 130.999H152.842V132.999ZM154.959 130.09L156.946 129.87V129.87L154.959 130.09ZM154.47 128.759L152.72 129.728L152.772 129.822L152.834 129.909L154.47 128.759ZM150.287 117.589C150.287 117.59 150.287 117.592 150.287 117.59C150.287 117.59 150.287 117.587 150.287 117.584H146.287C146.287 117.582 146.287 117.581 146.287 117.582C146.287 117.582 146.287 117.586 146.287 117.589H150.287ZM150.287 117.584V83.0193H146.287V117.584H150.287ZM150.287 83.0271C150.289 82.4996 150.187 81.9766 149.987 81.4881L146.285 83.0025C146.286 83.005 146.287 83.0081 146.287 83.0115L150.287 83.0271ZM149.987 81.4881C149.787 80.9996 149.493 80.5548 149.121 80.1799L146.282 82.9984C146.283 82.9988 146.284 83.0001 146.285 83.0025L149.987 81.4881ZM149.121 80.1798C148.748 79.8048 148.305 79.507 147.816 79.3042L146.284 82.999C146.282 82.9984 146.282 82.998 146.282 82.9984L149.121 80.1798ZM147.816 79.3042C147.327 79.1014 146.803 78.9979 146.273 79L146.289 83C146.287 83 146.285 82.9995 146.284 82.999L147.816 79.3042ZM146.281 79H87.1265V83H146.281V79ZM87.1344 79C86.6049 78.9979 86.0805 79.1014 85.5916 79.3042L87.1242 82.999C87.1229 82.9995 87.1209 83 87.1186 83L87.1344 79ZM85.5916 79.3042C85.1028 79.507 84.6596 79.8048 84.2872 80.1798L87.1254 82.9984C87.1258 82.998 87.1255 82.9984 87.1242 82.999L85.5916 79.3042ZM84.2872 80.1798C83.9148 80.5548 83.6205 80.9996 83.4207 81.4881L87.1229 83.0025C87.1239 83.0001 87.125 82.9988 87.1254 82.9984L84.2872 80.1798ZM83.4207 81.4881C83.2209 81.9766 83.1192 82.4996 83.1213 83.0271L87.1213 83.0115C87.1213 83.008 87.1219 83.005 87.1229 83.0025L83.4207 81.4881ZM83.1213 83.0193V117.495H87.1213V83.0193H83.1213ZM83.3641 116.54L77.1795 127.917L80.6938 129.828L86.8784 118.451L83.3641 116.54ZM77.2333 127.824C76.8209 128.495 76.587 129.259 76.5276 130.031L80.5159 130.338C80.5298 130.156 80.5833 130.013 80.64 129.921L77.2333 127.824ZM76.5276 130.031C76.4683 130.803 76.5827 131.591 76.8735 132.315L80.5851 130.823C80.5313 130.689 80.502 130.518 80.5159 130.338L76.5276 130.031ZM76.8735 132.315C77.1641 133.038 77.6349 133.704 78.2802 134.198L80.7139 131.024C80.7 131.013 80.6391 130.958 80.5851 130.823L76.8735 132.315ZM78.2802 134.198C78.9318 134.698 79.7323 134.997 80.5905 134.999L80.5994 130.999C80.6363 130.999 80.6677 131.006 80.6902 131.014C80.7122 131.022 80.7194 131.028 80.7139 131.024L78.2802 134.198ZM80.5949 134.999H152.842V130.999H80.5949V134.999ZM152.775 134.998C153.67 135.028 154.512 134.732 155.194 134.216L152.78 131.027C152.775 131.03 152.784 131.022 152.81 131.014C152.836 131.005 152.87 130.999 152.91 131L152.775 134.998ZM155.194 134.216C155.869 133.705 156.355 133.006 156.645 132.251L152.911 130.817C152.856 130.96 152.792 131.017 152.78 131.027L155.194 134.216ZM156.645 132.251C156.936 131.494 157.035 130.67 156.946 129.87L152.971 130.311C152.991 130.495 152.965 130.675 152.911 130.817L156.645 132.251ZM156.946 129.87C156.858 129.07 156.579 128.282 156.107 127.609L152.834 129.909C152.889 129.988 152.95 130.125 152.971 130.311L156.946 129.87ZM156.22 127.791L150.036 116.62L146.537 118.558L152.72 129.728L156.22 127.791Z" fill="#333638" mask="url(#path-52-inside-1_103_2443)"/>
<path opacity="0.2" d="M153.638 129.314L153.645 129.324L153.652 129.334C153.812 129.562 153.927 129.861 153.965 130.2C154.002 130.539 153.958 130.88 153.844 131.175C153.731 131.471 153.561 131.689 153.383 131.824C153.209 131.956 153.033 132.005 152.876 132L152.859 131.999H152.842H80.5962C80.4434 131.998 80.2737 131.947 80.1055 131.818C79.9338 131.686 79.7704 131.478 79.6572 131.196L78.7293 131.569L79.6572 131.196C79.5441 130.915 79.4936 130.589 79.5188 130.261C79.544 129.933 79.6423 129.634 79.7875 129.398C79.7877 129.397 79.788 129.397 79.7883 129.397L85.9 119.545L85.9 119.545L85.9028 119.54C86.0225 119.345 86.1647 119.207 86.3054 119.121C86.444 119.036 86.5812 119 86.7085 119H146.314C146.438 119.001 146.57 119.034 146.703 119.112C146.839 119.191 146.977 119.318 147.097 119.497L153.638 129.314Z" fill="#333638" stroke="#333638" stroke-width="2"/>
<path d="M121.8 128.519H111.782L112.401 127.86L112.427 127.861L112.458 127.861L121.074 127.798L121.115 127.798L121.156 127.794C121.159 127.794 121.162 127.794 121.166 127.795L121.8 128.519ZM110.747 128.51C110.744 128.509 110.743 128.508 110.743 128.508C110.743 128.508 110.744 128.508 110.747 128.51Z" fill="#F2F2F3" stroke="#333638" stroke-width="2"/>
<rect opacity="0.2" x="87.1001" y="117" width="59.65" height="1" fill="#333638"/>
<line x1="87" y1="117.5" x2="147" y2="117.5" stroke="#333638" stroke-dasharray="2 2"/>
<path d="M123.452 95.0383C123.454 94.9683 123.455 94.9001 123.455 94.8338C123.455 91.6119 121.038 89 117.606 89C114.175 89 111.392 91.6119 111.392 94.8338C111.392 94.9796 111.398 95.1346 111.409 95.2978C111.411 95.6529 111.45 96.012 111.541 96.3668C111.56 96.4736 111.579 96.5822 111.601 96.6925C111.583 96.6915 111.565 96.6911 111.548 96.6911C111.072 96.6911 110.584 97.0614 111.106 98.9068C111.513 100.345 111.892 100.748 112.179 100.771C112.34 101.81 112.702 103.021 113.481 104.031C113.415 104.45 113.284 105.037 113.035 105.444C113.035 105.444 113.03 105.447 113.021 105.453C112.844 105.565 109.853 106.246 108.191 107.452C107.326 108.08 106.783 108.426 106.179 109.32C105.045 110.996 105.428 116.94 105.325 117H117.242H129.158C129.055 116.94 129.438 110.996 128.305 109.32C127.7 108.426 127.161 108.073 126.292 107.452C124.657 106.283 121.533 105.569 121.533 105.569C121.215 105.15 121.063 104.44 120.993 103.976C121.685 103.052 122.037 101.968 122.208 101.003C122.271 101.045 122.343 101.074 122.423 101.074C122.713 101.074 123.102 100.691 123.522 99.2085C123.957 97.6741 123.692 97.1599 123.317 97.0301C123.471 96.293 123.507 95.6316 123.452 95.0383Z" fill="#333638"/>
<rect opacity="0.5" x="87.1001" y="83" width="59.65" height="35" fill="#F2F2F3"/>
<path d="M133.928 167.547L133.929 162.094C133.929 160.398 132.926 158.943 131.498 158.323C131.022 158.115 130.498 158 129.948 158L116.442 158.001L102.909 158C102.36 158 101.836 158.115 101.36 158.323C99.9312 158.943 98.9287 160.398 98.9293 162.094L98.9299 167.547H98.9334L98.9287 203.906C98.9287 206.166 100.708 207.998 102.903 207.998L109.894 207.999L109.893 208L116.437 207.999L122.964 208L122.963 207.999L129.954 207.998C132.149 207.998 133.929 206.166 133.929 203.906L133.925 167.547L133.928 167.547Z" fill="#F2F2F3"/>
<path d="M132.929 162.094L132.928 166.361L132.924 166.36L132.925 167.547L132.929 203.907V203.907C132.929 205.641 131.57 206.998 129.954 206.998H129.954L122.963 206.999L120.6 206.999L120.601 207L116.437 206.999H116.437L112.256 207L112.256 206.999L109.895 206.999L102.903 206.998H102.903C101.288 206.998 99.9288 205.641 99.9287 203.907C99.9287 203.907 99.9287 203.907 99.9287 203.906L99.9334 167.548L99.9336 166.547H99.9298L99.9293 162.094L99.9293 162.094C99.9288 160.797 100.694 159.702 101.758 159.24L101.758 159.24L101.76 159.239C102.112 159.085 102.5 159 102.909 159C102.909 159 102.909 159 102.909 159L116.442 159.001H116.442L129.948 159C129.948 159 129.948 159 129.948 159C130.357 159 130.745 159.085 131.098 159.239L131.099 159.24C132.164 159.702 132.929 160.798 132.929 162.094C132.929 162.094 132.929 162.094 132.929 162.094Z" stroke="#333638" stroke-width="2"/>
<line x1="100.175" y1="201.5" x2="133.175" y2="201.5" stroke="#333638" stroke-dasharray="2 2"/>
<line x1="100.175" y1="164.5" x2="133.175" y2="164.5" stroke="#333638" stroke-dasharray="2 2"/>
<path d="M122.429 179.038C122.431 178.968 122.432 178.9 122.432 178.834C122.432 175.612 119.999 173 116.543 173C113.087 173 110.285 175.612 110.285 178.834C110.285 178.98 110.291 179.135 110.302 179.298C110.304 179.653 110.343 180.012 110.435 180.367C110.454 180.474 110.473 180.582 110.495 180.692C110.477 180.691 110.459 180.691 110.442 180.691C109.962 180.691 109.471 181.061 109.997 182.907C110.407 184.345 110.788 184.748 111.077 184.771C111.24 185.81 111.604 187.021 112.389 188.031C112.322 188.45 112.19 189.037 111.939 189.444C111.939 189.444 111.934 189.447 111.925 189.453C111.747 189.565 108.735 190.246 107.061 191.452C106.19 192.08 105.644 192.426 105.035 193.32C103.893 194.996 104.279 200.94 104.175 201H116.175H128.175C128.071 200.94 128.457 194.996 127.316 193.32C126.707 192.426 126.164 192.073 125.289 191.452C123.643 190.283 120.497 189.569 120.497 189.569C120.177 189.15 120.023 188.44 119.953 187.976C120.65 187.052 121.004 185.968 121.177 185.003C121.24 185.045 121.313 185.074 121.393 185.074C121.684 185.074 122.077 184.691 122.499 183.208C122.937 181.674 122.671 181.16 122.293 181.03C122.448 180.293 122.484 179.632 122.429 179.038Z" fill="#333638"/>
<rect opacity="0.2" x="100.929" y="201" width="31" height="5" fill="#333638"/>
<rect opacity="0.2" x="100.929" y="160" width="31" height="5" fill="#333638"/>
<rect opacity="0.5" x="100.929" y="164" width="31" height="38" fill="#F2F2F3"/>
<path d="M89.8951 282.966H108.791C108.668 283.353 108.468 283.799 108.143 284.242C107.445 285.195 106.077 286.264 103.293 286.611C103.236 286.618 103.181 286.629 103.128 286.645C101.858 286.871 100.884 287.973 100.884 289.313C100.884 290.818 102.113 292.023 103.61 292.023H130.071C131.568 292.023 132.797 290.818 132.797 289.313C132.797 288.054 131.938 287.006 130.782 286.696C130.69 286.653 130.589 286.624 130.483 286.611C127.699 286.264 126.331 285.195 125.633 284.242C125.308 283.799 125.108 283.353 124.985 282.966H143.881C146.511 282.966 148.675 280.932 148.836 278.347C148.844 278.296 148.849 278.244 148.849 278.191V270.835C148.849 270.818 148.848 270.8 148.847 270.783V239.461C148.847 236.44 146.371 234 143.345 234H90.4319C87.4063 234 84.9294 236.44 84.9294 239.461V271.618C84.9294 271.635 84.9297 271.649 84.93 271.66L84.9307 271.682V277.622L84.9301 277.638C84.9296 277.653 84.9287 277.679 84.9287 277.709V278.037C84.9287 278.067 84.9296 278.093 84.9301 278.109L84.9307 278.125V278.191C84.9307 278.228 84.9328 278.266 84.9369 278.302C85.0765 280.909 87.2499 282.966 89.8951 282.966Z" fill="#F2F2F3" stroke="#333638" stroke-width="2" stroke-linejoin="round"/>
<path opacity="0.2" fill-rule="evenodd" clip-rule="evenodd" d="M147.847 239.461V271.574L147.849 271.572V278.255H147.843C147.762 280.353 146.019 282.03 143.881 282.03H123.793C123.828 282.912 124.324 286.915 130.36 287.667H130.071C131.024 287.667 131.797 288.432 131.797 289.377C131.797 290.321 131.024 291.087 130.071 291.087H103.61C102.657 291.087 101.884 290.321 101.884 289.377C101.884 288.432 102.657 287.667 103.61 287.667H103.416C109.452 286.915 109.947 282.912 109.983 282.03H89.8951C87.7566 282.03 86.0143 280.353 85.9328 278.255H85.9307V278.171L85.9299 278.149C85.9293 278.133 85.9287 278.117 85.9287 278.101V277.773C85.9287 277.758 85.9293 277.742 85.9299 277.727L85.9307 277.703V272.41C85.9307 272.401 85.9304 272.392 85.9301 272.383C85.9297 272.373 85.9294 272.364 85.9294 272.355V239.461C85.9294 237.001 87.9496 235 90.4319 235H143.345C145.828 235 147.847 237.001 147.847 239.461ZM144.025 277.368C144.46 277.368 145.493 276.344 145.493 275.913L145.493 238.787C145.493 238.357 144.459 237.333 144.024 237.333H89.7524C89.3175 237.333 88.284 238.357 88.284 238.787V275.913C88.284 276.344 89.3175 277.368 89.7524 277.368H144.025ZM118.901 280.334C119.256 280.334 119.566 280.131 119.724 279.833C119.796 279.697 119.837 279.542 119.837 279.377C119.837 279.212 119.796 279.056 119.724 278.92C119.566 278.622 119.256 278.419 118.901 278.419H115.414C115.155 278.419 114.921 278.526 114.751 278.7C114.701 278.751 114.657 278.81 114.619 278.872C114.53 279.019 114.477 279.191 114.477 279.377C114.477 279.906 114.897 280.334 115.414 280.334H118.901Z" fill="#333638"/>
<path d="M123.239 251.424C123.241 251.353 123.242 251.284 123.242 251.217C123.242 247.96 120.805 245.32 117.345 245.32C113.884 245.32 111.079 247.96 111.079 251.217C111.079 251.364 111.085 251.521 111.096 251.686C111.097 252.045 111.137 252.408 111.229 252.767C111.247 252.875 111.267 252.984 111.289 253.096C111.271 253.095 111.253 253.094 111.235 253.094C110.756 253.094 110.264 253.469 110.79 255.334C111.201 256.788 111.583 257.196 111.872 257.219C112.035 258.269 112.399 259.493 113.185 260.514C113.118 260.937 112.987 261.531 112.735 261.942C112.735 261.942 112.73 261.946 112.721 261.951C112.542 262.065 110.674 263.254 107.734 263.972C107.568 264.012 107.414 264.507 107.271 264.967C107.153 265.346 107.042 265.702 106.937 265.763C109.267 269.197 112.486 269.982 116.977 269.982C121.467 269.982 124.687 269.197 127.016 265.763C126.912 265.702 126.801 265.346 126.683 264.967C126.539 264.507 126.385 264.012 126.22 263.972C123.13 263.218 121.304 262.068 121.304 262.068C120.983 261.645 120.83 260.927 120.76 260.458C121.458 259.524 121.812 258.429 121.985 257.453C122.048 257.496 122.121 257.525 122.201 257.525C122.493 257.525 122.886 257.138 123.309 255.639C123.748 254.088 123.481 253.568 123.103 253.437C123.258 252.692 123.294 252.023 123.239 251.424Z" fill="#333638"/>
<rect opacity="0.5" x="89.6145" y="238.686" width="54.5485" height="37.5942" fill="#F2F2F3"/>
<path d="M304 3.5V353.5" stroke="#333638" stroke-width="5" stroke-linecap="round" stroke-dasharray="10 10"/>
<path d="M643 3V353" stroke="#333638" stroke-width="5" stroke-linecap="round" stroke-dasharray="10 10"/>
<path d="M362.5 130H244M702.5 130H584" stroke="#399DE0" stroke-width="5" stroke-linecap="round"/>
<defs>
<clipPath id="clip0_103_2443">
<rect x="413" y="164" width="28" height="28" rx="2" fill="white"/>
</clipPath>
</defs>
</svg>
