<svg width="571" height="480" viewBox="0 0 571 480" fill="none" xmlns="http://www.w3.org/2000/svg">
<path d="M334.923 112.349V112.351C334.923 116.038 331.943 119 328.187 119H243.736C239.98 119 237 116.038 237 112.351V59.3335H334.999L334.923 112.349Z" fill="#F2F2F3" stroke="#333638" stroke-width="2"/>
<path d="M334.923 47.6547V47.6492C334.923 43.9624 331.943 40.9998 328.187 40.9998H243.736C239.98 40.9998 237 43.9624 237 47.6492V60.6665H334.994L334.923 47.6547Z" fill="#F2F2F3" stroke="#333638" stroke-width="2"/>
<ellipse cx="249.559" cy="50.8335" rx="2.54237" ry="2.5" fill="#333638"/>
<ellipse cx="259.729" cy="50.8335" rx="2.54237" ry="2.5" fill="#333638"/>
<ellipse cx="269.898" cy="50.8335" rx="2.54238" ry="2.5" fill="#333638"/>
<path opacity="0.5" d="M334.923 112.349V112.351C334.923 116.038 331.943 119 328.187 119H243.736C239.98 119 237 116.038 237 112.351V59.3335H334.999L334.923 112.349Z" fill="#F2F2F3" stroke="#333638" stroke-width="2"/>
<path d="M265.312 86V74.72H266.976V79.584H273.296V74.72H274.944V86H273.296V80.976H266.976V86H265.312ZM280.794 86.144C280.004 86.144 279.322 85.9787 278.746 85.648C278.17 85.3173 277.722 84.8533 277.402 84.256C277.092 83.648 276.938 82.928 276.938 82.096C276.938 81.264 277.092 80.5493 277.402 79.952C277.722 79.344 278.17 78.8747 278.746 78.544C279.322 78.2133 280.004 78.048 280.794 78.048C281.562 78.048 282.234 78.2133 282.81 78.544C283.386 78.8747 283.834 79.344 284.154 79.952C284.474 80.5493 284.634 81.264 284.634 82.096C284.634 82.928 284.474 83.648 284.154 84.256C283.834 84.8533 283.386 85.3173 282.81 85.648C282.234 85.9787 281.562 86.144 280.794 86.144ZM280.794 84.896C281.455 84.896 281.988 84.656 282.394 84.176C282.799 83.696 283.002 83.0027 283.002 82.096C283.002 81.1893 282.799 80.5013 282.394 80.032C281.988 79.552 281.455 79.312 280.794 79.312C280.122 79.312 279.583 79.552 279.178 80.032C278.772 80.5013 278.57 81.1893 278.57 82.096C278.57 83.0027 278.772 83.696 279.178 84.176C279.583 84.656 280.122 84.896 280.794 84.896ZM286.481 86V78.192H288.049V79.456C288.283 79.008 288.609 78.6613 289.025 78.416C289.441 78.1707 289.926 78.048 290.481 78.048C291.675 78.048 292.449 78.5707 292.801 79.616C293.046 79.1253 293.398 78.7413 293.857 78.464C294.315 78.1867 294.838 78.048 295.425 78.048C297.174 78.048 298.049 79.0933 298.049 81.184V86H296.433V81.264C296.433 80.6027 296.315 80.1173 296.081 79.808C295.857 79.4987 295.483 79.344 294.961 79.344C294.374 79.344 293.91 79.552 293.569 79.968C293.227 80.3733 293.057 80.928 293.057 81.632V86H291.441V81.264C291.441 80.6027 291.329 80.1173 291.105 79.808C290.881 79.4987 290.507 79.344 289.985 79.344C289.398 79.344 288.934 79.552 288.593 79.968C288.262 80.3733 288.097 80.928 288.097 81.632V86H286.481ZM303.972 86.144C302.692 86.144 301.684 85.7867 300.948 85.072C300.212 84.3467 299.844 83.36 299.844 82.112C299.844 81.312 300.004 80.608 300.324 80C300.655 79.3813 301.108 78.9013 301.684 78.56C302.26 78.2187 302.921 78.048 303.668 78.048C304.745 78.048 305.593 78.3947 306.212 79.088C306.831 79.7707 307.14 80.7147 307.14 81.92V82.464H301.412C301.529 84.0853 302.388 84.896 303.988 84.896C304.436 84.896 304.873 84.8267 305.3 84.688C305.737 84.5493 306.148 84.32 306.532 84L307.012 85.12C306.66 85.44 306.207 85.6907 305.652 85.872C305.097 86.0533 304.537 86.144 303.972 86.144ZM303.732 79.184C303.06 79.184 302.527 79.392 302.132 79.808C301.737 80.224 301.497 80.7787 301.412 81.472H305.78C305.748 80.7467 305.556 80.1867 305.204 79.792C304.852 79.3867 304.361 79.184 303.732 79.184ZM265.312 108V96.72H269.984C271.2 96.72 272.139 97.024 272.8 97.632C273.461 98.2293 273.792 99.072 273.792 100.16C273.792 101.259 273.461 102.112 272.8 102.72C272.139 103.317 271.2 103.616 269.984 103.616H266.976V108H265.312ZM266.976 102.288H269.744C271.365 102.288 272.176 101.579 272.176 100.16C272.176 98.752 271.365 98.048 269.744 98.048H266.976V102.288ZM277.507 108.144C276.963 108.144 276.478 108.037 276.051 107.824C275.624 107.611 275.283 107.323 275.027 106.96C274.782 106.597 274.659 106.187 274.659 105.728C274.659 105.152 274.803 104.699 275.091 104.368C275.39 104.037 275.875 103.797 276.547 103.648C277.23 103.499 278.147 103.424 279.299 103.424H279.843V103.008C279.843 102.4 279.715 101.963 279.459 101.696C279.203 101.429 278.782 101.296 278.195 101.296C277.747 101.296 277.299 101.365 276.851 101.504C276.403 101.632 275.944 101.84 275.475 102.128L274.979 100.992C275.384 100.704 275.891 100.475 276.499 100.304C277.107 100.133 277.688 100.048 278.243 100.048C279.31 100.048 280.099 100.304 280.611 100.816C281.123 101.317 281.379 102.107 281.379 103.184V108H279.859V106.704C279.667 107.152 279.368 107.504 278.963 107.76C278.558 108.016 278.072 108.144 277.507 108.144ZM277.827 106.992C278.403 106.992 278.883 106.789 279.267 106.384C279.651 105.979 279.843 105.467 279.843 104.848V104.416H279.315C278.536 104.416 277.923 104.453 277.475 104.528C277.038 104.603 276.723 104.731 276.531 104.912C276.35 105.083 276.259 105.323 276.259 105.632C276.259 106.037 276.398 106.368 276.675 106.624C276.952 106.869 277.336 106.992 277.827 106.992ZM287.141 111.024C286.437 111.024 285.781 110.939 285.173 110.768C284.565 110.608 284.026 110.352 283.557 110L284.053 108.848C284.522 109.168 285.002 109.403 285.493 109.552C285.983 109.701 286.495 109.776 287.029 109.776C288.522 109.776 289.269 109.029 289.269 107.536V106.304C289.045 106.773 288.693 107.141 288.213 107.408C287.743 107.675 287.215 107.808 286.629 107.808C285.925 107.808 285.311 107.648 284.789 107.328C284.266 106.997 283.861 106.544 283.573 105.968C283.285 105.381 283.141 104.699 283.141 103.92C283.141 103.152 283.285 102.48 283.573 101.904C283.861 101.317 284.266 100.864 284.789 100.544C285.311 100.213 285.925 100.048 286.629 100.048C287.226 100.048 287.759 100.181 288.229 100.448C288.698 100.715 289.045 101.083 289.269 101.552V100.192H290.837V107.344C290.837 108.571 290.522 109.488 289.893 110.096C289.263 110.715 288.346 111.024 287.141 111.024ZM287.013 106.544C287.695 106.544 288.239 106.309 288.645 105.84C289.05 105.371 289.253 104.731 289.253 103.92C289.253 103.109 289.05 102.475 288.645 102.016C288.239 101.547 287.695 101.312 287.013 101.312C286.33 101.312 285.786 101.547 285.381 102.016C284.975 102.475 284.773 103.109 284.773 103.92C284.773 104.731 284.975 105.371 285.381 105.84C285.786 106.309 286.33 106.544 287.013 106.544ZM296.769 108.144C295.489 108.144 294.481 107.787 293.745 107.072C293.009 106.347 292.641 105.36 292.641 104.112C292.641 103.312 292.801 102.608 293.121 102C293.451 101.381 293.905 100.901 294.481 100.56C295.057 100.219 295.718 100.048 296.465 100.048C297.542 100.048 298.39 100.395 299.009 101.088C299.627 101.771 299.937 102.715 299.937 103.92V104.464H294.209C294.326 106.085 295.185 106.896 296.785 106.896C297.233 106.896 297.67 106.827 298.097 106.688C298.534 106.549 298.945 106.32 299.329 106L299.809 107.12C299.457 107.44 299.003 107.691 298.449 107.872C297.894 108.053 297.334 108.144 296.769 108.144ZM296.529 101.184C295.857 101.184 295.323 101.392 294.929 101.808C294.534 102.224 294.294 102.779 294.209 103.472H298.577C298.545 102.747 298.353 102.187 298.001 101.792C297.649 101.387 297.158 101.184 296.529 101.184Z" fill="#3A31D8"/>
<path d="M334.923 292.349V292.351C334.923 296.038 331.943 299 328.187 299H243.736C239.98 299 237 296.038 237 292.351V239.333H334.999L334.923 292.349Z" fill="#F2F2F3" stroke="#333638" stroke-width="2"/>
<path d="M334.923 227.655V227.649C334.923 223.962 331.943 221 328.187 221H243.736C239.98 221 237 223.962 237 227.649V240.667H334.994L334.923 227.655Z" fill="#F2F2F3" stroke="#333638" stroke-width="2"/>
<ellipse cx="249.559" cy="230.833" rx="2.54237" ry="2.5" fill="#333638"/>
<ellipse cx="259.729" cy="230.833" rx="2.54237" ry="2.5" fill="#333638"/>
<ellipse cx="269.898" cy="230.833" rx="2.54238" ry="2.5" fill="#333638"/>
<path opacity="0.5" d="M334.923 292.349V292.351C334.923 296.038 331.943 299 328.187 299H243.736C239.98 299 237 296.038 237 292.351V239.333H334.999L334.923 292.349Z" fill="#F2F2F3" stroke="#333638" stroke-width="2"/>
<path d="M258.312 273V261.72H263.016C264.189 261.72 265.096 261.981 265.736 262.504C266.387 263.016 266.712 263.736 266.712 264.664C266.712 265.272 266.552 265.795 266.232 266.232C265.912 266.669 265.475 266.989 264.92 267.192C265.571 267.363 266.077 267.677 266.44 268.136C266.803 268.595 266.984 269.176 266.984 269.88C266.984 270.883 266.648 271.656 265.976 272.2C265.315 272.733 264.392 273 263.208 273H258.312ZM259.912 266.648H262.76C264.317 266.648 265.096 266.04 265.096 264.824C265.096 263.608 264.317 263 262.76 263H259.912V266.648ZM259.912 271.72H263.016C264.584 271.72 265.368 271.085 265.368 269.816C265.368 268.557 264.584 267.928 263.016 267.928H259.912V271.72ZM269.042 273V265.192H270.61V266.584C271.016 265.656 271.858 265.139 273.138 265.032L273.666 265L273.778 266.376L272.802 266.472C271.384 266.611 270.674 267.341 270.674 268.664V273H269.042ZM278.294 273.144C277.504 273.144 276.822 272.979 276.246 272.648C275.67 272.317 275.222 271.853 274.902 271.256C274.592 270.648 274.438 269.928 274.438 269.096C274.438 268.264 274.592 267.549 274.902 266.952C275.222 266.344 275.67 265.875 276.246 265.544C276.822 265.213 277.504 265.048 278.294 265.048C279.062 265.048 279.734 265.213 280.31 265.544C280.886 265.875 281.334 266.344 281.654 266.952C281.974 267.549 282.134 268.264 282.134 269.096C282.134 269.928 281.974 270.648 281.654 271.256C281.334 271.853 280.886 272.317 280.31 272.648C279.734 272.979 279.062 273.144 278.294 273.144ZM278.294 271.896C278.955 271.896 279.488 271.656 279.894 271.176C280.299 270.696 280.502 270.003 280.502 269.096C280.502 268.189 280.299 267.501 279.894 267.032C279.488 266.552 278.955 266.312 278.294 266.312C277.622 266.312 277.083 266.552 276.678 267.032C276.272 267.501 276.07 268.189 276.07 269.096C276.07 270.003 276.272 270.696 276.678 271.176C277.083 271.656 277.622 271.896 278.294 271.896ZM285.92 273L282.944 265.192H284.608L286.704 271.112L288.864 265.192H290.112L292.24 271.144L294.368 265.192H295.952L292.976 273H291.504L289.44 267.416L287.392 273H285.92ZM299.919 273.144C299.279 273.144 298.682 273.064 298.127 272.904C297.572 272.733 297.108 272.499 296.735 272.2L297.199 271.112C297.594 271.389 298.026 271.603 298.495 271.752C298.975 271.901 299.455 271.976 299.935 271.976C300.5 271.976 300.927 271.875 301.215 271.672C301.503 271.469 301.647 271.197 301.647 270.856C301.647 270.579 301.551 270.365 301.359 270.216C301.167 270.056 300.879 269.933 300.495 269.848L298.975 269.544C297.631 269.267 296.959 268.573 296.959 267.464C296.959 266.728 297.252 266.141 297.839 265.704C298.426 265.267 299.194 265.048 300.143 265.048C300.687 265.048 301.204 265.128 301.695 265.288C302.196 265.448 302.612 265.688 302.943 266.008L302.479 267.096C302.159 266.819 301.791 266.605 301.375 266.456C300.959 266.307 300.548 266.232 300.143 266.232C299.588 266.232 299.167 266.339 298.879 266.552C298.591 266.755 298.447 267.032 298.447 267.384C298.447 267.917 298.799 268.259 299.503 268.408L301.023 268.712C301.716 268.851 302.239 269.085 302.591 269.416C302.954 269.747 303.135 270.195 303.135 270.76C303.135 271.507 302.842 272.093 302.255 272.52C301.668 272.936 300.89 273.144 299.919 273.144ZM308.597 273.144C307.317 273.144 306.309 272.787 305.573 272.072C304.837 271.347 304.469 270.36 304.469 269.112C304.469 268.312 304.629 267.608 304.949 267C305.28 266.381 305.733 265.901 306.309 265.56C306.885 265.219 307.546 265.048 308.293 265.048C309.37 265.048 310.218 265.395 310.837 266.088C311.456 266.771 311.765 267.715 311.765 268.92V269.464H306.037C306.154 271.085 307.013 271.896 308.613 271.896C309.061 271.896 309.498 271.827 309.925 271.688C310.362 271.549 310.773 271.32 311.157 271L311.637 272.12C311.285 272.44 310.832 272.691 310.277 272.872C309.722 273.053 309.162 273.144 308.597 273.144ZM308.357 266.184C307.685 266.184 307.152 266.392 306.757 266.808C306.362 267.224 306.122 267.779 306.037 268.472H310.405C310.373 267.747 310.181 267.187 309.829 266.792C309.477 266.387 308.986 266.184 308.357 266.184Z" fill="#3A31D8"/>
<path d="M334.923 472.349V472.351C334.923 476.038 331.943 479 328.187 479H243.736C239.98 479 237 476.038 237 472.351V419.333H334.999L334.923 472.349Z" fill="#F2F2F3" stroke="#333638" stroke-width="2"/>
<path d="M334.923 407.655V407.649C334.923 403.962 331.943 401 328.187 401H243.736C239.98 401 237 403.962 237 407.649V420.667H334.994L334.923 407.655Z" fill="#F2F2F3" stroke="#333638" stroke-width="2"/>
<ellipse cx="249.559" cy="410.833" rx="2.54237" ry="2.5" fill="#333638"/>
<ellipse cx="259.729" cy="410.833" rx="2.54237" ry="2.5" fill="#333638"/>
<ellipse cx="269.898" cy="410.833" rx="2.54238" ry="2.5" fill="#333638"/>
<path opacity="0.5" d="M334.923 472.349V472.351C334.923 476.038 331.943 479 328.187 479H243.736C239.98 479 237 476.038 237 472.351V419.333H334.999L334.923 472.349Z" fill="#F2F2F3" stroke="#333638" stroke-width="2"/>
<path d="M262.344 445V433.72H263.736L267.912 441.512L272.072 433.72H273.432V445H271.944V436.728L268.408 443.272H267.4L263.848 436.76V445H262.344ZM278.413 445.144C277.869 445.144 277.384 445.037 276.957 444.824C276.531 444.611 276.189 444.323 275.933 443.96C275.688 443.597 275.565 443.187 275.565 442.728C275.565 442.152 275.709 441.699 275.997 441.368C276.296 441.037 276.781 440.797 277.453 440.648C278.136 440.499 279.053 440.424 280.205 440.424H280.749V440.008C280.749 439.4 280.621 438.963 280.365 438.696C280.109 438.429 279.688 438.296 279.101 438.296C278.653 438.296 278.205 438.365 277.757 438.504C277.309 438.632 276.851 438.84 276.381 439.128L275.885 437.992C276.291 437.704 276.797 437.475 277.405 437.304C278.013 437.133 278.595 437.048 279.149 437.048C280.216 437.048 281.005 437.304 281.517 437.816C282.029 438.317 282.285 439.107 282.285 440.184V445H280.765V443.704C280.573 444.152 280.275 444.504 279.869 444.76C279.464 445.016 278.979 445.144 278.413 445.144ZM278.733 443.992C279.309 443.992 279.789 443.789 280.173 443.384C280.557 442.979 280.749 442.467 280.749 441.848V441.416H280.221C279.443 441.416 278.829 441.453 278.381 441.528C277.944 441.603 277.629 441.731 277.437 441.912C277.256 442.083 277.165 442.323 277.165 442.632C277.165 443.037 277.304 443.368 277.581 443.624C277.859 443.869 278.243 443.992 278.733 443.992ZM284.511 445V433.72H286.127V440.6H286.159L289.551 437.192H291.551L287.807 440.952L291.839 445H289.823L286.159 441.432H286.127V445H284.511ZM296.253 445.144C294.973 445.144 293.965 444.787 293.229 444.072C292.493 443.347 292.125 442.36 292.125 441.112C292.125 440.312 292.285 439.608 292.605 439C292.936 438.381 293.389 437.901 293.965 437.56C294.541 437.219 295.202 437.048 295.949 437.048C297.026 437.048 297.874 437.395 298.493 438.088C299.112 438.771 299.421 439.715 299.421 440.92V441.464H293.693C293.81 443.085 294.669 443.896 296.269 443.896C296.717 443.896 297.154 443.827 297.581 443.688C298.018 443.549 298.429 443.32 298.813 443L299.293 444.12C298.941 444.44 298.488 444.691 297.933 444.872C297.378 445.053 296.818 445.144 296.253 445.144ZM296.013 438.184C295.341 438.184 294.808 438.392 294.413 438.808C294.018 439.224 293.778 439.779 293.693 440.472H298.061C298.029 439.747 297.837 439.187 297.485 438.792C297.133 438.387 296.642 438.184 296.013 438.184ZM301.183 445V437.192H302.751V438.584C303.156 437.656 303.999 437.139 305.279 437.032L305.807 437L305.919 438.376L304.943 438.472C303.524 438.611 302.815 439.341 302.815 440.664V445H301.183ZM266.072 467.144C265.187 467.144 264.376 467.032 263.64 466.808C262.904 466.573 262.28 466.248 261.768 465.832L262.296 464.52C262.829 464.925 263.4 465.229 264.008 465.432C264.616 465.635 265.304 465.736 266.072 465.736C266.979 465.736 267.645 465.576 268.072 465.256C268.509 464.925 268.728 464.499 268.728 463.976C268.728 463.549 268.573 463.213 268.264 462.968C267.955 462.712 267.437 462.509 266.712 462.36L265 462.008C263.987 461.795 263.229 461.443 262.728 460.952C262.237 460.461 261.992 459.8 261.992 458.968C261.992 458.296 262.168 457.704 262.52 457.192C262.883 456.68 263.384 456.285 264.024 456.008C264.664 455.72 265.4 455.576 266.232 455.576C267 455.576 267.709 455.693 268.36 455.928C269.021 456.152 269.581 456.483 270.04 456.92L269.496 458.184C268.589 457.384 267.496 456.984 266.216 456.984C265.427 456.984 264.797 457.16 264.328 457.512C263.869 457.864 263.64 458.333 263.64 458.92C263.64 459.368 263.784 459.725 264.072 459.992C264.36 460.259 264.84 460.461 265.512 460.6L267.208 460.952C268.275 461.176 269.069 461.523 269.592 461.992C270.115 462.451 270.376 463.075 270.376 463.864C270.376 464.525 270.2 465.101 269.848 465.592C269.496 466.083 269 466.467 268.36 466.744C267.72 467.011 266.957 467.144 266.072 467.144ZM272.089 469.88V459.192H273.673V460.52C273.897 460.072 274.238 459.715 274.697 459.448C275.156 459.181 275.684 459.048 276.281 459.048C276.974 459.048 277.577 459.213 278.089 459.544C278.612 459.875 279.012 460.344 279.289 460.952C279.577 461.549 279.721 462.264 279.721 463.096C279.721 463.928 279.577 464.648 279.289 465.256C279.012 465.864 278.612 466.333 278.089 466.664C277.577 466.984 276.974 467.144 276.281 467.144C275.705 467.144 275.188 467.021 274.729 466.776C274.281 466.52 273.94 466.173 273.705 465.736V469.88H272.089ZM275.881 465.896C276.553 465.896 277.086 465.656 277.481 465.176C277.886 464.696 278.089 464.003 278.089 463.096C278.089 462.189 277.886 461.501 277.481 461.032C277.086 460.552 276.553 460.312 275.881 460.312C275.209 460.312 274.67 460.552 274.265 461.032C273.87 461.501 273.673 462.189 273.673 463.096C273.673 464.003 273.87 464.696 274.265 465.176C274.67 465.656 275.209 465.896 275.881 465.896ZM284.038 467.144C283.494 467.144 283.009 467.037 282.582 466.824C282.156 466.611 281.814 466.323 281.558 465.96C281.313 465.597 281.19 465.187 281.19 464.728C281.19 464.152 281.334 463.699 281.622 463.368C281.921 463.037 282.406 462.797 283.078 462.648C283.761 462.499 284.678 462.424 285.83 462.424H286.374V462.008C286.374 461.4 286.246 460.963 285.99 460.696C285.734 460.429 285.313 460.296 284.726 460.296C284.278 460.296 283.83 460.365 283.382 460.504C282.934 460.632 282.476 460.84 282.006 461.128L281.51 459.992C281.916 459.704 282.422 459.475 283.03 459.304C283.638 459.133 284.22 459.048 284.774 459.048C285.841 459.048 286.63 459.304 287.142 459.816C287.654 460.317 287.91 461.107 287.91 462.184V467H286.39V465.704C286.198 466.152 285.9 466.504 285.494 466.76C285.089 467.016 284.604 467.144 284.038 467.144ZM284.358 465.992C284.934 465.992 285.414 465.789 285.798 465.384C286.182 464.979 286.374 464.467 286.374 463.848V463.416H285.846C285.068 463.416 284.454 463.453 284.006 463.528C283.569 463.603 283.254 463.731 283.062 463.912C282.881 464.083 282.79 464.323 282.79 464.632C282.79 465.037 282.929 465.368 283.206 465.624C283.484 465.869 283.868 465.992 284.358 465.992ZM293.576 467.144C292.776 467.144 292.083 466.979 291.496 466.648C290.92 466.307 290.472 465.832 290.152 465.224C289.832 464.605 289.672 463.88 289.672 463.048C289.672 461.811 290.024 460.835 290.728 460.12C291.432 459.405 292.381 459.048 293.576 459.048C294.067 459.048 294.552 459.133 295.032 459.304C295.512 459.475 295.907 459.709 296.216 460.008L295.704 461.144C295.405 460.867 295.075 460.664 294.712 460.536C294.36 460.397 294.024 460.328 293.704 460.328C292.947 460.328 292.36 460.568 291.944 461.048C291.539 461.517 291.336 462.189 291.336 463.064C291.336 463.939 291.539 464.627 291.944 465.128C292.36 465.619 292.947 465.864 293.704 465.864C294.024 465.864 294.36 465.8 294.712 465.672C295.075 465.533 295.405 465.325 295.704 465.048L296.216 466.2C295.907 466.488 295.507 466.717 295.016 466.888C294.536 467.059 294.056 467.144 293.576 467.144ZM301.113 467.144C299.833 467.144 298.825 466.787 298.089 466.072C297.353 465.347 296.985 464.36 296.985 463.112C296.985 462.312 297.145 461.608 297.465 461C297.795 460.381 298.249 459.901 298.825 459.56C299.401 459.219 300.062 459.048 300.809 459.048C301.886 459.048 302.734 459.395 303.353 460.088C303.971 460.771 304.281 461.715 304.281 462.92V463.464H298.553C298.67 465.085 299.529 465.896 301.129 465.896C301.577 465.896 302.014 465.827 302.441 465.688C302.878 465.549 303.289 465.32 303.673 465L304.153 466.12C303.801 466.44 303.347 466.691 302.793 466.872C302.238 467.053 301.678 467.144 301.113 467.144ZM300.873 460.184C300.201 460.184 299.667 460.392 299.273 460.808C298.878 461.224 298.638 461.779 298.553 462.472H302.921C302.889 461.747 302.697 461.187 302.345 460.792C301.993 460.387 301.502 460.184 300.873 460.184Z" fill="#3A31D8"/>
<path d="M216.923 292.349V292.351C216.923 296.038 213.943 299 210.187 299H125.736C121.98 299 119 296.038 119 292.351V239.333H216.999L216.923 292.349Z" fill="#F2F2F3" stroke="#333638" stroke-width="2"/>
<path d="M216.923 227.655V227.649C216.923 223.962 213.943 221 210.187 221H125.736C121.98 221 119 223.962 119 227.649V240.667H216.994L216.923 227.655Z" fill="#F2F2F3" stroke="#333638" stroke-width="2"/>
<ellipse cx="131.559" cy="230.833" rx="2.54237" ry="2.5" fill="#333638"/>
<ellipse cx="141.729" cy="230.833" rx="2.54237" ry="2.5" fill="#333638"/>
<ellipse cx="151.898" cy="230.833" rx="2.54238" ry="2.5" fill="#333638"/>
<path opacity="0.5" d="M216.923 292.349V292.351C216.923 296.038 213.943 299 210.187 299H125.736C121.98 299 119 296.038 119 292.351V239.333H216.999L216.923 292.349Z" fill="#F2F2F3" stroke="#333638" stroke-width="2"/>
<path d="M135.312 273V261.72H140.016C141.189 261.72 142.096 261.981 142.736 262.504C143.387 263.016 143.712 263.736 143.712 264.664C143.712 265.272 143.552 265.795 143.232 266.232C142.912 266.669 142.475 266.989 141.92 267.192C142.571 267.363 143.077 267.677 143.44 268.136C143.803 268.595 143.984 269.176 143.984 269.88C143.984 270.883 143.648 271.656 142.976 272.2C142.315 272.733 141.392 273 140.208 273H135.312ZM136.912 266.648H139.76C141.317 266.648 142.096 266.04 142.096 264.824C142.096 263.608 141.317 263 139.76 263H136.912V266.648ZM136.912 271.72H140.016C141.584 271.72 142.368 271.085 142.368 269.816C142.368 268.557 141.584 267.928 140.016 267.928H136.912V271.72ZM149.434 273.144C148.645 273.144 147.962 272.979 147.386 272.648C146.81 272.317 146.362 271.853 146.042 271.256C145.733 270.648 145.578 269.928 145.578 269.096C145.578 268.264 145.733 267.549 146.042 266.952C146.362 266.344 146.81 265.875 147.386 265.544C147.962 265.213 148.645 265.048 149.434 265.048C150.202 265.048 150.874 265.213 151.45 265.544C152.026 265.875 152.474 266.344 152.794 266.952C153.114 267.549 153.274 268.264 153.274 269.096C153.274 269.928 153.114 270.648 152.794 271.256C152.474 271.853 152.026 272.317 151.45 272.648C150.874 272.979 150.202 273.144 149.434 273.144ZM149.434 271.896C150.096 271.896 150.629 271.656 151.034 271.176C151.44 270.696 151.642 270.003 151.642 269.096C151.642 268.189 151.44 267.501 151.034 267.032C150.629 266.552 150.096 266.312 149.434 266.312C148.762 266.312 148.224 266.552 147.818 267.032C147.413 267.501 147.21 268.189 147.21 269.096C147.21 270.003 147.413 270.696 147.818 271.176C148.224 271.656 148.762 271.896 149.434 271.896ZM158.481 273.144C157.692 273.144 157.009 272.979 156.433 272.648C155.857 272.317 155.409 271.853 155.089 271.256C154.78 270.648 154.625 269.928 154.625 269.096C154.625 268.264 154.78 267.549 155.089 266.952C155.409 266.344 155.857 265.875 156.433 265.544C157.009 265.213 157.692 265.048 158.481 265.048C159.249 265.048 159.921 265.213 160.497 265.544C161.073 265.875 161.521 266.344 161.841 266.952C162.161 267.549 162.321 268.264 162.321 269.096C162.321 269.928 162.161 270.648 161.841 271.256C161.521 271.853 161.073 272.317 160.497 272.648C159.921 272.979 159.249 273.144 158.481 273.144ZM158.481 271.896C159.142 271.896 159.676 271.656 160.081 271.176C160.486 270.696 160.689 270.003 160.689 269.096C160.689 268.189 160.486 267.501 160.081 267.032C159.676 266.552 159.142 266.312 158.481 266.312C157.809 266.312 157.27 266.552 156.865 267.032C156.46 267.501 156.257 268.189 156.257 269.096C156.257 270.003 156.46 270.696 156.865 271.176C157.27 271.656 157.809 271.896 158.481 271.896ZM164.136 273V261.72H165.752V268.6H165.784L169.176 265.192H171.176L167.432 268.952L171.464 273H169.448L165.784 269.432H165.752V273H164.136ZM172.242 263.384V261.704H174.13V263.384H172.242ZM172.386 273V265.192H174.002V273H172.386ZM176.277 273V265.192H177.845V266.488C178.111 266.019 178.474 265.661 178.933 265.416C179.402 265.171 179.925 265.048 180.501 265.048C182.346 265.048 183.269 266.093 183.269 268.184V273H181.653V268.28C181.653 267.608 181.519 267.117 181.253 266.808C180.997 266.499 180.591 266.344 180.037 266.344C179.386 266.344 178.863 266.552 178.469 266.968C178.085 267.373 177.893 267.912 177.893 268.584V273H176.277ZM189.031 276.024C188.327 276.024 187.671 275.939 187.063 275.768C186.455 275.608 185.917 275.352 185.447 275L185.943 273.848C186.413 274.168 186.893 274.403 187.383 274.552C187.874 274.701 188.386 274.776 188.919 274.776C190.413 274.776 191.159 274.029 191.159 272.536V271.304C190.935 271.773 190.583 272.141 190.103 272.408C189.634 272.675 189.106 272.808 188.519 272.808C187.815 272.808 187.202 272.648 186.679 272.328C186.157 271.997 185.751 271.544 185.463 270.968C185.175 270.381 185.031 269.699 185.031 268.92C185.031 268.152 185.175 267.48 185.463 266.904C185.751 266.317 186.157 265.864 186.679 265.544C187.202 265.213 187.815 265.048 188.519 265.048C189.117 265.048 189.65 265.181 190.119 265.448C190.589 265.715 190.935 266.083 191.159 266.552V265.192H192.727V272.344C192.727 273.571 192.413 274.488 191.783 275.096C191.154 275.715 190.237 276.024 189.031 276.024ZM188.903 271.544C189.586 271.544 190.13 271.309 190.535 270.84C190.941 270.371 191.143 269.731 191.143 268.92C191.143 268.109 190.941 267.475 190.535 267.016C190.13 266.547 189.586 266.312 188.903 266.312C188.221 266.312 187.677 266.547 187.271 267.016C186.866 267.475 186.663 268.109 186.663 268.92C186.663 269.731 186.866 270.371 187.271 270.84C187.677 271.309 188.221 271.544 188.903 271.544ZM197.731 273.144C197.091 273.144 196.494 273.064 195.939 272.904C195.385 272.733 194.921 272.499 194.547 272.2L195.011 271.112C195.406 271.389 195.838 271.603 196.307 271.752C196.787 271.901 197.267 271.976 197.747 271.976C198.313 271.976 198.739 271.875 199.027 271.672C199.315 271.469 199.459 271.197 199.459 270.856C199.459 270.579 199.363 270.365 199.171 270.216C198.979 270.056 198.691 269.933 198.307 269.848L196.787 269.544C195.443 269.267 194.771 268.573 194.771 267.464C194.771 266.728 195.065 266.141 195.651 265.704C196.238 265.267 197.006 265.048 197.955 265.048C198.499 265.048 199.017 265.128 199.507 265.288C200.009 265.448 200.425 265.688 200.755 266.008L200.291 267.096C199.971 266.819 199.603 266.605 199.187 266.456C198.771 266.307 198.361 266.232 197.955 266.232C197.401 266.232 196.979 266.339 196.691 266.552C196.403 266.755 196.259 267.032 196.259 267.384C196.259 267.917 196.611 268.259 197.315 268.408L198.835 268.712C199.529 268.851 200.051 269.085 200.403 269.416C200.766 269.747 200.947 270.195 200.947 270.76C200.947 271.507 200.654 272.093 200.067 272.52C199.481 272.936 198.702 273.144 197.731 273.144Z" fill="#3A31D8"/>
<path d="M98.9231 292.349V292.351C98.9231 296.038 95.9432 299 92.1871 299H7.73598C3.97986 299 1 296.038 1 292.351V239.333H98.9986L98.9231 292.349Z" fill="#F2F2F3" stroke="#333638" stroke-width="2"/>
<path d="M98.9231 227.655V227.649C98.9231 223.962 95.9432 221 92.1871 221H7.73598C3.97986 221 1 223.962 1 227.649V240.667H98.9945L98.9231 227.655Z" fill="#F2F2F3" stroke="#333638" stroke-width="2"/>
<ellipse cx="13.5593" cy="230.833" rx="2.54237" ry="2.5" fill="#333638"/>
<ellipse cx="23.7288" cy="230.833" rx="2.54237" ry="2.5" fill="#333638"/>
<ellipse cx="33.8983" cy="230.833" rx="2.54238" ry="2.5" fill="#333638"/>
<path opacity="0.5" d="M98.9231 292.349V292.351C98.9231 296.038 95.9432 299 92.1871 299H7.73598C3.97986 299 1 296.038 1 292.351V239.333H98.9986L98.9231 292.349Z" fill="#F2F2F3" stroke="#333638" stroke-width="2"/>
<path d="M27.312 273V261.72H31.984C33.2 261.72 34.1387 262.024 34.8 262.632C35.4613 263.229 35.792 264.072 35.792 265.16C35.792 266.259 35.4613 267.112 34.8 267.72C34.1387 268.317 33.2 268.616 31.984 268.616H28.976V273H27.312ZM28.976 267.288H31.744C33.3653 267.288 34.176 266.579 34.176 265.16C34.176 263.752 33.3653 263.048 31.744 263.048H28.976V267.288ZM37.2454 273V265.192H38.8134V266.584C39.2187 265.656 40.0614 265.139 41.3414 265.032L41.8694 265L41.9814 266.376L41.0054 266.472C39.5867 266.611 38.8774 267.341 38.8774 268.664V273H37.2454ZM46.4968 273.144C45.7074 273.144 45.0248 272.979 44.4488 272.648C43.8728 272.317 43.4248 271.853 43.1048 271.256C42.7954 270.648 42.6408 269.928 42.6408 269.096C42.6408 268.264 42.7954 267.549 43.1048 266.952C43.4248 266.344 43.8728 265.875 44.4488 265.544C45.0248 265.213 45.7074 265.048 46.4968 265.048C47.2648 265.048 47.9368 265.213 48.5128 265.544C49.0888 265.875 49.5368 266.344 49.8568 266.952C50.1768 267.549 50.3368 268.264 50.3368 269.096C50.3368 269.928 50.1768 270.648 49.8568 271.256C49.5368 271.853 49.0888 272.317 48.5128 272.648C47.9368 272.979 47.2648 273.144 46.4968 273.144ZM46.4968 271.896C47.1581 271.896 47.6914 271.656 48.0968 271.176C48.5021 270.696 48.7048 270.003 48.7048 269.096C48.7048 268.189 48.5021 267.501 48.0968 267.032C47.6914 266.552 47.1581 266.312 46.4968 266.312C45.8248 266.312 45.2861 266.552 44.8808 267.032C44.4754 267.501 44.2728 268.189 44.2728 269.096C44.2728 270.003 44.4754 270.696 44.8808 271.176C45.2861 271.656 45.8248 271.896 46.4968 271.896ZM52.5375 273V266.44H51.0175V265.192H52.5375V265.048C52.5375 263.971 52.8095 263.16 53.3535 262.616C53.9082 262.072 54.7562 261.768 55.8975 261.704L56.5375 261.672L56.6335 262.888L55.9775 262.92C55.3268 262.963 54.8575 263.139 54.5695 263.448C54.2922 263.757 54.1535 264.216 54.1535 264.824V265.192H59.1295V273H57.5135V266.44H54.1535V273H52.5375ZM57.3695 263.384V261.704H59.2575V263.384H57.3695ZM63.93 273.144C63.0767 273.144 62.4367 272.904 62.01 272.424C61.594 271.944 61.386 271.24 61.386 270.312V261.72H63.002V270.216C63.002 271.272 63.434 271.8 64.298 271.8C64.426 271.8 64.5433 271.795 64.65 271.784C64.7673 271.773 64.8847 271.752 65.002 271.72L64.97 273.016C64.6073 273.101 64.2607 273.144 63.93 273.144ZM69.8625 273.144C68.5825 273.144 67.5745 272.787 66.8385 272.072C66.1025 271.347 65.7345 270.36 65.7345 269.112C65.7345 268.312 65.8945 267.608 66.2145 267C66.5452 266.381 66.9985 265.901 67.5745 265.56C68.1505 265.219 68.8118 265.048 69.5585 265.048C70.6358 265.048 71.4838 265.395 72.1025 266.088C72.7212 266.771 73.0305 267.715 73.0305 268.92V269.464H67.3025C67.4198 271.085 68.2785 271.896 69.8785 271.896C70.3265 271.896 70.7638 271.827 71.1905 271.688C71.6278 271.549 72.0385 271.32 72.4225 271L72.9025 272.12C72.5505 272.44 72.0972 272.691 71.5425 272.872C70.9878 273.053 70.4278 273.144 69.8625 273.144ZM69.6225 266.184C68.9505 266.184 68.4172 266.392 68.0225 266.808C67.6278 267.224 67.3878 267.779 67.3025 268.472H71.6705C71.6385 267.747 71.4465 267.187 71.0945 266.792C70.7425 266.387 70.2518 266.184 69.6225 266.184Z" fill="#3A31D8"/>
<path d="M452.923 292.349V292.351C452.923 296.038 449.943 299 446.187 299H361.736C357.98 299 355 296.038 355 292.351V239.333H452.999L452.923 292.349Z" fill="#F2F2F3" stroke="#333638" stroke-width="2"/>
<path d="M452.923 227.655V227.649C452.923 223.962 449.943 221 446.187 221H361.736C357.98 221 355 223.962 355 227.649V240.667H452.994L452.923 227.655Z" fill="#F2F2F3" stroke="#333638" stroke-width="2"/>
<ellipse cx="367.559" cy="230.833" rx="2.54237" ry="2.5" fill="#333638"/>
<ellipse cx="377.729" cy="230.833" rx="2.54237" ry="2.5" fill="#333638"/>
<ellipse cx="387.898" cy="230.833" rx="2.54238" ry="2.5" fill="#333638"/>
<path opacity="0.5" d="M452.923 292.349V292.351C452.923 296.038 449.943 299 446.187 299H361.736C357.98 299 355 296.038 355 292.351V239.333H452.999L452.923 292.349Z" fill="#F2F2F3" stroke="#333638" stroke-width="2"/>
<path d="M369.176 273L374.2 261.72H375.576L380.616 273H378.92L377.736 270.248H372.024L370.856 273H369.176ZM374.872 263.56L372.616 268.904H377.176L374.904 263.56H374.872ZM386.109 273.144C385.512 273.144 384.984 273.011 384.525 272.744C384.067 272.477 383.725 272.12 383.501 271.672V273H381.917V261.72H383.533V266.456C383.768 266.029 384.109 265.688 384.557 265.432C385.016 265.176 385.533 265.048 386.109 265.048C386.803 265.048 387.405 265.213 387.917 265.544C388.44 265.875 388.84 266.344 389.117 266.952C389.405 267.549 389.549 268.264 389.549 269.096C389.549 269.928 389.405 270.648 389.117 271.256C388.84 271.864 388.44 272.333 387.917 272.664C387.405 272.984 386.803 273.144 386.109 273.144ZM385.709 271.896C386.381 271.896 386.915 271.656 387.309 271.176C387.715 270.696 387.917 270.003 387.917 269.096C387.917 268.189 387.715 267.501 387.309 267.032C386.915 266.552 386.381 266.312 385.709 266.312C385.037 266.312 384.499 266.552 384.093 267.032C383.699 267.501 383.501 268.189 383.501 269.096C383.501 270.003 383.699 270.696 384.093 271.176C384.499 271.656 385.037 271.896 385.709 271.896ZM394.762 273.144C393.973 273.144 393.29 272.979 392.714 272.648C392.138 272.317 391.69 271.853 391.37 271.256C391.061 270.648 390.906 269.928 390.906 269.096C390.906 268.264 391.061 267.549 391.37 266.952C391.69 266.344 392.138 265.875 392.714 265.544C393.29 265.213 393.973 265.048 394.762 265.048C395.53 265.048 396.202 265.213 396.778 265.544C397.354 265.875 397.802 266.344 398.122 266.952C398.442 267.549 398.602 268.264 398.602 269.096C398.602 269.928 398.442 270.648 398.122 271.256C397.802 271.853 397.354 272.317 396.778 272.648C396.202 272.979 395.53 273.144 394.762 273.144ZM394.762 271.896C395.424 271.896 395.957 271.656 396.362 271.176C396.768 270.696 396.97 270.003 396.97 269.096C396.97 268.189 396.768 267.501 396.362 267.032C395.957 266.552 395.424 266.312 394.762 266.312C394.09 266.312 393.552 266.552 393.146 267.032C392.741 267.501 392.538 268.189 392.538 269.096C392.538 270.003 392.741 270.696 393.146 271.176C393.552 271.656 394.09 271.896 394.762 271.896ZM403.201 273.144C401.313 273.144 400.369 272.093 400.369 269.992V265.192H401.985V270.008C401.985 270.637 402.113 271.101 402.369 271.4C402.625 271.699 403.031 271.848 403.585 271.848C404.193 271.848 404.684 271.645 405.057 271.24C405.441 270.835 405.633 270.291 405.633 269.608V265.192H407.249V273H405.681V271.752C405.425 272.211 405.084 272.557 404.657 272.792C404.231 273.027 403.745 273.144 403.201 273.144ZM412.855 273.144C411.873 273.144 411.143 272.893 410.663 272.392C410.183 271.891 409.943 271.165 409.943 270.216V266.44H408.423V265.192H409.943V262.84H411.559V265.192H413.975V266.44H411.559V270.088C411.559 270.653 411.676 271.08 411.911 271.368C412.156 271.656 412.551 271.8 413.095 271.8C413.265 271.8 413.431 271.784 413.591 271.752C413.751 271.709 413.911 271.661 414.071 271.608L414.327 272.824C414.167 272.92 413.943 272.995 413.655 273.048C413.377 273.112 413.111 273.144 412.855 273.144ZM424.31 273.144C422.806 273.144 421.654 272.749 420.854 271.96C420.064 271.16 419.67 269.992 419.67 268.456V261.72H421.334V268.424C421.334 270.611 422.326 271.704 424.31 271.704C426.294 271.704 427.286 270.611 427.286 268.424V261.72H428.918V268.456C428.918 269.992 428.528 271.16 427.75 271.96C426.971 272.749 425.824 273.144 424.31 273.144ZM434.044 273.144C433.404 273.144 432.807 273.064 432.252 272.904C431.697 272.733 431.233 272.499 430.86 272.2L431.324 271.112C431.719 271.389 432.151 271.603 432.62 271.752C433.1 271.901 433.58 271.976 434.06 271.976C434.625 271.976 435.052 271.875 435.34 271.672C435.628 271.469 435.772 271.197 435.772 270.856C435.772 270.579 435.676 270.365 435.484 270.216C435.292 270.056 435.004 269.933 434.62 269.848L433.1 269.544C431.756 269.267 431.084 268.573 431.084 267.464C431.084 266.728 431.377 266.141 431.964 265.704C432.551 265.267 433.319 265.048 434.268 265.048C434.812 265.048 435.329 265.128 435.82 265.288C436.321 265.448 436.737 265.688 437.068 266.008L436.604 267.096C436.284 266.819 435.916 266.605 435.5 266.456C435.084 266.307 434.673 266.232 434.268 266.232C433.713 266.232 433.292 266.339 433.004 266.552C432.716 266.755 432.572 267.032 432.572 267.384C432.572 267.917 432.924 268.259 433.628 268.408L435.148 268.712C435.841 268.851 436.364 269.085 436.716 269.416C437.079 269.747 437.26 270.195 437.26 270.76C437.26 271.507 436.967 272.093 436.38 272.52C435.793 272.936 435.015 273.144 434.044 273.144Z" fill="#3A31D8"/>
<path d="M569.923 292.349V292.351C569.923 296.038 566.943 299 563.187 299H478.736C474.98 299 472 296.038 472 292.351V239.333H569.999L569.923 292.349Z" fill="#F2F2F3" stroke="#333638" stroke-width="2"/>
<path d="M569.923 227.655V227.649C569.923 223.962 566.943 221 563.187 221H478.736C474.98 221 472 223.962 472 227.649V240.667H569.994L569.923 227.655Z" fill="#F2F2F3" stroke="#333638" stroke-width="2"/>
<ellipse cx="484.559" cy="230.833" rx="2.54237" ry="2.5" fill="#333638"/>
<ellipse cx="494.729" cy="230.833" rx="2.54237" ry="2.5" fill="#333638"/>
<ellipse cx="504.898" cy="230.833" rx="2.54238" ry="2.5" fill="#333638"/>
<path opacity="0.5" d="M569.923 292.349V292.351C569.923 296.038 566.943 299 563.187 299H478.736C474.98 299 472 296.038 472 292.351V239.333H569.999L569.923 292.349Z" fill="#F2F2F3" stroke="#333638" stroke-width="2"/>
<path d="M487.368 273.144C486.227 273.144 485.251 272.909 484.44 272.44C483.629 271.971 483.005 271.304 482.568 270.44C482.141 269.565 481.928 268.536 481.928 267.352C481.928 266.168 482.141 265.144 482.568 264.28C483.005 263.416 483.629 262.749 484.44 262.28C485.251 261.811 486.227 261.576 487.368 261.576C488.136 261.576 488.851 261.699 489.512 261.944C490.184 262.179 490.744 262.52 491.192 262.968L490.616 264.296C490.125 263.859 489.619 263.544 489.096 263.352C488.584 263.149 488.024 263.048 487.416 263.048C486.2 263.048 485.272 263.421 484.632 264.168C483.992 264.915 483.672 265.976 483.672 267.352C483.672 268.728 483.992 269.795 484.632 270.552C485.272 271.299 486.2 271.672 487.416 271.672C488.024 271.672 488.584 271.576 489.096 271.384C489.619 271.181 490.125 270.861 490.616 270.424L491.192 271.752C490.744 272.189 490.184 272.531 489.512 272.776C488.851 273.021 488.136 273.144 487.368 273.144ZM495.778 273.144C494.989 273.144 494.306 272.979 493.73 272.648C493.154 272.317 492.706 271.853 492.386 271.256C492.077 270.648 491.922 269.928 491.922 269.096C491.922 268.264 492.077 267.549 492.386 266.952C492.706 266.344 493.154 265.875 493.73 265.544C494.306 265.213 494.989 265.048 495.778 265.048C496.546 265.048 497.218 265.213 497.794 265.544C498.37 265.875 498.818 266.344 499.138 266.952C499.458 267.549 499.618 268.264 499.618 269.096C499.618 269.928 499.458 270.648 499.138 271.256C498.818 271.853 498.37 272.317 497.794 272.648C497.218 272.979 496.546 273.144 495.778 273.144ZM495.778 271.896C496.439 271.896 496.973 271.656 497.378 271.176C497.783 270.696 497.986 270.003 497.986 269.096C497.986 268.189 497.783 267.501 497.378 267.032C496.973 266.552 496.439 266.312 495.778 266.312C495.106 266.312 494.567 266.552 494.162 267.032C493.757 267.501 493.554 268.189 493.554 269.096C493.554 270.003 493.757 270.696 494.162 271.176C494.567 271.656 495.106 271.896 495.778 271.896ZM501.433 273V265.192H503.001V266.488C503.268 266.019 503.63 265.661 504.089 265.416C504.558 265.171 505.081 265.048 505.657 265.048C507.502 265.048 508.425 266.093 508.425 268.184V273H506.809V268.28C506.809 267.608 506.676 267.117 506.409 266.808C506.153 266.499 505.748 266.344 505.193 266.344C504.542 266.344 504.02 266.552 503.625 266.968C503.241 267.373 503.049 267.912 503.049 268.584V273H501.433ZM513.98 273.144C512.998 273.144 512.268 272.893 511.788 272.392C511.308 271.891 511.068 271.165 511.068 270.216V266.44H509.548V265.192H511.068V262.84H512.684V265.192H515.1V266.44H512.684V270.088C512.684 270.653 512.801 271.08 513.036 271.368C513.281 271.656 513.676 271.8 514.22 271.8C514.39 271.8 514.556 271.784 514.716 271.752C514.876 271.709 515.036 271.661 515.196 271.608L515.452 272.824C515.292 272.92 515.068 272.995 514.78 273.048C514.502 273.112 514.236 273.144 513.98 273.144ZM518.991 273.144C518.447 273.144 517.962 273.037 517.535 272.824C517.109 272.611 516.767 272.323 516.511 271.96C516.266 271.597 516.143 271.187 516.143 270.728C516.143 270.152 516.287 269.699 516.575 269.368C516.874 269.037 517.359 268.797 518.031 268.648C518.714 268.499 519.631 268.424 520.783 268.424H521.327V268.008C521.327 267.4 521.199 266.963 520.943 266.696C520.687 266.429 520.266 266.296 519.679 266.296C519.231 266.296 518.783 266.365 518.335 266.504C517.887 266.632 517.429 266.84 516.959 267.128L516.463 265.992C516.869 265.704 517.375 265.475 517.983 265.304C518.591 265.133 519.173 265.048 519.727 265.048C520.794 265.048 521.583 265.304 522.095 265.816C522.607 266.317 522.863 267.107 522.863 268.184V273H521.343V271.704C521.151 272.152 520.853 272.504 520.447 272.76C520.042 273.016 519.557 273.144 518.991 273.144ZM519.311 271.992C519.887 271.992 520.367 271.789 520.751 271.384C521.135 270.979 521.327 270.467 521.327 269.848V269.416H520.799C520.021 269.416 519.407 269.453 518.959 269.528C518.522 269.603 518.207 269.731 518.015 269.912C517.834 270.083 517.743 270.323 517.743 270.632C517.743 271.037 517.882 271.368 518.159 271.624C518.437 271.869 518.821 271.992 519.311 271.992ZM528.529 273.144C527.729 273.144 527.036 272.979 526.449 272.648C525.873 272.307 525.425 271.832 525.105 271.224C524.785 270.605 524.625 269.88 524.625 269.048C524.625 267.811 524.977 266.835 525.681 266.12C526.385 265.405 527.334 265.048 528.529 265.048C529.02 265.048 529.505 265.133 529.985 265.304C530.465 265.475 530.86 265.709 531.169 266.008L530.657 267.144C530.358 266.867 530.028 266.664 529.665 266.536C529.313 266.397 528.977 266.328 528.657 266.328C527.9 266.328 527.313 266.568 526.897 267.048C526.492 267.517 526.289 268.189 526.289 269.064C526.289 269.939 526.492 270.627 526.897 271.128C527.313 271.619 527.9 271.864 528.657 271.864C528.977 271.864 529.313 271.8 529.665 271.672C530.028 271.533 530.358 271.325 530.657 271.048L531.169 272.2C530.86 272.488 530.46 272.717 529.969 272.888C529.489 273.059 529.009 273.144 528.529 273.144ZM535.902 273.144C534.92 273.144 534.19 272.893 533.71 272.392C533.23 271.891 532.99 271.165 532.99 270.216V266.44H531.47V265.192H532.99V262.84H534.606V265.192H537.022V266.44H534.606V270.088C534.606 270.653 534.723 271.08 534.958 271.368C535.203 271.656 535.598 271.8 536.141 271.8C536.312 271.8 536.478 271.784 536.638 271.752C536.798 271.709 536.958 271.661 537.118 271.608L537.374 272.824C537.214 272.92 536.99 272.995 536.702 273.048C536.424 273.112 536.158 273.144 535.902 273.144ZM547.356 273.144C545.852 273.144 544.7 272.749 543.9 271.96C543.111 271.16 542.716 269.992 542.716 268.456V261.72H544.38V268.424C544.38 270.611 545.372 271.704 547.356 271.704C549.34 271.704 550.332 270.611 550.332 268.424V261.72H551.964V268.456C551.964 269.992 551.575 271.16 550.796 271.96C550.018 272.749 548.871 273.144 547.356 273.144ZM557.091 273.144C556.451 273.144 555.853 273.064 555.299 272.904C554.744 272.733 554.28 272.499 553.907 272.2L554.371 271.112C554.765 271.389 555.197 271.603 555.667 271.752C556.147 271.901 556.627 271.976 557.107 271.976C557.672 271.976 558.099 271.875 558.387 271.672C558.675 271.469 558.819 271.197 558.819 270.856C558.819 270.579 558.723 270.365 558.531 270.216C558.339 270.056 558.051 269.933 557.667 269.848L556.147 269.544C554.803 269.267 554.131 268.573 554.131 267.464C554.131 266.728 554.424 266.141 555.011 265.704C555.597 265.267 556.365 265.048 557.315 265.048C557.859 265.048 558.376 265.128 558.867 265.288C559.368 265.448 559.784 265.688 560.115 266.008L559.651 267.096C559.331 266.819 558.963 266.605 558.547 266.456C558.131 266.307 557.72 266.232 557.315 266.232C556.76 266.232 556.339 266.339 556.051 266.552C555.763 266.755 555.619 267.032 555.619 267.384C555.619 267.917 555.971 268.259 556.675 268.408L558.195 268.712C558.888 268.851 559.411 269.085 559.763 269.416C560.125 269.747 560.307 270.195 560.307 270.76C560.307 271.507 560.013 272.093 559.427 272.52C558.84 272.936 558.061 273.144 557.091 273.144Z" fill="#3A31D8"/>
<path d="M130.923 72.3493V72.3508C130.923 76.0376 127.943 79.0002 124.187 79.0002H39.736C35.9799 79.0002 33 76.0376 33 72.3508V19.3335H130.999L130.923 72.3493Z" fill="#F2F2F3" stroke="#333638" stroke-width="2"/>
<path d="M130.923 7.65473V7.64924C130.923 3.96244 127.943 0.999838 124.187 0.999838H39.736C35.9799 0.999838 33 3.96244 33 7.64924V20.6665H130.994L130.923 7.65473Z" fill="#F2F2F3" stroke="#333638" stroke-width="2"/>
<ellipse cx="45.5593" cy="10.8335" rx="2.54237" ry="2.5" fill="#333638"/>
<ellipse cx="55.7288" cy="10.8335" rx="2.54237" ry="2.5" fill="#333638"/>
<ellipse cx="65.8983" cy="10.8335" rx="2.54238" ry="2.5" fill="#333638"/>
<path opacity="0.5" d="M130.923 72.3493V72.3508C130.923 76.0376 127.943 79.0002 124.187 79.0002H39.736C35.9799 79.0002 33 76.0376 33 72.3508V19.3335H130.999L130.923 72.3493Z" fill="#F2F2F3" stroke="#333638" stroke-width="2"/>
<path d="M62.312 52V40.72H63.976V50.576H69.56V52H62.312ZM74.278 52.144C73.4887 52.144 72.806 51.9787 72.23 51.648C71.654 51.3173 71.206 50.8533 70.886 50.256C70.5767 49.648 70.422 48.928 70.422 48.096C70.422 47.264 70.5767 46.5493 70.886 45.952C71.206 45.344 71.654 44.8747 72.23 44.544C72.806 44.2133 73.4887 44.048 74.278 44.048C75.046 44.048 75.718 44.2133 76.294 44.544C76.87 44.8747 77.318 45.344 77.638 45.952C77.958 46.5493 78.118 47.264 78.118 48.096C78.118 48.928 77.958 49.648 77.638 50.256C77.318 50.8533 76.87 51.3173 76.294 51.648C75.718 51.9787 75.046 52.144 74.278 52.144ZM74.278 50.896C74.9393 50.896 75.4727 50.656 75.878 50.176C76.2833 49.696 76.486 49.0027 76.486 48.096C76.486 47.1893 76.2833 46.5013 75.878 46.032C75.4727 45.552 74.9393 45.312 74.278 45.312C73.606 45.312 73.0673 45.552 72.662 46.032C72.2567 46.5013 72.054 47.1893 72.054 48.096C72.054 49.0027 72.2567 49.696 72.662 50.176C73.0673 50.656 73.606 50.896 74.278 50.896ZM83.4689 55.024C82.7649 55.024 82.1089 54.9387 81.5009 54.768C80.8929 54.608 80.3542 54.352 79.8849 54L80.3809 52.848C80.8502 53.168 81.3302 53.4027 81.8209 53.552C82.3115 53.7013 82.8235 53.776 83.3569 53.776C84.8502 53.776 85.5969 53.0293 85.5969 51.536V50.304C85.3729 50.7733 85.0209 51.1413 84.5409 51.408C84.0715 51.6747 83.5435 51.808 82.9569 51.808C82.2529 51.808 81.6395 51.648 81.1169 51.328C80.5942 50.9973 80.1889 50.544 79.9009 49.968C79.6129 49.3813 79.4689 48.6987 79.4689 47.92C79.4689 47.152 79.6129 46.48 79.9009 45.904C80.1889 45.3173 80.5942 44.864 81.1169 44.544C81.6395 44.2133 82.2529 44.048 82.9569 44.048C83.5542 44.048 84.0875 44.1813 84.5569 44.448C85.0262 44.7147 85.3729 45.0827 85.5969 45.552V44.192H87.1649V51.344C87.1649 52.5707 86.8502 53.488 86.2209 54.096C85.5915 54.7147 84.6742 55.024 83.4689 55.024ZM83.3409 50.544C84.0235 50.544 84.5675 50.3093 84.9729 49.84C85.3782 49.3707 85.5809 48.7307 85.5809 47.92C85.5809 47.1093 85.3782 46.4747 84.9729 46.016C84.5675 45.5467 84.0235 45.312 83.3409 45.312C82.6582 45.312 82.1142 45.5467 81.7089 46.016C81.3035 46.4747 81.1009 47.1093 81.1009 47.92C81.1009 48.7307 81.3035 49.3707 81.7089 49.84C82.1142 50.3093 82.6582 50.544 83.3409 50.544ZM89.2889 42.384V40.704H91.1769V42.384H89.2889ZM89.4329 52V44.192H91.0489V52H89.4329ZM93.3235 52V44.192H94.8915V45.488C95.1582 45.0187 95.5208 44.6613 95.9795 44.416C96.4488 44.1707 96.9715 44.048 97.5475 44.048C99.3928 44.048 100.316 45.0933 100.316 47.184V52H98.6995V47.28C98.6995 46.608 98.5662 46.1173 98.2995 45.808C98.0435 45.4987 97.6382 45.344 97.0835 45.344C96.4328 45.344 95.9102 45.552 95.5155 45.968C95.1315 46.3733 94.9395 46.912 94.9395 47.584V52H93.3235Z" fill="#3A31D8"/>
<path d="M538.923 72.3493V72.3508C538.923 76.0376 535.943 79.0002 532.187 79.0002H447.736C443.98 79.0002 441 76.0376 441 72.3508V19.3335H538.999L538.923 72.3493Z" fill="#F2F2F3" stroke="#333638" stroke-width="2"/>
<path d="M538.923 7.65473V7.64924C538.923 3.96244 535.943 0.999838 532.187 0.999838H447.736C443.98 0.999838 441 3.96244 441 7.64924V20.6665H538.994L538.923 7.65473Z" fill="#F2F2F3" stroke="#333638" stroke-width="2"/>
<ellipse cx="453.559" cy="10.8335" rx="2.54237" ry="2.5" fill="#333638"/>
<ellipse cx="463.729" cy="10.8335" rx="2.54237" ry="2.5" fill="#333638"/>
<ellipse cx="473.898" cy="10.8335" rx="2.54238" ry="2.5" fill="#333638"/>
<path opacity="0.5" d="M538.923 72.3493V72.3508C538.923 76.0376 535.943 79.0002 532.187 79.0002H447.736C443.98 79.0002 441 76.0376 441 72.3508V19.3335H538.999L538.923 72.3493Z" fill="#F2F2F3" stroke="#333638" stroke-width="2"/>
<path d="M460.312 52V40.72H464.984C466.2 40.72 467.139 41.0133 467.8 41.6C468.461 42.176 468.792 42.9867 468.792 44.032C468.792 44.8747 468.568 45.568 468.12 46.112C467.672 46.6453 467.037 47.0027 466.216 47.184C466.728 47.3547 467.16 47.7653 467.512 48.416L469.464 52H467.64L465.688 48.4C465.464 47.984 465.203 47.7067 464.904 47.568C464.616 47.4187 464.243 47.344 463.784 47.344H461.976V52H460.312ZM461.976 46.096H464.712C466.355 46.096 467.176 45.4187 467.176 44.064C467.176 42.72 466.355 42.048 464.712 42.048H461.976V46.096ZM474.441 52.144C473.161 52.144 472.153 51.7867 471.417 51.072C470.681 50.3467 470.313 49.36 470.313 48.112C470.313 47.312 470.473 46.608 470.793 46C471.123 45.3813 471.577 44.9013 472.153 44.56C472.729 44.2187 473.39 44.048 474.137 44.048C475.214 44.048 476.062 44.3947 476.681 45.088C477.299 45.7707 477.609 46.7147 477.609 47.92V48.464H471.881C471.998 50.0853 472.857 50.896 474.457 50.896C474.905 50.896 475.342 50.8267 475.769 50.688C476.206 50.5493 476.617 50.32 477.001 50L477.481 51.12C477.129 51.44 476.675 51.6907 476.121 51.872C475.566 52.0533 475.006 52.144 474.441 52.144ZM474.201 45.184C473.529 45.184 472.995 45.392 472.601 45.808C472.206 46.224 471.966 46.7787 471.881 47.472H476.249C476.217 46.7467 476.025 46.1867 475.673 45.792C475.321 45.3867 474.83 45.184 474.201 45.184ZM482.906 55.024C482.202 55.024 481.546 54.9387 480.938 54.768C480.33 54.608 479.792 54.352 479.322 54L479.818 52.848C480.288 53.168 480.768 53.4027 481.258 53.552C481.749 53.7013 482.261 53.776 482.794 53.776C484.288 53.776 485.034 53.0293 485.034 51.536V50.304C484.81 50.7733 484.458 51.1413 483.978 51.408C483.509 51.6747 482.981 51.808 482.394 51.808C481.69 51.808 481.077 51.648 480.554 51.328C480.032 50.9973 479.626 50.544 479.338 49.968C479.05 49.3813 478.906 48.6987 478.906 47.92C478.906 47.152 479.05 46.48 479.338 45.904C479.626 45.3173 480.032 44.864 480.554 44.544C481.077 44.2133 481.69 44.048 482.394 44.048C482.992 44.048 483.525 44.1813 483.994 44.448C484.464 44.7147 484.81 45.0827 485.034 45.552V44.192H486.602V51.344C486.602 52.5707 486.288 53.488 485.658 54.096C485.029 54.7147 484.112 55.024 482.906 55.024ZM482.778 50.544C483.461 50.544 484.005 50.3093 484.41 49.84C484.816 49.3707 485.018 48.7307 485.018 47.92C485.018 47.1093 484.816 46.4747 484.41 46.016C484.005 45.5467 483.461 45.312 482.778 45.312C482.096 45.312 481.552 45.5467 481.146 46.016C480.741 46.4747 480.538 47.1093 480.538 47.92C480.538 48.7307 480.741 49.3707 481.146 49.84C481.552 50.3093 482.096 50.544 482.778 50.544ZM488.726 42.384V40.704H490.614V42.384H488.726ZM488.87 52V44.192H490.486V52H488.87ZM495.497 52.144C494.857 52.144 494.26 52.064 493.705 51.904C493.15 51.7333 492.686 51.4987 492.313 51.2L492.777 50.112C493.172 50.3893 493.604 50.6027 494.073 50.752C494.553 50.9013 495.033 50.976 495.513 50.976C496.078 50.976 496.505 50.8747 496.793 50.672C497.081 50.4693 497.225 50.1973 497.225 49.856C497.225 49.5787 497.129 49.3653 496.937 49.216C496.745 49.056 496.457 48.9333 496.073 48.848L494.553 48.544C493.209 48.2667 492.537 47.5733 492.537 46.464C492.537 45.728 492.83 45.1413 493.417 44.704C494.004 44.2667 494.772 44.048 495.721 44.048C496.265 44.048 496.782 44.128 497.273 44.288C497.774 44.448 498.19 44.688 498.521 45.008L498.057 46.096C497.737 45.8187 497.369 45.6053 496.953 45.456C496.537 45.3067 496.126 45.232 495.721 45.232C495.166 45.232 494.745 45.3387 494.457 45.552C494.169 45.7547 494.025 46.032 494.025 46.384C494.025 46.9173 494.377 47.2587 495.081 47.408L496.601 47.712C497.294 47.8507 497.817 48.0853 498.169 48.416C498.532 48.7467 498.713 49.1947 498.713 49.76C498.713 50.5067 498.42 51.0933 497.833 51.52C497.246 51.936 496.468 52.144 495.497 52.144ZM503.761 52.144C502.78 52.144 502.049 51.8933 501.569 51.392C501.089 50.8907 500.849 50.1653 500.849 49.216V45.44H499.329V44.192H500.849V41.84H502.465V44.192H504.881V45.44H502.465V49.088C502.465 49.6533 502.582 50.08 502.817 50.368C503.062 50.656 503.457 50.8 504.001 50.8C504.172 50.8 504.337 50.784 504.497 50.752C504.657 50.7093 504.817 50.6613 504.977 50.608L505.233 51.824C505.073 51.92 504.849 51.9947 504.561 52.048C504.284 52.112 504.017 52.144 503.761 52.144ZM509.863 52.144C508.583 52.144 507.575 51.7867 506.839 51.072C506.103 50.3467 505.735 49.36 505.735 48.112C505.735 47.312 505.895 46.608 506.215 46C506.545 45.3813 506.999 44.9013 507.575 44.56C508.151 44.2187 508.812 44.048 509.559 44.048C510.636 44.048 511.484 44.3947 512.103 45.088C512.721 45.7707 513.031 46.7147 513.031 47.92V48.464H507.303C507.42 50.0853 508.279 50.896 509.879 50.896C510.327 50.896 510.764 50.8267 511.191 50.688C511.628 50.5493 512.039 50.32 512.423 50L512.903 51.12C512.551 51.44 512.097 51.6907 511.543 51.872C510.988 52.0533 510.428 52.144 509.863 52.144ZM509.623 45.184C508.951 45.184 508.417 45.392 508.023 45.808C507.628 46.224 507.388 46.7787 507.303 47.472H511.671C511.639 46.7467 511.447 46.1867 511.095 45.792C510.743 45.3867 510.252 45.184 509.623 45.184ZM514.792 52V44.192H516.36V45.584C516.766 44.656 517.608 44.1387 518.888 44.032L519.416 44L519.528 45.376L518.552 45.472C517.134 45.6107 516.424 46.3413 516.424 47.664V52H514.792Z" fill="#3A31D8"/>
<path d="M436 40H419C406.297 40 396 50.2975 396 63V63C396 75.7025 385.703 86 373 86H356" stroke="#BDBDBD" stroke-width="4" stroke-linecap="round" stroke-linejoin="round"/>
<path d="M372 86L354 86" stroke="#BDBDBD" stroke-width="4" stroke-linecap="round" stroke-linejoin="round"/>
<circle cx="7" cy="7" r="7" transform="matrix(-1 0 0 1 354 79)" stroke="#BDBDBD" stroke-width="4" stroke-linecap="round" stroke-linejoin="round"/>
<path d="M428 48L436 40L428 32" stroke="#BDBDBD" stroke-width="4" stroke-linecap="round" stroke-linejoin="round"/>
<path d="M136 40H153C165.703 40 176 50.2975 176 63V63C176 75.7025 186.297 86 199 86H216" stroke="#BDBDBD" stroke-width="4" stroke-linecap="round" stroke-linejoin="round"/>
<path d="M200 86L218 86" stroke="#BDBDBD" stroke-width="4" stroke-linecap="round" stroke-linejoin="round"/>
<circle cx="225" cy="86" r="7" stroke="#BDBDBD" stroke-width="4" stroke-linecap="round" stroke-linejoin="round"/>
<path d="M144 48L136 40L144 32" stroke="#BDBDBD" stroke-width="4" stroke-linecap="round" stroke-linejoin="round"/>
<path d="M522 216V216C522 201.992 522 194.988 519.166 189.686C516.929 185.5 513.5 182.071 509.314 179.834C504.012 177 497.008 177 483 177H325C310.992 177 303.988 177 298.686 174.166C294.5 171.929 291.071 168.5 288.834 164.314C286 159.012 286 152.008 286 138V138" stroke="#BDBDBD" stroke-width="4" stroke-linecap="round" stroke-linejoin="round"/>
<circle cx="7" cy="7" r="7" transform="matrix(0 -1 -1 0 293 138)" stroke="#BDBDBD" stroke-width="4" stroke-linecap="round" stroke-linejoin="round"/>
<path d="M514 208L522 216L530 208" stroke="#BDBDBD" stroke-width="4" stroke-linecap="round" stroke-linejoin="round"/>
<path d="M50 216V216C50 201.992 50 194.988 52.8339 189.686C55.0715 185.5 58.5002 182.071 62.6865 179.834C67.9883 177 74.9922 177 89 177H247C261.008 177 268.012 177 273.314 174.166C277.5 171.929 280.929 168.5 283.166 164.314C286 159.012 286 152.008 286 138V138" stroke="#BDBDBD" stroke-width="4" stroke-linecap="round" stroke-linejoin="round"/>
<circle cx="286" cy="131" r="7" transform="rotate(-90 286 131)" stroke="#BDBDBD" stroke-width="4" stroke-linecap="round" stroke-linejoin="round"/>
<path d="M58 208L50 216L42 208" stroke="#BDBDBD" stroke-width="4" stroke-linecap="round" stroke-linejoin="round"/>
<path d="M405 216V216C405 201.992 405 194.988 402.166 189.686C399.929 185.5 396.5 182.071 392.314 179.834C387.012 177 380.008 177 366 177H325C310.992 177 303.988 177 298.686 174.166C294.5 171.929 291.071 168.5 288.834 164.314C286 159.012 286 152.008 286 138V138" stroke="#BDBDBD" stroke-width="4" stroke-linecap="round" stroke-linejoin="round"/>
<circle cx="7" cy="7" r="7" transform="matrix(0 -1 -1 0 293 138)" stroke="#BDBDBD" stroke-width="4" stroke-linecap="round" stroke-linejoin="round"/>
<path d="M397 208L405 216L413 208" stroke="#BDBDBD" stroke-width="4" stroke-linecap="round" stroke-linejoin="round"/>
<path d="M167 216V216C167 201.992 167 194.988 169.834 189.686C172.071 185.5 175.5 182.071 179.686 179.834C184.988 177 191.992 177 206 177H247C261.008 177 268.012 177 273.314 174.166C277.5 171.929 280.929 168.5 283.166 164.314C286 159.012 286 152.008 286 138V138" stroke="#BDBDBD" stroke-width="4" stroke-linecap="round" stroke-linejoin="round"/>
<circle cx="286" cy="131" r="7" transform="rotate(-90 286 131)" stroke="#BDBDBD" stroke-width="4" stroke-linecap="round" stroke-linejoin="round"/>
<path d="M175 208L167 216L159 208" stroke="#BDBDBD" stroke-width="4" stroke-linecap="round" stroke-linejoin="round"/>
<path d="M286 216V138" stroke="#BDBDBD" stroke-width="4" stroke-linecap="round" stroke-linejoin="round"/>
<path d="M278 208L286 216L294 208" stroke="#BDBDBD" stroke-width="4" stroke-linecap="round" stroke-linejoin="round"/>
<circle cx="7" cy="7" r="7" transform="matrix(0 -1 -1 0 293 138)" stroke="#BDBDBD" stroke-width="4" stroke-linecap="round" stroke-linejoin="round"/>
<path d="M286 396V318" stroke="#BDBDBD" stroke-width="4" stroke-linecap="round" stroke-linejoin="round"/>
<path d="M278 388L286 396L294 388" stroke="#BDBDBD" stroke-width="4" stroke-linecap="round" stroke-linejoin="round"/>
<circle cx="7" cy="7" r="7" transform="matrix(0 -1 -1 0 293 318)" stroke="#BDBDBD" stroke-width="4" stroke-linecap="round" stroke-linejoin="round"/>
</svg>
